<svg width="400" height="1559" viewBox="0 0 400 1559" fill="none" xmlns="http://www.w3.org/2000/svg">
<g clip-path="url(#clip0_160_28)">
<path d="M399.804 1530.21V1528.51C388.196 1528.46 376.696 1527.79 365.451 1526.23C354.216 1524.66 343.217 1522.25 332.787 1518.56C322.348 1514.91 312.449 1510.12 303.306 1504.16C294.153 1498.21 285.756 1491.08 278.175 1483.04L275.376 1479.96C274.453 1478.93 273.471 1477.95 272.626 1476.83L267.372 1470.31C263.561 1465.4 259.751 1460.4 255.764 1455.56C247.848 1445.81 239.57 1436.29 230.78 1427.13C221.991 1417.98 212.69 1409.19 202.683 1401C197.724 1396.86 192.47 1392.99 187.117 1389.21L183.012 1386.47L180.95 1385.1L178.829 1383.8L174.576 1381.2L170.196 1378.75C164.294 1375.56 158.186 1372.6 151.714 1370.17C145.242 1367.74 138.466 1365.76 131.375 1364.5C124.285 1363.26 116.87 1362.74 109.318 1363.32C101.776 1363.86 94.1059 1365.68 86.8386 1368.74C85.9253 1369.09 85.0316 1369.53 84.1477 1369.96C83.2639 1370.4 82.3604 1370.81 81.4962 1371.29C79.7776 1372.27 78.0196 1373.2 76.3894 1374.34C73.0406 1376.48 69.9569 1379.03 67.0696 1381.75C64.1823 1384.49 61.6191 1387.54 59.2622 1390.72C56.9838 1393.95 54.9313 1397.34 53.2225 1400.88C46.3971 1415.06 44.6392 1431.45 48.4398 1446.81C49.3335 1450.66 50.728 1454.39 52.2895 1458.02C53.9296 1461.63 55.8642 1465.1 58.1033 1468.37C62.5717 1474.9 68.2284 1480.52 74.4351 1485.08C81.0346 1489.8 88.3117 1493.17 95.6379 1495.23C102.984 1497.3 110.389 1498.26 117.666 1498.38C132.22 1498.56 146.224 1495.51 159.178 1490.42C172.131 1485.3 184.073 1478.09 194.611 1469.31C205.129 1460.52 214.35 1450.29 221.892 1439.05C223.837 1436.27 225.556 1433.37 227.323 1430.49C228.973 1427.56 230.662 1424.63 232.126 1421.62C233.697 1418.64 235.013 1415.56 236.417 1412.51L238.313 1407.87C238.627 1407.09 238.951 1406.33 239.246 1405.54L240.09 1403.2C242.437 1396.95 244.244 1390.56 245.914 1384.17L247.023 1379.35L247.573 1376.93L248.035 1374.51L248.958 1369.66C249.233 1368.04 249.459 1366.42 249.705 1364.8C251.629 1351.83 252.425 1338.8 252.219 1325.89C251.816 1300.05 247.907 1274.67 241.779 1250.13C238.705 1237.86 235.19 1225.75 231.153 1213.85C230.181 1210.85 229.081 1207.92 228.05 1204.95L226.479 1200.51L224.809 1196.11C223.69 1193.19 222.599 1190.25 221.45 1187.34L217.915 1178.65C216.766 1175.74 215.489 1172.88 214.262 1170.02C213.005 1167.16 211.816 1164.27 210.51 1161.44L202.781 1144.61C197.743 1133.61 192.548 1122.67 187.746 1111.58L180.42 1095L173.388 1078.31L169.872 1069.96C168.684 1067.18 167.623 1064.37 166.494 1061.57L159.796 1044.76C151.193 1022.25 142.836 999.645 135.647 976.71L132.878 968.129C131.955 965.272 131.159 962.376 130.295 959.499L125.198 942.229L120.563 924.841C119.816 921.935 118.962 919.059 118.294 916.133L116.222 907.385L114.14 898.637L113.099 894.268L112.176 889.87L108.523 872.276C108.199 870.813 107.924 869.34 107.678 867.867L106.892 863.449L105.321 854.613L103.76 845.767L102.444 836.882L101.128 827.996C100.686 825.031 100.224 822.076 99.9099 819.101L97.7985 801.271C97.4057 798.306 97.1994 795.312 96.9146 792.337L96.1191 783.393L95.3139 774.448L94.7639 765.475C91.5525 717.651 92.6622 669.513 96.2075 621.463C100.018 573.414 106.284 525.433 114.032 477.599C121.859 429.776 131.041 382.08 140.892 334.462C143.376 322.562 145.812 310.653 148.404 298.773L152.234 280.934L153.197 276.476L154.159 271.931C154.778 268.809 155.475 265.706 156.025 262.564C160.661 237.518 162.625 211.736 160.788 185.895C160.621 182.665 160.219 179.445 159.924 176.214C159.6 172.984 159.099 169.774 158.687 166.553C158.146 163.343 157.655 160.123 157.027 156.922C156.349 153.731 155.78 150.521 154.955 147.349C151.91 134.635 147.835 122.078 142.374 110.031C131.68 85.8785 115.574 63.7682 95.3433 46.3215C90.2464 42.0212 85.012 37.8584 79.4633 34.1668C76.743 32.2326 73.8852 30.5341 71.0666 28.757C69.6525 27.8734 68.1891 27.0879 66.7455 26.2534C65.2921 25.4385 63.8681 24.5745 62.3852 23.8382C50.6298 17.6528 38.3147 12.6063 25.6657 8.97362C13.0265 5.29185 0.122129 2.80788 -12.8117 1.37444C-25.7553 0.0588237 -38.7382 -0.294626 -51.6033 0.225731C-77.3629 1.26645 -102.651 5.74348 -127.095 12.4296C-151.578 19.096 -175.157 28.1777 -198 38.5751L-197.293 40.1165C-174.529 29.7585 -151.028 20.7062 -126.653 14.079C-102.307 7.41255 -77.1371 2.95515 -51.5346 1.92426C-38.7383 1.41372 -25.8535 1.75735 -12.9983 3.12206C-0.152852 4.54568 12.6533 7.01983 25.1845 10.6623C37.7353 14.2557 49.9423 19.2728 61.5897 25.3992C63.0628 26.1258 64.477 26.9799 65.9108 27.785C67.3348 28.6097 68.7882 29.3854 70.1926 30.2592C72.9816 32.0166 75.8198 33.7053 78.5107 35.6198C84.0103 39.282 89.1858 43.4056 94.2336 47.6666C114.268 64.9464 130.216 86.8406 140.823 110.787C146.234 122.726 150.28 135.185 153.295 147.801C154.11 150.943 154.68 154.134 155.348 157.305C155.966 160.486 156.457 163.677 156.997 166.868C157.4 170.068 157.901 173.259 158.225 176.47C158.529 179.67 158.922 182.881 159.089 186.091C160.906 211.766 158.962 237.41 154.346 262.329C153.796 265.451 153.108 268.543 152.49 271.646L151.537 276.182L150.575 280.639L146.735 298.479C144.142 310.368 141.707 322.278 139.222 334.177C129.372 381.805 120.18 429.52 112.343 477.383C104.594 525.246 98.319 573.276 94.4987 621.385C90.9535 669.493 89.8339 717.72 93.0551 765.632L93.605 774.615L94.4103 783.579L95.2156 792.543C95.4906 795.528 95.7067 798.522 96.0995 801.497L98.2208 819.366C98.535 822.351 99.0064 825.316 99.4483 828.281L100.764 837.176L102.08 846.071L103.642 854.927L105.223 863.783L106.009 868.211C106.254 869.693 106.539 871.166 106.863 872.629L110.526 890.252L111.449 894.661L112.49 899.04L114.572 907.797L116.654 916.565C117.322 919.491 118.176 922.377 118.923 925.283L123.568 942.701L128.675 960C129.539 962.877 130.344 965.773 131.267 968.64L134.037 977.231C141.235 1000.2 149.602 1022.84 158.215 1045.38L164.923 1062.21C166.052 1065 167.123 1067.82 168.311 1070.61L171.827 1078.97L178.868 1095.68L186.204 1112.28C191.016 1123.37 196.202 1134.33 201.249 1145.34L208.968 1162.14C210.265 1164.97 211.463 1167.85 212.71 1170.71C213.938 1173.56 215.205 1176.41 216.354 1179.31L219.879 1187.98C221.018 1190.88 222.108 1193.81 223.228 1196.72L224.888 1201.1L226.459 1205.52C227.49 1208.48 228.59 1211.4 229.553 1214.39C233.569 1226.25 237.085 1238.32 240.139 1250.55C246.238 1274.98 250.127 1300.24 250.529 1325.91C250.736 1338.74 249.95 1351.68 248.035 1364.54C247.789 1366.15 247.564 1367.76 247.289 1369.36L246.375 1374.17L245.914 1376.58L245.374 1378.98L244.274 1383.76C242.614 1390.1 240.827 1396.43 238.499 1402.62L237.655 1404.94C237.36 1405.72 237.036 1406.48 236.731 1407.25L234.856 1411.85C233.471 1414.86 232.165 1417.91 230.613 1420.85C229.16 1423.83 227.49 1426.73 225.86 1429.64C224.112 1432.48 222.413 1435.36 220.488 1438.1C213.024 1449.21 203.911 1459.33 193.53 1468.01C183.13 1476.68 171.326 1483.78 158.559 1488.84C145.792 1493.86 131.994 1496.86 117.695 1496.68C110.556 1496.56 103.288 1495.62 96.1093 1493.59C88.9402 1491.57 81.8595 1488.28 75.4368 1483.7C69.3775 1479.24 63.8681 1473.76 59.5077 1467.4C57.3275 1464.22 55.4419 1460.83 53.8412 1457.31C52.319 1453.77 50.9637 1450.15 50.0897 1446.4C46.3873 1431.43 48.1059 1415.43 54.7545 1401.61C56.424 1398.15 58.4176 1394.85 60.6371 1391.7C62.9351 1388.61 65.4295 1385.63 68.2481 1382.97C71.0666 1380.32 74.0717 1377.84 77.3322 1375.75C78.9231 1374.64 80.6319 1373.73 82.3113 1372.77C83.1558 1372.31 84.0397 1371.91 84.8941 1371.48C85.7583 1371.07 86.6226 1370.63 87.5162 1370.29C94.5969 1367.32 102.08 1365.53 109.465 1365C116.851 1364.45 124.128 1364.95 131.091 1366.17C138.063 1367.4 144.741 1369.35 151.125 1371.75C157.508 1374.16 163.558 1377.08 169.391 1380.23L173.722 1382.66L177.935 1385.22L180.037 1386.52L182.079 1387.87L186.155 1390.59C191.458 1394.34 196.683 1398.19 201.613 1402.29C211.551 1410.43 220.812 1419.18 229.562 1428.29C238.313 1437.4 246.562 1446.89 254.458 1456.61C258.425 1461.44 262.226 1466.43 266.026 1471.32L271.33 1477.91C272.184 1479.04 273.176 1480.03 274.109 1481.07L276.937 1484.18C284.607 1492.32 293.112 1499.53 302.383 1505.56C311.643 1511.6 321.68 1516.45 332.228 1520.14C342.765 1523.87 353.882 1526.31 365.205 1527.89C376.538 1529.46 388.117 1530.13 399.794 1530.19L399.804 1530.21Z" fill="#030404"/>
<path d="M399.804 1559V1557.3C387.086 1557.24 374.27 1556.52 361.444 1554.74C348.638 1552.94 335.793 1550.15 323.32 1545.75C310.858 1541.4 298.769 1535.56 287.612 1528.29C276.436 1521.02 266.233 1512.34 257.188 1502.75L253.859 1499.1C252.759 1497.87 251.6 1496.69 250.608 1495.39L244.441 1487.73C240.768 1483 237.173 1478.29 233.402 1473.7C225.919 1464.49 218.151 1455.56 210.009 1447.08C201.868 1438.61 193.363 1430.59 184.436 1423.28C179.997 1419.57 175.392 1416.19 170.746 1412.9L167.211 1410.54L165.443 1409.36L163.646 1408.26L160.052 1406.06L156.408 1404.02C151.527 1401.39 146.568 1398.99 141.53 1397.1C136.502 1395.22 131.424 1393.75 126.386 1392.87C121.348 1391.98 116.369 1391.67 111.587 1392.02C106.804 1392.36 102.287 1393.51 98.1226 1395.23C89.8437 1398.75 83.0675 1405.17 79.1687 1413.38C75.2306 1421.53 74.2092 1431.19 76.3894 1439.91C76.8805 1442.11 77.7054 1444.2 78.5696 1446.26C79.5026 1448.29 80.5927 1450.25 81.8497 1452.1C84.3834 1455.8 87.6341 1459.04 91.3758 1461.82C94.8916 1464.29 98.9966 1466.3 103.563 1467.57C108.13 1468.85 113.05 1469.53 118.088 1469.62C128.213 1469.74 138.711 1467.56 148.601 1463.66C158.51 1459.74 167.879 1454.12 176.197 1447.18C184.505 1440.22 191.92 1432.06 198.038 1422.92C199.619 1420.67 201.014 1418.29 202.467 1415.95C203.813 1413.54 205.207 1411.15 206.405 1408.66C207.711 1406.21 208.782 1403.64 209.96 1401.13L211.532 1397.26C211.787 1396.61 212.072 1395.97 212.307 1395.31L213.015 1393.34C214.998 1388.12 216.511 1382.69 217.945 1377.25L218.897 1373.12L219.368 1371.06L219.761 1368.97L220.557 1364.8C220.793 1363.4 220.989 1361.99 221.205 1360.59C222.874 1349.34 223.601 1337.86 223.405 1326.31C223.051 1303.21 219.526 1279.93 213.81 1257.08C210.952 1245.66 207.652 1234.3 203.842 1223.07C202.929 1220.25 201.878 1217.47 200.906 1214.66L199.423 1210.47L197.842 1206.3C196.771 1203.52 195.74 1200.73 194.65 1197.97L191.281 1189.69C190.191 1186.92 188.974 1184.2 187.795 1181.47C186.597 1178.74 185.458 1175.98 184.211 1173.27L176.668 1156.83C171.552 1145.67 166.298 1134.58 161.407 1123.31L153.963 1106.46L146.804 1089.46L143.229 1080.96C142.021 1078.13 140.931 1075.25 139.782 1072.4L132.947 1055.25C124.157 1032.24 115.603 1009.11 108.208 985.537L105.37 976.73C104.427 973.795 103.603 970.81 102.709 967.855L97.4646 950.074L92.6819 932.156C91.9061 929.162 91.032 926.197 90.3446 923.182L88.1939 914.15L86.0529 905.117L84.9825 900.601L84.0299 896.055L80.2489 877.872C79.915 876.36 79.6302 874.838 79.3749 873.316L78.5598 868.741L76.9296 859.601L75.319 850.45L73.9539 841.26L72.5888 832.071C72.1371 829.008 71.6559 825.944 71.3219 822.871L69.132 804.423C68.7293 801.35 68.5034 798.267 68.2186 795.184L67.3937 785.936L66.5688 776.687L65.9992 767.419C62.6798 717.995 63.8386 668.472 67.4624 619.343C71.3612 570.223 77.7349 521.467 85.5717 473.064C93.4872 424.67 102.758 376.601 112.657 328.718C115.161 316.75 117.607 304.772 120.209 292.843L124.059 274.925L125.021 270.448L125.954 266.04C126.524 263.163 127.162 260.306 127.673 257.43C131.935 234.426 133.664 211.049 132.033 188.055C131.886 185.178 131.523 182.321 131.267 179.464C130.983 176.607 130.531 173.77 130.177 170.923C129.696 168.105 129.264 165.267 128.714 162.459C128.115 159.671 127.624 156.844 126.907 154.094C124.255 143.01 120.74 132.171 116.065 121.901L114.317 118.052L112.412 114.282L111.469 112.397C111.145 111.779 110.791 111.17 110.447 110.551L108.405 106.87C105.527 102.059 102.561 97.2872 99.193 92.8101C92.623 83.748 84.9236 75.5696 76.5171 68.2355C72.2451 64.6519 67.8749 61.1469 63.2199 58.0542C60.9513 56.4244 58.5256 55.0106 56.1687 53.4986C54.9804 52.7524 53.743 52.1044 52.535 51.3975C51.3074 50.7201 50.1191 49.9739 48.8523 49.3652C38.9137 44.1518 28.4547 39.8319 17.5538 36.7097C6.6725 33.5483 -4.55252 31.3589 -15.9445 30.1022C-27.3463 28.8847 -38.8954 28.5705 -50.4641 29.0418C-73.6213 29.9745 -96.8079 34.0392 -119.484 40.2442C-142.199 46.41 -164.364 54.9419 -185.98 64.7796L-185.272 66.321C-163.736 56.5226 -141.649 48.0299 -119.042 41.8838C-96.4641 35.6985 -73.4052 31.6731 -50.4052 30.7403C-38.915 30.2789 -27.4445 30.5931 -16.1311 31.8007C-4.8275 33.0476 6.29931 35.2174 17.0726 38.3493C27.8753 41.4322 38.2263 45.7227 48.047 50.8772C49.2942 51.4859 50.4727 52.2124 51.6904 52.8899C52.8886 53.587 54.1161 54.235 55.2848 54.9713C57.6221 56.4538 60.0085 57.8578 62.2575 59.468C66.8634 62.5312 71.1845 65.9872 75.4074 69.5315C83.7156 76.787 91.3267 84.8673 97.8279 93.8312C101.157 98.2493 104.094 102.972 106.942 107.734L108.965 111.376C109.298 111.985 109.652 112.584 109.966 113.202L110.899 115.068L112.785 118.799L114.513 122.608C119.129 132.779 122.615 143.52 125.247 154.507C125.964 157.236 126.445 160.034 127.044 162.803C127.594 165.582 128.017 168.399 128.498 171.198C128.851 174.025 129.303 176.833 129.578 179.67C129.833 182.518 130.197 185.336 130.344 188.202C131.965 211.029 130.246 234.259 126.003 257.145C125.503 260.012 124.854 262.859 124.295 265.716L123.362 270.124L122.399 274.601L118.55 292.519C115.947 304.458 113.492 316.436 110.997 328.404C101.088 376.297 91.8177 424.395 83.9022 472.818C76.0555 521.26 69.6721 570.066 65.7733 619.245C62.1495 668.433 60.9808 718.044 64.31 767.556L64.8796 776.834L65.7045 786.103L66.5295 795.371C66.8143 798.464 67.0402 801.556 67.4428 804.629L69.6328 823.117C69.9569 826.2 70.4479 829.273 70.8997 832.336L72.2648 841.545L73.6298 850.755L75.2404 859.925L76.8707 869.085L77.6858 873.67C77.9411 875.202 78.2357 876.723 78.5598 878.235L82.3506 896.458L83.3032 901.013L84.3736 905.539L86.5244 914.582L88.6751 923.624C89.3625 926.648 90.2366 929.613 91.0124 932.618L95.8049 950.575L101.059 968.385C101.953 971.35 102.778 974.335 103.72 977.27L106.568 986.097C113.973 1009.7 122.537 1032.87 131.336 1055.9L138.181 1073.07C139.34 1075.93 140.43 1078.82 141.638 1081.65L145.222 1090.16L152.392 1107.17L159.845 1124.04C164.736 1135.33 170 1146.43 175.117 1157.59L182.649 1173.99C183.896 1176.7 185.026 1179.44 186.224 1182.17C187.402 1184.9 188.61 1187.62 189.7 1190.38L193.059 1198.63C194.149 1201.39 195.18 1204.17 196.241 1206.93L197.812 1211.09L199.295 1215.27C200.267 1218.06 201.308 1220.84 202.222 1223.64C206.012 1234.84 209.293 1246.16 212.15 1257.54C217.836 1280.28 221.342 1303.45 221.696 1326.38C221.883 1337.85 221.166 1349.24 219.516 1360.38C219.3 1361.77 219.113 1363.17 218.877 1364.55L218.092 1368.69L217.699 1370.76L217.228 1372.8L216.285 1376.88C214.871 1382.27 213.368 1387.65 211.414 1392.81L210.716 1394.76C210.471 1395.41 210.196 1396.04 209.941 1396.68L208.379 1400.51C207.22 1402.99 206.16 1405.53 204.873 1407.95C203.685 1410.41 202.3 1412.77 200.984 1415.16C199.55 1417.46 198.176 1419.82 196.614 1422.04C190.574 1431.05 183.278 1439.09 175.097 1445.94C166.897 1452.78 157.685 1458.3 147.962 1462.14C138.25 1465.97 127.948 1468.11 118.088 1467.99C113.178 1467.9 108.405 1467.24 104.005 1466C99.5956 1464.78 95.687 1462.85 92.348 1460.51C88.7536 1457.83 85.6503 1454.73 83.2246 1451.2C82.0167 1449.43 80.9757 1447.56 80.0918 1445.62C79.2669 1443.66 78.4812 1441.66 78.0197 1439.56C75.9377 1431.24 76.9099 1421.98 80.681 1414.18C84.4129 1406.33 90.8651 1400.23 98.7707 1396.86C102.758 1395.22 107.089 1394.11 111.705 1393.79C116.32 1393.45 121.162 1393.74 126.072 1394.62C130.992 1395.48 135.971 1396.91 140.911 1398.77C145.861 1400.62 150.752 1402.99 155.573 1405.59L159.178 1407.61L162.733 1409.78L164.51 1410.87L166.258 1412.03L169.764 1414.36C174.37 1417.63 178.947 1420.98 183.346 1424.66C192.205 1431.92 200.67 1439.9 208.772 1448.33C216.874 1456.76 224.613 1465.66 232.067 1474.84C235.828 1479.41 239.403 1484.11 243.066 1488.83L249.282 1496.56C250.284 1497.86 251.453 1499.06 252.562 1500.3L255.921 1503.98C265.044 1513.67 275.366 1522.45 286.65 1529.78C297.934 1537.14 310.141 1543.03 322.731 1547.41C335.321 1551.86 348.275 1554.67 361.169 1556.48C374.083 1558.27 386.978 1559 399.764 1559.06L399.804 1559Z" fill="#030404"/>
<path d="M399.804 1534.27V1530.2C388.137 1530.14 376.558 1529.48 365.215 1527.9C353.892 1526.31 342.775 1523.88 332.237 1520.15C321.68 1516.46 311.653 1511.61 302.392 1505.57C293.122 1499.54 284.617 1492.33 276.947 1484.19L274.119 1481.08C273.186 1480.04 272.194 1479.05 271.339 1477.92L266.036 1471.33C262.236 1466.44 258.435 1461.45 254.468 1456.62C246.582 1446.91 238.332 1437.42 229.572 1428.3C220.822 1419.19 211.561 1410.44 201.623 1402.3C196.693 1398.2 191.478 1394.35 186.165 1390.6L182.089 1387.88L180.047 1386.53L177.945 1385.23L173.732 1382.67L169.401 1380.24C163.558 1377.09 157.518 1374.17 151.135 1371.76C144.751 1369.36 138.073 1367.41 131.1 1366.18C124.137 1364.96 116.86 1364.46 109.475 1365.01C102.09 1365.54 94.6067 1367.33 87.526 1370.3C86.6324 1370.64 85.7682 1371.07 84.9039 1371.49C84.0397 1371.93 83.1657 1372.32 82.3211 1372.78C80.6418 1373.74 78.933 1374.65 77.342 1375.76C74.0816 1377.85 71.0764 1380.33 68.2579 1382.98C65.4394 1385.64 62.9547 1388.62 60.6469 1391.71C58.4274 1394.86 56.424 1398.16 54.7643 1401.62C48.1157 1415.44 46.3971 1431.44 50.0995 1446.41C50.9735 1450.16 52.3288 1453.79 53.851 1457.32C55.4518 1460.84 57.3373 1464.22 59.5175 1467.41C63.8779 1473.77 69.3873 1479.25 75.4466 1483.71C81.8694 1488.29 88.95 1491.58 96.1191 1493.6C103.298 1495.62 110.565 1496.57 117.705 1496.69C132.004 1496.86 145.792 1493.87 158.569 1488.85C171.336 1483.79 183.14 1476.69 193.54 1468.02C203.921 1459.34 213.044 1449.22 220.498 1438.11C222.423 1435.36 224.122 1432.49 225.87 1429.65C227.5 1426.74 229.17 1423.85 230.623 1420.86C232.175 1417.91 233.481 1414.87 234.866 1411.86L236.741 1407.26C237.046 1406.5 237.37 1405.73 237.664 1404.95L238.509 1402.63C240.836 1396.44 242.624 1390.11 244.284 1383.77L245.383 1378.99L245.924 1376.59L246.385 1374.18L247.298 1369.37C247.573 1367.76 247.799 1366.16 248.045 1364.55C249.96 1351.69 250.746 1338.75 250.539 1325.92C250.146 1300.24 246.248 1274.98 240.149 1250.56C237.095 1238.33 233.579 1226.26 229.562 1214.4C228.6 1211.41 227.5 1208.49 226.469 1205.53L224.898 1201.11L223.238 1196.73C222.118 1193.82 221.028 1190.89 219.889 1187.99L216.363 1179.32C215.214 1176.41 213.947 1173.57 212.72 1170.72C211.473 1167.87 210.275 1164.98 208.978 1162.15L201.259 1145.35C196.211 1134.34 191.016 1123.39 186.214 1112.29L178.878 1095.69L171.836 1078.98L168.321 1070.62C167.132 1067.84 166.072 1065.01 164.933 1062.22L158.225 1045.39C149.612 1022.85 141.245 1000.21 134.047 977.241L131.277 968.65C130.354 965.783 129.559 962.887 128.684 960.01L123.578 942.711L118.933 925.293C118.186 922.387 117.332 919.501 116.664 916.575L114.582 907.807L112.5 899.05L111.459 894.671L110.536 890.262L106.873 872.639C106.549 871.176 106.274 869.703 106.018 868.221L105.233 863.793L103.652 854.937L102.09 846.081L100.774 837.186L99.4582 828.291C99.0162 825.326 98.5547 822.361 98.2306 819.376L96.1093 801.507C95.7165 798.532 95.5004 795.538 95.2254 792.553L94.4202 783.589L93.6149 774.625L93.0649 765.642C89.8437 717.72 90.9633 669.503 94.5086 621.395C98.3288 573.277 104.594 525.256 112.353 477.393C120.18 429.53 129.372 381.815 139.232 334.187C141.717 322.288 144.152 310.378 146.745 298.489L150.585 280.649L151.547 276.192L152.5 271.656C153.118 268.544 153.806 265.461 154.356 262.339C158.971 237.411 160.916 211.776 159.099 186.101C158.932 182.891 158.539 179.69 158.235 176.48C157.911 173.279 157.41 170.078 157.007 166.878C156.467 163.687 155.976 160.496 155.357 157.315C154.69 154.144 154.12 150.953 153.305 147.811C150.29 135.195 146.244 122.736 140.833 110.797C130.226 86.8506 114.278 64.9563 94.2434 47.6765C89.1956 43.4253 84.0103 39.2919 78.5205 35.6298C75.8296 33.7152 72.9915 32.0265 70.2024 30.2691C68.8079 29.3953 67.3544 28.6197 65.9206 27.7949C64.4868 26.9899 63.0726 26.1357 61.5995 25.4091C49.9522 19.2827 37.7451 14.2755 25.1943 10.6722C12.6631 7.02974 -0.143033 4.55559 -12.9885 3.13197C-25.8437 1.75744 -38.7284 1.41381 -51.5248 1.93417C-77.1272 2.96507 -102.298 7.42246 -126.633 14.0791C-151.028 20.6965 -174.529 29.7487 -197.293 40.1068L-195.594 43.7984C-172.997 33.5189 -149.702 24.5452 -125.573 17.9867C-101.482 11.389 -76.6166 7.00029 -51.3774 5.97921C-38.7677 5.46867 -26.0794 5.8123 -13.4402 7.15738C-0.810846 8.55154 11.7596 10.9864 24.0453 14.5602C36.3506 18.0849 48.2925 22.9939 59.6845 28.9829C61.1281 29.6898 62.503 30.5342 63.9074 31.3196C65.3019 32.1247 66.7259 32.8807 68.091 33.7447C70.8113 35.4628 73.5905 37.1123 76.2126 38.9875C81.5846 42.5613 86.6422 46.5965 91.5722 50.7496C111.135 67.6268 126.72 89.0105 137.101 112.456C142.404 124.149 146.362 136.363 149.328 148.753C150.133 151.836 150.683 154.978 151.341 158.09C151.95 161.213 152.431 164.354 152.961 167.486C153.364 170.638 153.855 173.77 154.169 176.931C154.464 180.083 154.857 183.234 155.014 186.396C156.801 211.668 154.896 236.969 150.329 261.602C149.789 264.685 149.102 267.748 148.493 270.812C147.864 273.894 147.216 276.791 146.578 279.795L142.738 297.644C140.145 309.544 137.71 321.463 135.215 333.372C125.355 381.039 116.153 428.804 108.307 476.745C100.538 524.687 94.2532 572.825 90.4232 621.09C86.8681 669.356 85.7485 717.769 88.9795 765.917L89.5295 774.949L90.3348 783.952L91.1401 792.956C91.4249 795.96 91.6311 798.964 92.0239 801.949L94.155 819.906C94.4693 822.901 94.9406 825.885 95.3826 828.86L96.7084 837.805L98.0342 846.749L99.6055 855.654L101.187 864.559L101.982 869.006C102.237 870.489 102.512 871.971 102.836 873.444L106.519 891.156L107.442 895.584L108.493 899.982L110.585 908.789L112.677 917.596C113.345 920.541 114.199 923.438 114.955 926.354L119.62 943.849L124.746 961.227C125.62 964.114 126.416 967.03 127.349 969.907L130.138 978.527C137.366 1001.59 145.763 1024.3 154.405 1046.9L161.132 1063.78C162.271 1066.58 163.342 1069.41 164.53 1072.2L168.056 1080.58L175.107 1097.33L182.462 1113.97C187.284 1125.09 192.489 1136.06 197.537 1147.09L205.227 1163.84C206.523 1166.65 207.702 1169.52 208.949 1172.35C210.176 1175.19 211.433 1178.01 212.573 1180.9L216.079 1189.51C217.218 1192.39 218.298 1195.3 219.408 1198.2L221.058 1202.55L222.609 1206.93C223.631 1209.87 224.721 1212.77 225.673 1215.73C229.661 1227.5 233.137 1239.46 236.162 1251.57C242.202 1275.77 246.041 1300.72 246.424 1326.02C246.631 1338.65 245.845 1351.38 243.969 1364C243.724 1365.58 243.508 1367.16 243.243 1368.74L242.349 1373.45L241.897 1375.8L241.367 1378.15L240.287 1382.83C238.666 1389.04 236.918 1395.23 234.64 1401.28L233.815 1403.56C233.53 1404.32 233.216 1405.06 232.911 1405.81L231.085 1410.3C229.729 1413.23 228.462 1416.22 226.94 1419.08C225.526 1422 223.896 1424.82 222.305 1427.64C220.606 1430.41 218.946 1433.22 217.08 1435.88C209.823 1446.7 200.965 1456.52 190.889 1464.94C180.793 1473.35 169.362 1480.24 157.027 1485.12C144.692 1489.97 131.385 1492.85 117.715 1492.68C110.889 1492.56 103.976 1491.66 97.1896 1489.74C90.4133 1487.84 83.7745 1484.74 77.7938 1480.47C72.0781 1476.25 66.9125 1471.12 62.8271 1465.15C60.7844 1462.16 59.0167 1458.99 57.5239 1455.7C56.0999 1452.39 54.8232 1448.99 54.0081 1445.46C50.5316 1431.43 52.1422 1416.39 58.3881 1403.41C59.9496 1400.17 61.8254 1397.07 63.9074 1394.13C66.0679 1391.23 68.3954 1388.44 71.0372 1385.95C73.6691 1383.46 76.4778 1381.14 79.5418 1379.18C81.0346 1378.14 82.6354 1377.3 84.1969 1376.39C84.9923 1375.96 85.8173 1375.59 86.6226 1375.19C87.4377 1374.79 88.243 1374.38 89.0875 1374.07C95.7263 1371.29 102.768 1369.6 109.76 1369.09C116.752 1368.56 123.686 1369.03 130.364 1370.21C137.042 1371.39 143.484 1373.27 149.671 1375.59C155.858 1377.92 161.731 1380.76 167.437 1383.84L171.67 1386.2L175.784 1388.72L177.837 1389.98L179.84 1391.31L183.837 1393.97C189.042 1397.65 194.169 1401.43 199.03 1405.47C208.821 1413.5 217.964 1422.13 226.626 1431.15C235.288 1440.17 243.459 1449.57 251.295 1459.21C255.234 1464 259.005 1468.95 262.786 1473.82L268.226 1480.56C269.1 1481.72 270.112 1482.73 271.074 1483.8L273.981 1486.99C281.857 1495.35 290.617 1502.78 300.173 1509C309.719 1515.22 320.06 1520.22 330.902 1524.01C341.734 1527.84 353.106 1530.32 364.655 1531.94C376.214 1533.54 387.98 1534.23 399.804 1534.29V1534.27Z" fill="#E64D3C"/>
<path d="M399.804 1535.97V1534.27C387.98 1534.21 376.214 1533.53 364.655 1531.92C353.106 1530.3 341.734 1527.82 330.902 1523.99C320.06 1520.2 309.719 1515.2 300.173 1508.98C290.617 1502.76 281.857 1495.33 273.981 1486.97L271.074 1483.78C270.112 1482.71 269.1 1481.69 268.226 1480.54L262.786 1473.8C259.005 1468.93 255.234 1463.98 251.296 1459.19C243.468 1449.55 235.288 1440.15 226.626 1431.13C217.964 1422.12 208.821 1413.48 199.03 1405.46C194.179 1401.41 189.042 1397.63 183.837 1393.95L179.84 1391.29L177.837 1389.96L175.784 1388.7L171.67 1386.18L167.437 1383.82C161.741 1380.74 155.858 1377.9 149.671 1375.57C143.484 1373.25 137.052 1371.38 130.364 1370.19C123.686 1369.01 116.752 1368.54 109.76 1369.07C102.768 1369.57 95.7263 1371.26 89.0875 1374.05C88.243 1374.36 87.4377 1374.77 86.6226 1375.17C85.8173 1375.57 84.9923 1375.93 84.1969 1376.37C82.6256 1377.28 81.0248 1378.12 79.5418 1379.16C76.4876 1381.12 73.6789 1383.44 71.0372 1385.93C68.3954 1388.42 66.0679 1391.21 63.9074 1394.11C61.8254 1397.06 59.9496 1400.15 58.3881 1403.39C52.1422 1416.36 50.5316 1431.41 54.0081 1445.44C54.8232 1448.96 56.0999 1452.37 57.5239 1455.68C59.0167 1458.97 60.7942 1462.14 62.8271 1465.13C66.9125 1471.1 72.088 1476.23 77.7938 1480.45C83.7844 1484.72 90.4133 1487.81 97.1896 1489.72C103.976 1491.64 110.889 1492.54 117.715 1492.66C131.385 1492.83 144.682 1489.95 157.027 1485.1C169.372 1480.22 180.803 1473.33 190.889 1464.92C200.965 1456.5 209.823 1446.68 217.08 1435.86C218.956 1433.19 220.606 1430.39 222.305 1427.62C223.896 1424.79 225.516 1421.98 226.94 1419.06C228.462 1416.2 229.729 1413.21 231.085 1410.28L232.911 1405.79C233.206 1405.04 233.53 1404.3 233.815 1403.54L234.64 1401.26C236.918 1395.22 238.666 1389.03 240.287 1382.81L241.367 1378.13L241.897 1375.79L242.349 1373.43L243.243 1368.72C243.508 1367.15 243.724 1365.56 243.969 1363.98C245.845 1351.36 246.631 1338.64 246.424 1326C246.032 1300.71 242.202 1275.75 236.162 1251.55C233.137 1239.44 229.661 1227.47 225.673 1215.71C224.721 1212.76 223.621 1209.85 222.609 1206.91L221.058 1202.53L219.408 1198.18C218.298 1195.28 217.218 1192.37 216.079 1189.49L212.573 1180.88C211.433 1178 210.176 1175.17 208.949 1172.33C207.702 1169.49 206.523 1166.63 205.227 1163.82L197.537 1147.07C192.48 1136.05 187.275 1125.07 182.462 1113.95L175.107 1097.31L168.056 1080.56L164.53 1072.18C163.342 1069.39 162.271 1066.57 161.132 1063.76L154.405 1046.88C145.763 1024.27 137.366 1001.56 130.138 978.507L127.349 969.887C126.426 967.01 125.62 964.104 124.746 961.208L119.62 943.83L114.955 926.334C114.199 923.408 113.345 920.512 112.677 917.576L110.585 908.769L108.493 899.963L107.442 895.564L106.519 891.136L102.836 873.424C102.512 871.952 102.237 870.469 101.982 868.987L101.187 864.539L99.6055 855.634L98.0342 846.729L96.7084 837.785L95.3826 828.841C94.9407 825.856 94.4693 822.881 94.155 819.887L92.0239 801.929C91.6311 798.945 91.4151 795.931 91.1401 792.936L90.3348 783.933L89.5295 774.93L88.9795 765.897C85.7485 717.749 86.8681 669.336 90.4232 621.071C94.2532 572.805 100.538 524.667 108.307 476.726C116.153 428.784 125.355 381.009 135.215 333.353C137.7 321.443 140.145 309.524 142.738 297.625L146.578 279.775C147.216 276.781 147.864 273.875 148.493 270.792C149.102 267.719 149.789 264.665 150.329 261.583C154.896 236.949 156.801 211.648 155.014 186.376C154.847 183.215 154.464 180.063 154.169 176.912C153.855 173.76 153.364 170.618 152.961 167.467C152.431 164.335 151.95 161.193 151.341 158.071C150.683 154.958 150.123 151.826 149.328 148.734C146.362 136.343 142.404 124.13 137.101 112.436C126.711 88.9909 111.135 67.617 91.5722 50.7299C86.6324 46.5769 81.5747 42.5417 76.2127 38.9679C73.5807 37.0926 70.8113 35.453 68.091 33.725C66.7259 32.8709 65.3019 32.1149 63.9074 31.3C62.503 30.5145 61.1281 29.68 59.6845 28.9633C48.2925 22.9743 36.3506 18.0652 24.0453 14.5406C11.7596 10.9668 -0.81083 8.5319 -13.4402 7.13774C-26.0794 5.79267 -38.7677 5.44903 -51.3774 5.95957C-76.6165 6.98065 -101.482 11.3693 -125.573 17.9671C-149.702 24.5255 -172.997 33.4992 -195.594 43.7787L-194.887 45.3202C-172.368 35.0701 -149.152 26.1259 -125.121 19.5969C-101.129 13.0286 -76.3907 8.66936 -51.3087 7.64828C-38.7775 7.14756 -26.1678 7.48137 -13.6268 8.81663C-1.0858 10.201 11.3766 12.6162 23.5641 16.1605C35.7613 19.6558 47.5952 24.5255 58.8792 30.4556C60.313 31.1625 61.6781 31.9873 63.0628 32.7727C64.4377 33.5778 65.8518 34.3239 67.2071 35.1683C69.9078 36.8766 72.6477 38.5064 75.2502 40.3621C80.5632 43.9064 85.5718 47.8925 90.4625 52.0063C109.829 68.7166 125.257 89.8745 135.549 113.114C140.803 124.699 144.731 136.815 147.678 149.107C148.473 152.17 149.023 155.282 149.681 158.365C150.29 161.468 150.761 164.58 151.292 167.692C151.684 170.815 152.176 173.937 152.49 177.069C152.784 180.201 153.167 183.333 153.334 186.465C155.112 211.569 153.217 236.733 148.67 261.249C148.129 264.322 147.452 267.365 146.843 270.419C146.224 273.482 145.566 276.398 144.938 279.393L141.098 297.252C138.505 309.151 136.06 321.07 133.575 332.989C123.715 380.666 114.503 428.46 106.657 476.441C98.8886 524.422 92.5935 572.599 88.7536 620.933C85.1887 669.258 84.0692 717.759 87.31 765.995L87.8698 775.038L88.6751 784.061L89.4804 793.083C89.7652 796.088 89.9714 799.102 90.3741 802.096L92.5051 820.093C92.8194 823.097 93.2908 826.082 93.7327 829.066L95.0585 838.03L96.3843 846.994L97.9556 855.919L99.5466 864.834L100.342 869.291C100.597 870.783 100.872 872.266 101.196 873.739L104.889 891.48L105.812 895.918L106.863 900.326L108.955 909.143L111.047 917.959C111.714 920.905 112.579 923.811 113.325 926.737L118 944.262L123.136 961.669C124.01 964.566 124.815 967.482 125.738 970.358L128.527 978.998C135.765 1002.09 144.172 1024.84 152.824 1047.47L159.561 1064.37C160.7 1067.17 161.77 1070.01 162.959 1072.8L166.494 1081.18L173.555 1097.95L180.921 1114.61C185.743 1125.74 190.947 1136.72 196.015 1147.76L203.695 1164.49C204.981 1167.29 206.16 1170.15 207.407 1172.97C208.625 1175.81 209.882 1178.63 211.021 1181.5L214.517 1190.08C215.646 1192.95 216.727 1195.85 217.836 1198.74L219.477 1203.08L221.028 1207.45C222.04 1210.38 223.13 1213.28 224.082 1216.22C228.06 1227.95 231.517 1239.87 234.532 1251.93C240.552 1276.02 244.362 1300.86 244.745 1326C244.951 1338.56 244.176 1351.18 242.31 1363.71C242.064 1365.27 241.848 1366.84 241.583 1368.4L240.699 1373.08L240.257 1375.41L239.727 1377.74L238.656 1382.38C237.046 1388.54 235.317 1394.68 233.059 1400.65L232.243 1402.9C231.959 1403.65 231.644 1404.39 231.35 1405.13L229.533 1409.57C228.187 1412.48 226.94 1415.42 225.438 1418.27C224.033 1421.15 222.423 1423.93 220.851 1426.74C219.172 1429.48 217.532 1432.25 215.686 1434.89C208.507 1445.58 199.757 1455.28 189.818 1463.6C179.86 1471.89 168.576 1478.69 156.418 1483.51C144.26 1488.29 131.159 1491.12 117.754 1490.95C111.056 1490.83 104.29 1489.95 97.6708 1488.08C91.0517 1486.23 84.6093 1483.2 78.8053 1479.07C73.237 1474.97 68.2088 1469.97 64.2314 1464.17C62.2477 1461.27 60.529 1458.19 59.0756 1454.99C57.6909 1451.77 56.4437 1448.46 55.658 1445.04C52.2797 1431.4 53.851 1416.76 59.9202 1404.14C61.4424 1400.99 63.2592 1397.97 65.2822 1395.11C67.3839 1392.29 69.6426 1389.58 72.2058 1387.16C74.769 1384.75 77.4991 1382.49 80.465 1380.6C81.9086 1379.58 83.4701 1378.76 84.9923 1377.89C85.7583 1377.46 86.5636 1377.1 87.3493 1376.72C88.1448 1376.34 88.9206 1375.94 89.7455 1375.63C96.2075 1372.92 103.062 1371.28 109.888 1370.79C116.723 1370.27 123.509 1370.73 130.059 1371.89C136.62 1373.05 142.954 1374.89 149.053 1377.18C155.151 1379.48 160.965 1382.28 166.602 1385.33L170.786 1387.67L174.871 1390.16L176.904 1391.42L178.888 1392.73L182.845 1395.37C188.011 1399.02 193.098 1402.78 197.92 1406.79C207.643 1414.75 216.746 1423.35 225.369 1432.33C233.991 1441.31 242.133 1450.68 249.94 1460.28C253.869 1465.06 257.62 1469.99 261.401 1474.85L266.891 1481.66C267.775 1482.83 268.796 1483.86 269.768 1484.94L272.705 1488.16C280.669 1496.62 289.527 1504.14 299.211 1510.43C308.874 1516.73 319.343 1521.79 330.303 1525.63C341.253 1529.51 352.733 1532.01 364.381 1533.64C376.038 1535.26 387.872 1535.95 399.764 1536L399.804 1535.97Z" fill="#030404"/>
<path d="M399.804 1540.03V1535.97C387.911 1535.91 376.067 1535.22 364.42 1533.61C352.782 1531.98 341.302 1529.48 330.342 1525.6C319.382 1521.77 308.913 1516.7 299.25 1510.4C289.576 1504.11 280.708 1496.59 272.744 1488.13L269.807 1484.91C268.835 1483.83 267.814 1482.8 266.93 1481.63L261.44 1474.82C257.669 1469.96 253.908 1465.03 249.98 1460.25C242.172 1450.64 234.031 1441.27 225.408 1432.3C216.786 1423.32 207.692 1414.73 197.959 1406.76C193.138 1402.74 188.041 1399 182.885 1395.34L178.927 1392.7L176.943 1391.39L174.91 1390.13L170.825 1387.65L166.641 1385.3C161.004 1382.26 155.19 1379.45 149.092 1377.15C142.993 1374.86 136.659 1373.02 130.099 1371.86C123.538 1370.7 116.752 1370.24 109.927 1370.76C103.102 1371.25 96.2468 1372.9 89.7848 1375.6C88.9697 1375.9 88.1841 1376.31 87.3886 1376.69C86.6029 1377.08 85.7976 1377.43 85.0316 1377.86C83.5094 1378.73 81.9479 1379.56 80.5043 1380.57C77.5384 1382.46 74.8083 1384.72 72.2451 1387.13C69.6819 1389.56 67.4232 1392.27 65.3215 1395.08C63.2985 1397.94 61.4718 1400.96 59.9595 1404.11C53.8805 1416.73 52.3091 1431.38 55.6973 1445.01C56.4829 1448.43 57.7302 1451.74 59.1149 1454.96C60.5683 1458.16 62.2869 1461.24 64.2707 1464.14C68.2383 1469.94 73.2763 1474.94 78.8446 1479.04C84.6486 1483.18 91.1008 1486.2 97.7101 1488.05C104.329 1489.92 111.096 1490.8 117.793 1490.92C131.199 1491.09 144.299 1488.26 156.457 1483.48C168.615 1478.67 179.899 1471.87 189.857 1463.57C199.796 1455.25 208.556 1445.56 215.725 1434.86C217.581 1432.22 219.211 1429.45 220.891 1426.71C222.462 1423.91 224.073 1421.12 225.477 1418.24C226.98 1415.4 228.237 1412.46 229.572 1409.54L231.389 1405.1C231.684 1404.36 231.998 1403.62 232.283 1402.87L233.098 1400.62C235.357 1394.65 237.085 1388.51 238.696 1382.35L239.766 1377.71L240.296 1375.38L240.738 1373.05L241.622 1368.37C241.887 1366.81 242.103 1365.24 242.349 1363.68C244.205 1351.15 244.991 1338.53 244.784 1325.97C244.392 1300.83 240.581 1276 234.571 1251.9C231.556 1239.84 228.089 1227.93 224.122 1216.19C223.169 1213.25 222.079 1210.35 221.067 1207.43L219.516 1203.05L217.876 1198.71C216.766 1195.82 215.696 1192.92 214.556 1190.05L211.06 1181.47C209.921 1178.59 208.664 1175.77 207.446 1172.94C206.209 1170.12 205.03 1167.26 203.734 1164.46L196.054 1147.73C190.997 1136.7 185.792 1125.71 180.96 1114.58L173.594 1097.92L166.533 1081.15L162.998 1072.77C161.81 1069.98 160.739 1067.14 159.6 1064.34L152.863 1047.44C144.211 1024.8 135.804 1002.06 128.567 978.969L125.778 970.329C124.854 967.452 124.049 964.536 123.175 961.64L118.039 944.232L113.364 926.707C112.608 923.781 111.754 920.875 111.086 917.93L108.994 909.113L106.902 900.296L105.851 895.888L104.928 891.45L101.236 873.709C100.912 872.236 100.637 870.754 100.381 869.262L99.5858 864.804L97.9949 855.889L96.4236 846.965L95.0978 838.001L93.772 829.037C93.3301 826.052 92.8587 823.068 92.5444 820.063L90.4133 802.067C90.0205 799.072 89.8044 796.058 89.5196 793.054L88.7144 784.031L87.9091 775.008L87.3493 765.966C84.1085 717.73 85.2378 669.228 88.7929 620.904C92.623 572.579 98.918 524.392 106.696 476.412C114.543 428.44 123.755 380.646 133.614 332.96C136.109 321.041 138.544 309.122 141.137 297.222L144.977 279.363C145.615 276.369 146.263 273.453 146.882 270.389C147.491 267.336 148.169 264.292 148.709 261.219C153.246 236.704 155.151 211.54 153.374 186.435C153.217 183.293 152.824 180.171 152.529 177.039C152.215 173.907 151.724 170.795 151.331 167.663C150.801 164.551 150.329 161.438 149.72 158.336C149.062 155.243 148.512 152.141 147.717 149.077C144.771 136.785 140.842 124.67 135.588 113.084C125.296 89.8451 109.868 68.6871 90.5017 51.9768C85.611 47.863 80.6123 43.8671 75.2895 40.3326C72.687 38.477 69.9372 36.8472 67.2464 35.1388C65.8911 34.2945 64.4868 33.5385 63.1021 32.7432C61.7075 31.9676 60.3424 31.1331 58.9184 30.4262C47.6345 24.4961 35.8006 19.6263 23.6033 16.1311C11.4159 12.5868 -1.04654 10.1715 -13.5875 8.78716C-26.1285 7.45191 -38.7383 7.10827 -51.2694 7.61881C-76.3514 8.63007 -101.099 12.9991 -125.082 19.5674C-149.103 26.0964 -172.319 35.0407 -194.848 45.2907L-193.149 48.9823C-170.797 38.8108 -147.777 29.9549 -124.011 23.4848C-100.275 16.9852 -75.8211 12.6751 -51.1123 11.6835C-38.7579 11.1828 -26.3544 11.5166 -14.0295 12.8322C-1.70452 14.1969 10.5222 16.5631 22.4543 20.0387C34.4061 23.4652 45.9846 28.2269 57.0034 34.0196C58.398 34.7068 59.7336 35.5217 61.0888 36.2777C62.4343 37.0632 63.8092 37.7897 65.1349 38.6144C67.7669 40.2835 70.4577 41.874 72.9915 43.6805C78.1866 47.1365 83.0675 51.0343 87.8403 55.0499C106.735 71.3577 121.8 92.005 131.876 114.744C137.022 126.074 140.872 137.954 143.759 150.01C144.545 153.014 145.085 156.068 145.723 159.102C146.322 162.145 146.784 165.209 147.304 168.262C147.697 171.335 148.178 174.398 148.483 177.481C148.768 180.564 149.151 183.637 149.308 186.73C151.056 211.432 149.19 236.252 144.702 260.483C143.563 266.541 142.266 272.579 140.99 278.499L137.15 296.368C134.557 308.277 132.112 320.206 129.617 332.135C119.748 379.851 110.526 427.704 102.67 475.754C94.8817 523.813 88.5769 572.108 84.7272 620.58C81.1525 669.062 80.0231 717.749 83.2737 766.221L83.8335 775.313L84.6486 784.384L85.4539 793.456C85.7387 796.48 85.9548 799.504 86.3476 802.518L88.4885 820.603C88.8126 823.617 89.284 826.622 89.7259 829.616L91.0615 838.619L92.3971 847.623L93.9782 856.587L95.579 865.55L96.3745 870.027C96.6298 871.52 96.9146 873.012 97.2387 874.495L100.941 892.324L101.874 896.782L102.925 901.21L105.026 910.065L107.128 918.921C107.806 921.877 108.66 924.793 109.416 927.738L114.111 945.342L119.266 962.818C120.14 965.724 120.946 968.65 121.879 971.546L124.678 980.216C131.945 1003.41 140.381 1026.21 149.062 1048.92L155.819 1065.87C156.958 1068.69 158.038 1071.53 159.227 1074.33L162.762 1082.74L169.843 1099.55L177.218 1116.24C182.05 1127.41 187.275 1138.4 192.342 1149.47L199.992 1166.14C201.279 1168.93 202.448 1171.76 203.675 1174.56C204.883 1177.38 206.13 1180.18 207.26 1183.04L210.726 1191.56C211.856 1194.42 212.916 1197.29 214.016 1200.16L215.646 1204.46L217.188 1208.8C218.2 1211.7 219.28 1214.57 220.223 1217.5C224.171 1229.13 227.598 1240.94 230.584 1252.88C236.545 1276.74 240.296 1301.28 240.679 1326.03C240.886 1338.39 240.12 1350.8 238.293 1363.08C238.057 1364.61 237.841 1366.15 237.586 1367.69L236.722 1372.26L236.29 1374.55L235.769 1376.83L234.718 1381.37C233.147 1387.39 231.458 1393.39 229.248 1399.23L228.453 1401.43C228.178 1402.16 227.873 1402.87 227.579 1403.6L225.811 1407.93C224.505 1410.77 223.277 1413.64 221.814 1416.4C220.449 1419.21 218.877 1421.92 217.355 1424.65C215.715 1427.31 214.124 1430.01 212.327 1432.57C205.354 1442.97 196.86 1452.38 187.225 1460.44C177.572 1468.48 166.661 1475.05 154.925 1479.69C143.199 1484.3 130.599 1487 117.813 1486.85C111.43 1486.74 105.017 1485.89 98.7806 1484.14C92.5543 1482.39 86.5538 1479.56 81.1819 1475.74C75.9671 1471.89 71.2729 1467.22 67.5705 1461.83C65.7242 1459.13 64.1234 1456.26 62.7682 1453.29C61.4817 1450.28 60.3228 1447.21 59.5863 1444.02C56.4338 1431.33 57.8971 1417.62 63.5636 1405.85C64.9778 1402.9 66.6866 1400.1 68.5623 1397.43C70.5167 1394.81 72.6183 1392.29 75.0047 1390.04C77.3911 1387.8 79.915 1385.69 82.6845 1383.93C84.0299 1382.99 85.4834 1382.24 86.8975 1381.41C87.6145 1381.02 88.3608 1380.68 89.0974 1380.32C89.8339 1379.97 90.5606 1379.59 91.3266 1379.31C97.3467 1376.79 103.76 1375.24 110.202 1374.77C116.644 1374.28 123.087 1374.71 129.352 1375.82C135.628 1376.93 141.716 1378.71 147.619 1380.92C153.511 1383.14 159.168 1385.87 164.658 1388.83L168.743 1391.12L172.73 1393.56L174.714 1394.78L176.658 1396.07L180.538 1398.65C185.605 1402.23 190.604 1405.92 195.357 1409.87C204.932 1417.72 213.918 1426.2 222.442 1435.08C230.967 1443.96 239.049 1453.24 246.788 1462.77C250.687 1467.52 254.409 1472.4 258.17 1477.24L263.787 1484.22C264.691 1485.4 265.742 1486.46 266.734 1487.57L269.749 1490.87C277.919 1499.54 287.033 1507.29 297.001 1513.76C306.949 1520.25 317.732 1525.45 328.977 1529.39C340.222 1533.37 351.957 1535.93 363.821 1537.59C375.694 1539.24 387.724 1539.93 399.774 1539.98L399.804 1540.03Z" fill="#E3217B"/>
<path d="M399.804 1541.72V1540.02C387.754 1539.96 375.723 1539.27 363.85 1537.63C351.987 1535.97 340.251 1533.4 329.006 1529.43C317.762 1525.5 306.988 1520.29 297.03 1513.8C287.072 1507.32 277.949 1499.58 269.778 1490.91L266.763 1487.61C265.771 1486.5 264.72 1485.44 263.817 1484.26L258.199 1477.28C254.438 1472.44 250.726 1467.55 246.817 1462.81C239.079 1453.28 230.996 1444 222.472 1435.12C213.938 1426.24 204.962 1417.75 195.386 1409.91C190.633 1405.96 185.635 1402.27 180.567 1398.69L176.688 1396.11L174.743 1394.82L172.76 1393.6L168.772 1391.16L164.687 1388.87C159.187 1385.91 153.541 1383.18 147.648 1380.96C141.756 1378.75 135.657 1376.97 129.382 1375.86C123.116 1374.75 116.674 1374.32 110.231 1374.81C103.789 1375.27 97.386 1376.83 91.3561 1379.35C90.5901 1379.63 89.8634 1380.01 89.1268 1380.36C88.4001 1380.72 87.6439 1381.06 86.927 1381.45C85.5128 1382.27 84.0594 1383.03 82.7139 1383.97C79.9543 1385.73 77.4206 1387.84 75.0342 1390.08C72.6477 1392.33 70.5461 1394.85 68.5918 1397.47C66.7161 1400.14 65.0073 1402.95 63.5931 1405.89C57.9266 1417.66 56.4633 1431.36 59.6157 1444.06C60.3523 1447.25 61.5111 1450.32 62.7976 1453.33C64.1529 1456.3 65.7536 1459.17 67.5999 1461.87C71.3023 1467.27 75.9868 1471.93 81.2114 1475.78C86.5833 1479.6 92.5837 1482.43 98.81 1484.18C105.036 1485.93 111.459 1486.78 117.842 1486.89C130.629 1487.04 143.229 1484.34 154.955 1479.73C166.69 1475.09 177.601 1468.52 187.255 1460.48C196.889 1452.42 205.384 1443.02 212.357 1432.61C214.154 1430.05 215.745 1427.35 217.385 1424.69C218.907 1421.96 220.478 1419.25 221.843 1416.44C223.307 1413.68 224.524 1410.81 225.84 1407.97L227.608 1403.64C227.893 1402.91 228.207 1402.2 228.482 1401.47L229.278 1399.27C231.477 1393.43 233.167 1387.43 234.748 1381.41L235.798 1376.87L236.319 1374.59L236.751 1372.3L237.615 1367.72C237.871 1366.19 238.087 1364.66 238.322 1363.12C240.149 1350.84 240.915 1338.43 240.709 1326.07C240.326 1301.32 236.564 1276.78 230.613 1252.92C227.628 1240.98 224.2 1229.17 220.252 1217.54C219.31 1214.61 218.229 1211.75 217.218 1208.84L215.676 1204.5L214.046 1200.2C212.946 1197.33 211.875 1194.46 210.756 1191.6L207.289 1183.08C206.16 1180.22 204.912 1177.42 203.705 1174.6C202.477 1171.8 201.298 1168.96 200.022 1166.18L192.371 1149.51C187.304 1138.44 182.089 1127.45 177.248 1116.28L169.872 1099.59L162.792 1082.77L159.256 1074.37C158.068 1071.57 156.988 1068.74 155.848 1065.91L149.092 1048.96C140.41 1026.25 131.984 1003.44 124.707 980.255L121.908 971.585C120.975 968.699 120.17 965.763 119.296 962.857L114.14 945.381L109.446 927.777C108.69 924.842 107.825 921.926 107.158 918.961L105.056 910.105L102.954 901.249L101.904 896.821L100.971 892.363L97.2682 874.534C96.9441 873.051 96.6593 871.559 96.4039 870.067L95.6085 865.59L94.0077 856.626L92.4266 847.662L91.091 838.659L89.7554 829.656C89.3134 826.651 88.842 823.657 88.5179 820.643L86.377 802.558C85.9842 799.553 85.7682 796.52 85.4834 793.496L84.6781 784.424L83.863 775.352L83.3032 766.26C80.0525 717.798 81.1819 669.101 84.7566 620.619C88.6063 572.138 94.9112 523.852 102.699 475.793C110.565 427.743 119.777 379.89 129.647 332.174C132.141 320.245 134.577 308.317 137.179 296.407L141.019 278.538C142.296 272.608 143.592 266.58 144.731 260.522C149.219 236.291 151.085 211.471 149.337 186.769C149.18 183.676 148.797 180.603 148.512 177.52C148.208 174.437 147.717 171.374 147.334 168.301C146.813 165.248 146.352 162.185 145.753 159.141C145.105 156.107 144.564 153.054 143.789 150.049C140.901 137.983 137.052 126.113 131.906 114.783C121.83 92.0443 106.765 71.3969 87.8698 55.0891C83.0969 51.0735 78.2161 47.1758 73.0209 43.7198C70.4774 41.9035 67.7963 40.3228 65.1644 38.6537C63.8386 37.829 62.4637 37.0926 61.1183 36.317C59.763 35.561 58.4274 34.7461 57.0329 34.0588C46.0043 28.2662 34.4355 23.5044 22.4838 20.0779C10.5517 16.6023 -1.68488 14.2362 -14 12.8715C-26.3249 11.5558 -38.7284 11.222 -51.0828 11.7227C-75.8014 12.7242 -100.245 17.0343 -123.982 23.5241C-147.757 29.9843 -170.777 38.8501 -193.119 49.0216L-192.412 50.563C-170.139 40.4308 -147.198 31.5945 -123.53 25.1637C-99.8915 18.6936 -75.5756 14.4129 -51.0043 13.4213C-38.7284 12.9304 -26.4035 13.2642 -14.1768 14.5602C-1.95004 15.9151 10.1883 18.2616 22.0222 21.7077C33.8757 25.1048 45.3365 29.8174 56.257 35.561C57.6418 36.2384 58.9577 37.0435 60.3032 37.7995C61.6388 38.5751 63.0039 39.3017 64.31 40.1166C66.9125 41.766 69.5739 43.3369 72.088 45.1336C77.2242 48.5503 82.0658 52.4088 86.7797 56.3851C105.478 72.526 120.386 92.9574 130.374 115.49C135.471 126.722 139.291 138.494 142.149 150.462C142.924 153.446 143.455 156.47 144.103 159.485C144.692 162.499 145.154 165.542 145.674 168.576C146.057 171.629 146.538 174.663 146.843 177.727C147.128 180.79 147.511 183.843 147.668 186.906C149.406 211.442 147.55 236.124 143.091 260.228C141.952 266.256 140.675 272.255 139.389 278.195L135.549 296.064C132.956 307.973 130.511 319.912 128.017 331.841C118.137 379.576 108.915 427.439 101.049 475.528C93.2613 523.617 86.9466 571.961 83.0969 620.501C79.5222 669.042 78.383 717.818 81.6435 766.378L82.2033 775.479L83.0184 784.561L83.8335 793.643C84.1183 796.667 84.3344 799.701 84.7272 802.715L86.8779 820.829C87.202 823.853 87.6734 826.857 88.1153 829.862L89.4509 838.884L90.7865 847.907L92.3677 856.891L93.9684 865.874L94.7639 870.361C95.0192 871.863 95.304 873.356 95.6281 874.838L99.3403 892.697L100.273 897.164L101.324 901.602L103.436 910.478L105.547 919.353C106.225 922.318 107.089 925.234 107.845 928.18L112.549 945.813L117.715 963.319C118.589 966.235 119.404 969.16 120.337 972.057L123.136 980.746C130.423 1003.97 138.859 1026.81 147.55 1049.55L154.307 1066.52C155.446 1069.33 156.526 1072.18 157.724 1074.98L161.269 1083.39L168.36 1100.22L175.745 1116.93C180.587 1128.1 185.801 1139.11 190.879 1150.19L198.519 1166.84C199.796 1169.62 200.965 1172.44 202.192 1175.24C203.4 1178.05 204.647 1180.85 205.767 1183.69L209.224 1192.19C210.343 1195.03 211.414 1197.9 212.504 1200.76L214.134 1205.05L215.666 1209.38C216.668 1212.27 217.748 1215.13 218.691 1218.05C222.619 1229.64 226.037 1241.42 229.012 1253.3C234.944 1277.05 238.686 1301.47 239.059 1326.06C239.255 1338.34 238.499 1350.66 236.692 1362.84C236.456 1364.37 236.25 1365.89 235.985 1367.41L235.121 1371.95L234.689 1374.21L234.178 1376.47L233.137 1380.98C231.576 1386.94 229.906 1392.89 227.726 1398.66L226.94 1400.84C226.665 1401.57 226.361 1402.27 226.076 1402.99L224.328 1407.28C223.032 1410.08 221.824 1412.93 220.38 1415.67C219.035 1418.44 217.483 1421.12 215.971 1423.82C214.35 1426.45 212.779 1429.12 211.001 1431.65C204.107 1441.93 195.72 1451.21 186.214 1459.16C176.698 1467.09 165.924 1473.57 154.375 1478.14C142.826 1482.68 130.433 1485.34 117.911 1485.18C111.655 1485.07 105.39 1484.25 99.3207 1482.54C93.2613 1480.84 87.4377 1478.09 82.2524 1474.4C77.1751 1470.66 72.6281 1466.12 69.0436 1460.9C67.2562 1458.28 65.7045 1455.51 64.3886 1452.62C63.1413 1449.72 62.012 1446.73 61.3049 1443.65C58.2507 1431.34 59.6648 1418.03 65.1644 1406.62C66.5393 1403.77 68.1892 1401.06 70.006 1398.46C71.9014 1395.93 73.9441 1393.49 76.2519 1391.31C78.5598 1389.14 81.0149 1387.1 83.6862 1385.4C84.9825 1384.48 86.3967 1383.75 87.7618 1382.95C88.459 1382.57 89.1857 1382.25 89.8928 1381.89C90.6097 1381.55 91.307 1381.19 92.0534 1380.91C97.8967 1378.47 104.113 1376.95 110.398 1376.51C116.674 1376.03 122.979 1376.45 129.126 1377.54C135.274 1378.63 141.275 1380.37 147.088 1382.55C152.902 1384.74 158.48 1387.44 163.921 1390.37L167.967 1392.62L171.915 1395.03L173.889 1396.24L175.814 1397.51L179.664 1400.08C184.692 1403.63 189.651 1407.28 194.365 1411.22C203.871 1419 212.808 1427.45 221.303 1436.28C229.798 1445.13 237.841 1454.38 245.56 1463.87C249.449 1468.6 253.152 1473.47 256.903 1478.3L262.579 1485.34C263.493 1486.53 264.553 1487.61 265.555 1488.73L268.599 1492.07C276.859 1500.83 286.08 1508.66 296.156 1515.22C306.232 1521.79 317.133 1527.05 328.496 1531.03C339.858 1535.04 351.702 1537.63 363.664 1539.3C375.635 1540.96 387.734 1541.66 399.853 1541.72H399.804Z" fill="#030404"/>
<path d="M399.804 1545.78V1541.72C387.685 1541.66 375.586 1540.96 363.614 1539.3C351.663 1537.63 339.809 1535.04 328.447 1531.03C317.084 1527.05 306.173 1521.79 296.107 1515.22C286.031 1508.67 276.8 1500.83 268.55 1492.07L265.506 1488.73C264.504 1487.61 263.444 1486.54 262.53 1485.34L256.854 1478.3C253.102 1473.47 249.4 1468.6 245.511 1463.87C237.792 1454.37 229.749 1445.12 221.254 1436.28C212.759 1427.45 203.822 1419 194.316 1411.22C189.592 1407.28 184.633 1403.63 179.614 1400.08L175.765 1397.51L173.84 1396.24L171.866 1395.03L167.918 1392.62L163.872 1390.37C158.441 1387.43 152.853 1384.73 147.039 1382.55C141.225 1380.37 135.235 1378.63 129.077 1377.54C122.93 1376.45 116.634 1376.04 110.349 1376.51C104.074 1376.96 97.8475 1378.48 92.0042 1380.91C91.2579 1381.19 90.5606 1381.55 89.8437 1381.89C89.1366 1382.25 88.4099 1382.56 87.7126 1382.95C86.3377 1383.75 84.9334 1384.48 83.637 1385.4C80.956 1387.11 78.5106 1389.14 76.2028 1391.31C73.8949 1393.49 71.8621 1395.93 69.9568 1398.46C68.14 1401.06 66.4902 1403.78 65.1153 1406.62C59.6157 1418.03 58.1917 1431.35 61.2557 1443.65C61.9628 1446.74 63.0922 1449.72 64.3394 1452.62C65.6554 1455.51 67.2071 1458.29 68.9944 1460.9C72.579 1466.13 77.1259 1470.66 82.2032 1474.4C87.3885 1478.09 93.2024 1480.83 99.2715 1482.54C105.341 1484.25 111.606 1485.07 117.862 1485.18C130.383 1485.34 142.777 1482.68 154.326 1478.14C165.875 1473.56 176.649 1467.09 186.165 1459.16C195.671 1451.21 204.058 1441.93 210.952 1431.65C212.73 1429.12 214.301 1426.45 215.921 1423.82C217.424 1421.12 218.985 1418.44 220.331 1415.67C221.775 1412.94 222.982 1410.09 224.279 1407.28L226.027 1402.99C226.312 1402.27 226.616 1401.57 226.891 1400.84L227.677 1398.66C229.857 1392.89 231.526 1386.94 233.088 1380.98L234.129 1376.47L234.64 1374.21L235.072 1371.95L235.936 1367.41C236.191 1365.89 236.407 1364.37 236.643 1362.85C238.45 1350.66 239.216 1338.35 239.01 1326.06C238.627 1301.47 234.895 1277.05 228.963 1253.3C225.988 1241.42 222.57 1229.64 218.642 1218.05C217.699 1215.13 216.619 1212.28 215.617 1209.38L214.085 1205.05L212.455 1200.76C211.355 1197.9 210.294 1195.03 209.175 1192.19L205.718 1183.69C204.588 1180.84 203.351 1178.05 202.143 1175.24C200.915 1172.44 199.747 1169.62 198.47 1166.84L190.83 1150.19C185.752 1139.11 180.538 1128.11 175.696 1116.93L168.311 1100.22L161.22 1083.39L157.675 1074.98C156.477 1072.18 155.406 1069.33 154.257 1066.52L147.501 1049.55C138.81 1026.81 130.364 1003.97 123.087 980.746L120.288 972.057C119.355 969.16 118.549 966.225 117.666 963.319L112.5 945.813L107.796 928.18C107.04 925.234 106.175 922.318 105.498 919.353L103.386 910.478L101.275 901.602L100.224 897.165L99.2912 892.697L95.579 874.838C95.2549 873.356 94.9701 871.863 94.7147 870.361L93.9193 865.874L92.3185 856.891L90.7374 847.907L89.4018 838.885L88.0662 829.862C87.6242 826.857 87.143 823.853 86.8287 820.829L84.678 802.715C84.2852 799.701 84.0691 796.667 83.7843 793.643L82.9692 784.561L82.1541 775.479L81.5943 766.378C78.3339 717.818 79.4731 669.042 83.0478 620.501C86.8975 571.961 93.2122 523.627 101 475.528C108.866 427.439 118.088 379.576 127.968 331.841C130.462 319.912 132.907 307.973 135.5 296.064L139.34 278.195C140.626 272.255 141.903 266.256 143.042 260.228C147.511 236.124 149.357 211.442 147.619 186.906C147.462 183.833 147.079 180.78 146.794 177.727C146.489 174.663 146.008 171.63 145.625 168.576C145.114 165.542 144.643 162.499 144.054 159.485C143.415 156.48 142.875 153.446 142.099 150.462C139.232 138.494 135.412 126.722 130.324 115.49C120.337 92.9574 105.429 72.526 86.7305 56.3851C82.0068 52.4186 77.175 48.5503 72.0388 45.1336C69.5247 43.3369 66.8633 41.766 64.2608 40.1166C62.9547 39.3017 61.5896 38.5752 60.254 37.7995C58.9086 37.0436 57.5926 36.2385 56.2079 35.561C45.2874 29.8273 33.8266 25.1048 21.9731 21.7077C10.1392 18.2714 -1.98933 15.9151 -14.2259 14.5602C-26.4624 13.2544 -38.7874 12.9206 -51.0534 13.4213C-75.6149 14.4129 -99.9407 18.6936 -123.579 25.1637C-147.247 31.5945 -170.188 40.4308 -192.461 50.563L-190.762 54.2546C-168.656 44.2009 -145.921 35.4432 -122.509 29.0811C-99.1255 22.6797 -75.0944 18.458 -50.8963 17.4762C-38.807 16.9853 -26.6883 17.3191 -14.6678 18.5954C-2.65715 19.9209 9.23569 22.2281 20.8241 25.5957C32.4223 28.9142 43.6276 33.5385 54.2929 39.1348C55.6481 39.8024 56.9346 40.5879 58.2506 41.3242C59.5568 42.0802 60.8826 42.7871 62.1592 43.5824C64.7028 45.1925 67.2955 46.7242 69.7506 48.4816C74.769 51.8197 79.4731 55.5801 84.079 59.4484C93.1434 67.3617 101.452 76.1783 108.523 85.9375C112.146 90.7483 115.338 95.8734 118.422 101.038L120.612 104.985C120.975 105.642 121.348 106.3 121.702 106.968L122.713 108.99L124.746 113.026L126.622 117.139C131.601 128.116 135.343 139.652 138.152 151.385C138.918 154.31 139.438 157.285 140.067 160.231C140.646 163.196 141.098 166.18 141.608 169.155C141.982 172.15 142.463 175.135 142.757 178.149C143.032 181.153 143.415 184.157 143.563 187.181C145.272 211.314 143.455 235.653 139.035 259.472C137.916 265.421 136.649 271.352 135.362 277.321L131.523 295.209C128.93 307.129 126.485 319.077 123.99 331.016C114.111 378.791 104.879 426.713 96.9931 474.88C89.1955 523.057 82.8612 571.499 78.9918 620.197C75.3975 668.895 74.2583 717.857 77.5384 766.643L78.0982 775.794L78.9133 784.924L79.7284 794.055C80.0132 797.099 80.2293 800.142 80.6319 803.176L82.7925 821.379C83.1165 824.423 83.5879 827.437 84.0397 830.461L85.3851 839.523L86.7305 848.585L88.3215 857.608L89.9321 866.63L90.7374 871.147C90.9927 872.649 91.2775 874.151 91.6016 875.643L95.3334 893.591L96.2762 898.078L97.3369 902.535L99.4581 911.45L101.579 920.365C102.257 923.339 103.121 926.275 103.887 929.23L108.611 946.942L113.796 964.516C114.68 967.442 115.485 970.388 116.428 973.294L119.247 982.012C126.553 1005.33 135.029 1028.25 143.749 1051.05L150.526 1068.07C151.675 1070.9 152.755 1073.75 153.953 1076.56L157.508 1084.99L164.618 1101.87L172.023 1118.62C176.874 1129.82 182.109 1140.85 187.196 1151.94L194.817 1168.54C196.084 1171.29 197.242 1174.1 198.47 1176.89C199.668 1179.68 200.906 1182.46 202.025 1185.29L205.462 1193.73C206.572 1196.56 207.633 1199.4 208.723 1202.24L210.333 1206.5L211.856 1210.79C212.848 1213.66 213.918 1216.51 214.861 1219.39C218.76 1230.89 222.148 1242.55 225.084 1254.33C230.957 1277.85 234.64 1301.96 235.013 1326.16C235.209 1338.26 234.463 1350.36 232.685 1362.3C232.45 1363.79 232.253 1365.28 231.998 1366.77L231.153 1371.22L230.731 1373.44L230.23 1375.64L229.219 1380.05C227.696 1385.87 226.056 1391.68 223.935 1397.32L223.169 1399.44C222.904 1400.14 222.609 1400.83 222.324 1401.53L220.625 1405.71C219.359 1408.44 218.19 1411.21 216.776 1413.87C215.47 1416.58 213.957 1419.17 212.484 1421.8C210.903 1424.36 209.381 1426.96 207.652 1429.41C200.965 1439.39 192.833 1448.38 183.641 1456.07C174.429 1463.75 164.029 1469.99 152.912 1474.4C141.795 1478.78 129.892 1481.31 118 1481.16C112.058 1481.05 106.146 1480.27 100.47 1478.67C94.7933 1477.08 89.4312 1474.53 84.678 1471.15C79.9543 1467.65 75.7412 1463.46 72.4316 1458.63C70.7818 1456.21 69.348 1453.65 68.14 1450.99C66.991 1448.3 65.9402 1445.56 65.292 1442.7C62.4637 1431.33 63.7796 1418.97 68.8667 1408.41C70.1434 1405.77 71.6656 1403.27 73.345 1400.86C75.1029 1398.52 76.9786 1396.27 79.1097 1394.25C81.2408 1392.26 83.4897 1390.37 85.9645 1388.8C87.1626 1387.96 88.459 1387.28 89.7259 1386.55C90.3642 1386.19 91.0418 1385.9 91.69 1385.57C92.348 1385.26 92.9961 1384.92 93.6836 1384.66C99.0849 1382.4 104.869 1380.99 110.752 1380.57C116.634 1380.12 122.596 1380.51 128.449 1381.55C134.312 1382.58 140.067 1384.26 145.674 1386.36C151.282 1388.47 156.703 1391.09 161.996 1393.95L165.934 1396.15L169.794 1398.5L171.719 1399.69L173.604 1400.94L177.365 1403.44C182.295 1406.93 187.157 1410.51 191.812 1414.39C201.171 1422.06 210 1430.38 218.396 1439.13C226.793 1447.88 234.767 1457.04 242.427 1466.46C246.287 1471.16 249.96 1475.99 253.692 1480.79L259.496 1487.99C260.429 1489.21 261.519 1490.31 262.55 1491.46L265.673 1494.88C274.138 1503.86 283.615 1511.91 293.976 1518.65C304.327 1525.4 315.542 1530.81 327.199 1534.89C338.847 1539 350.956 1541.64 363.133 1543.35C375.321 1545.04 387.616 1545.75 399.882 1545.8L399.804 1545.78Z" fill="#24A4D9"/>
<path d="M399.804 1547.48V1545.78C387.528 1545.73 375.242 1545.02 363.055 1543.33C350.877 1541.62 338.768 1538.99 327.121 1534.87C315.464 1530.79 304.258 1525.38 293.898 1518.63C283.537 1511.89 274.05 1503.83 265.594 1494.86L262.471 1491.44C261.44 1490.29 260.36 1489.19 259.417 1487.97L253.613 1480.77C249.881 1475.97 246.208 1471.14 242.349 1466.45C234.689 1457.02 226.724 1447.86 218.318 1439.11C209.921 1430.36 201.092 1422.04 191.733 1414.37C187.088 1410.49 182.217 1406.92 177.287 1403.42L173.526 1400.92L171.64 1399.67L169.715 1398.48L165.856 1396.13L161.918 1393.93C156.624 1391.07 151.203 1388.45 145.596 1386.34C139.988 1384.24 134.233 1382.57 128.37 1381.53C122.517 1380.49 116.556 1380.11 110.673 1380.55C104.781 1380.97 99.0064 1382.38 93.6051 1384.64C92.9176 1384.9 92.2694 1385.24 91.6115 1385.55C90.9535 1385.88 90.2857 1386.17 89.6473 1386.53C88.3805 1387.26 87.0841 1387.93 85.886 1388.78C83.4112 1390.36 81.1623 1392.24 79.0312 1394.23C76.9001 1396.24 75.0244 1398.5 73.2665 1400.84C71.5871 1403.24 70.0551 1405.75 68.7882 1408.39C63.7011 1418.96 62.3851 1431.31 65.2135 1442.68C65.8617 1445.53 66.9125 1448.28 68.0615 1450.97C69.2793 1453.63 70.7033 1456.2 72.3531 1458.61C75.6627 1463.44 79.8758 1467.63 84.5995 1471.13C89.3527 1474.51 94.7148 1477.05 100.391 1478.65C106.067 1480.25 111.98 1481.03 117.921 1481.14C129.814 1481.29 141.716 1478.76 152.833 1474.38C163.96 1469.98 174.36 1463.73 183.562 1456.05C192.755 1448.35 200.886 1439.37 207.574 1429.39C209.302 1426.94 210.825 1424.35 212.406 1421.78C213.869 1419.16 215.381 1416.56 216.697 1413.85C218.111 1411.19 219.28 1408.42 220.547 1405.69L222.246 1401.51C222.521 1400.81 222.825 1400.11 223.091 1399.42L223.857 1397.3C225.988 1391.66 227.618 1385.85 229.14 1380.03L230.152 1375.62L230.652 1373.42L231.075 1371.2L231.919 1366.75C232.175 1365.27 232.381 1363.77 232.607 1362.28C234.384 1350.34 235.131 1338.24 234.934 1326.14C234.561 1301.94 230.878 1277.83 225.006 1254.31C222.059 1242.54 218.671 1230.88 214.782 1219.37C213.849 1216.49 212.779 1213.64 211.777 1210.77L210.255 1206.48L208.644 1202.22C207.554 1199.38 206.503 1196.54 205.384 1193.71L201.947 1185.27C200.827 1182.44 199.59 1179.67 198.392 1176.87C197.174 1174.09 196.015 1171.28 194.738 1168.52L187.117 1151.92C182.03 1140.83 176.806 1129.8 171.945 1118.6L164.54 1101.85L157.43 1084.97L153.874 1076.54C152.676 1073.73 151.596 1070.88 150.447 1068.05L143.671 1051.03C134.95 1028.23 126.485 1005.3 119.168 981.992L116.35 973.274C115.417 970.368 114.602 967.422 113.718 964.497L108.532 946.922L103.809 929.211C103.043 926.255 102.179 923.32 101.501 920.345L99.3796 911.43L97.2583 902.515L96.1977 898.058L95.2549 893.571L91.5231 875.624C91.199 874.131 90.9142 872.629 90.6589 871.127L89.8536 866.611L88.243 857.588L86.652 848.565L85.3066 839.503L83.9611 830.441C83.5192 827.417 83.038 824.403 82.7139 821.359L80.5534 803.157C80.1508 800.123 79.9347 797.079 79.6499 794.036L78.8348 784.905L78.0197 775.774L77.4599 766.624C74.1896 717.838 75.3288 668.865 78.9133 620.177C82.7729 571.49 89.1072 523.037 96.9146 474.86C104.791 426.693 114.032 378.771 123.912 330.996C126.406 319.057 128.851 307.109 131.444 295.19L135.284 277.301C136.57 271.332 137.837 265.402 138.957 259.452C143.366 235.633 145.193 211.294 143.484 187.162C143.327 184.138 142.954 181.143 142.679 178.129C142.384 175.125 141.903 172.14 141.53 169.136C141.019 166.161 140.567 163.166 139.988 160.211C139.36 157.256 138.839 154.281 138.073 151.365C135.264 139.632 131.523 128.096 126.544 117.12L124.668 113.006L122.635 108.971L121.623 106.948C121.27 106.28 120.897 105.632 120.533 104.965L118.343 101.018C115.26 95.8439 112.068 90.7287 108.444 85.9178C101.373 76.1685 93.0747 67.3421 84.0004 59.4287C79.3945 55.5604 74.6806 51.7903 69.6721 48.4619C67.2267 46.7143 64.6243 45.1827 62.0807 43.5627C60.804 42.7675 59.4684 42.0606 58.1721 41.3046C56.8561 40.5682 55.5696 39.7828 54.2144 39.1151C43.5491 33.5188 32.3438 28.8945 20.7456 25.576C9.15716 22.2084 -2.73566 19.9012 -14.7463 18.5758C-26.7668 17.2994 -38.8855 16.9656 -50.9748 17.4565C-75.1729 18.4383 -99.1943 22.6601 -122.587 29.0614C-146.009 35.4235 -168.744 44.1813 -190.841 54.235L-190.134 55.7764C-168.106 45.7521 -145.45 37.0337 -122.135 30.7011C-98.8505 24.3291 -74.947 20.127 -50.906 19.155C-38.8954 18.6739 -26.8552 18.9979 -14.9231 20.2645C-3.00083 21.5801 8.79379 23.8677 20.2741 27.2058C31.7741 30.4949 42.8715 35.0701 53.4189 40.6173C54.7545 41.2751 56.0312 42.0507 57.3275 42.7773C58.614 43.5234 59.93 44.2205 61.1969 45.0158C63.7109 46.6161 66.284 48.1281 68.7097 49.8561C73.6691 53.155 78.3339 56.8858 82.8907 60.7149C91.8668 68.5399 100.077 77.2681 107.069 86.9193C110.654 91.681 113.816 96.7472 116.87 101.872L119.041 105.78C119.394 106.438 119.777 107.076 120.121 107.743L121.123 109.746L123.136 113.742L124.992 117.817C129.932 128.695 133.634 140.123 136.423 151.758C137.179 154.654 137.7 157.609 138.319 160.535C138.898 163.471 139.34 166.436 139.851 169.391C140.224 172.366 140.695 175.331 140.99 178.316C141.265 181.3 141.638 184.285 141.795 187.279C143.494 211.245 141.687 235.447 137.297 259.138C136.178 265.058 134.921 270.949 133.634 276.938L129.784 294.827C127.192 306.746 124.737 318.694 122.242 330.643C112.353 378.427 103.121 426.379 95.2353 474.576C87.4279 522.782 81.0837 571.283 77.2242 620.03C73.6298 668.787 72.4906 717.838 75.7707 766.722L76.3305 775.882L77.1456 785.032L77.9607 794.183C78.2455 797.226 78.4616 800.29 78.8643 803.323L81.0248 821.565C81.3489 824.609 81.8301 827.633 82.272 830.667L83.6175 839.748L84.9629 848.83L86.5538 857.873L88.1644 866.915L88.9697 871.431C89.225 872.943 89.5098 874.445 89.8339 875.938L93.5756 893.915L94.5184 898.411L95.579 902.879L97.7003 911.813L99.8216 920.747C100.499 923.732 101.363 926.668 102.129 929.633L106.863 947.374L112.058 964.978C112.942 967.904 113.757 970.859 114.69 973.765L117.509 982.493C124.835 1005.84 133.32 1028.8 142.041 1051.63L148.827 1068.67C149.976 1071.49 151.056 1074.36 152.254 1077.17L155.809 1085.61L162.919 1102.51L170.324 1119.27C175.185 1130.48 180.42 1141.52 185.507 1152.62L193.118 1169.19C194.385 1171.94 195.544 1174.75 196.761 1177.52C197.959 1180.3 199.197 1183.07 200.307 1185.88L203.734 1194.3C204.844 1197.12 205.895 1199.95 206.985 1202.78L208.595 1207.02L210.108 1211.3C211.1 1214.16 212.17 1217 213.103 1219.87C216.992 1231.33 220.36 1242.96 223.297 1254.67C229.15 1278.1 232.803 1302.09 233.176 1326.13C233.373 1338.13 232.626 1350.15 230.869 1361.98C230.643 1363.46 230.436 1364.95 230.191 1366.42L229.356 1370.83L228.934 1373.03L228.433 1375.21L227.431 1379.57C225.919 1385.35 224.298 1391.1 222.197 1396.67L221.441 1398.77C221.176 1399.47 220.881 1400.15 220.606 1400.84L218.917 1404.97C217.67 1407.67 216.511 1410.41 215.116 1413.04C213.82 1415.72 212.327 1418.29 210.883 1420.88C209.322 1423.4 207.819 1425.97 206.111 1428.39C199.501 1438.25 191.478 1447.11 182.413 1454.69C173.329 1462.26 163.086 1468.42 152.146 1472.75C141.216 1477.06 129.509 1479.53 117.882 1479.4C112.078 1479.3 106.303 1478.52 100.794 1476.97C95.2844 1475.43 90.0991 1472.95 85.5325 1469.71C80.956 1466.33 76.8805 1462.27 73.6887 1457.61C72.0978 1455.27 70.7131 1452.8 69.5444 1450.24C68.4445 1447.64 67.4232 1444.99 66.7946 1442.23C64.0645 1431.26 65.3314 1419.3 70.2515 1409.09C71.4791 1406.54 72.9522 1404.11 74.5726 1401.8C76.2716 1399.54 78.0786 1397.37 80.1311 1395.43C82.1836 1393.51 84.3638 1391.68 86.7404 1390.17C87.8894 1389.35 89.1563 1388.71 90.3741 1387.99C90.9928 1387.65 91.6409 1387.36 92.2695 1387.05C92.9078 1386.74 93.5363 1386.41 94.1943 1386.16C99.4189 1383.98 105.007 1382.61 110.732 1382.21C116.458 1381.77 122.272 1382.15 128.007 1383.17C133.742 1384.18 139.409 1385.82 144.928 1387.89C150.447 1389.97 155.799 1392.55 161.034 1395.38L164.933 1397.56L168.753 1399.89L170.658 1401.06L172.524 1402.29L176.256 1404.78C181.137 1408.23 185.968 1411.79 190.584 1415.64C199.874 1423.25 208.654 1431.53 217.021 1440.24C225.379 1448.95 233.324 1458.08 240.954 1467.48C244.804 1472.15 248.467 1476.97 252.189 1481.76L258.042 1489.03C258.985 1490.26 260.085 1491.38 261.126 1492.54L264.278 1496C272.822 1505.07 282.417 1513.22 292.896 1520.03C303.374 1526.87 314.708 1532.33 326.483 1536.45C338.248 1540.61 350.465 1543.27 362.74 1544.99C375.026 1546.7 387.39 1547.4 399.735 1547.46L399.804 1547.48Z" fill="#030404"/>
<path d="M399.804 1551.55V1547.48C387.469 1547.42 375.095 1546.72 362.809 1545.01C350.543 1543.29 338.326 1540.63 326.551 1536.47C314.776 1532.35 303.433 1526.89 292.965 1520.05C282.476 1513.24 272.891 1505.09 264.347 1496.02L261.195 1492.56C260.154 1491.4 259.064 1490.28 258.111 1489.05L252.258 1481.78C248.536 1476.99 244.873 1472.18 241.023 1467.5C233.392 1458.1 225.448 1448.97 217.09 1440.26C208.733 1431.55 199.953 1423.28 190.653 1415.66C186.037 1411.81 181.205 1408.25 176.325 1404.8L172.593 1402.31L170.727 1401.08L168.822 1399.91L165.001 1397.58L161.103 1395.4C155.868 1392.58 150.516 1389.99 144.997 1387.91C139.477 1385.84 133.821 1384.2 128.076 1383.19C122.34 1382.18 116.527 1381.79 110.801 1382.23C105.076 1382.63 99.4778 1384.01 94.2631 1386.18C93.5952 1386.43 92.9667 1386.75 92.3382 1387.07C91.7097 1387.38 91.0517 1387.67 90.4428 1388.01C89.225 1388.73 87.968 1389.36 86.8092 1390.19C84.4228 1391.7 82.2524 1393.52 80.1999 1395.45C78.1473 1397.38 76.3403 1399.56 74.6414 1401.82C73.0209 1404.14 71.5478 1406.55 70.3203 1409.11C65.4001 1419.32 64.1234 1431.28 66.8634 1442.25C67.4919 1445.01 68.5034 1447.66 69.6132 1450.26C70.7818 1452.83 72.1666 1455.3 73.7575 1457.63C76.959 1462.29 81.0248 1466.35 85.6012 1469.73C90.1678 1472.97 95.3531 1475.45 100.863 1476.99C106.372 1478.54 112.146 1479.32 117.95 1479.41C129.588 1479.56 141.284 1477.08 152.215 1472.77C163.155 1468.44 173.408 1462.28 182.482 1454.71C191.547 1447.12 199.57 1438.26 206.179 1428.41C207.888 1425.98 209.391 1423.42 210.952 1420.9C212.396 1418.31 213.898 1415.73 215.185 1413.06C216.579 1410.44 217.738 1407.69 218.986 1404.99L220.675 1400.86C220.95 1400.17 221.244 1399.49 221.509 1398.79L222.266 1396.69C224.367 1391.11 225.988 1385.36 227.5 1379.59L228.502 1375.23L229.003 1373.05L229.425 1370.85L230.26 1366.44C230.505 1364.97 230.711 1363.48 230.937 1362C232.695 1350.16 233.442 1338.15 233.245 1326.15C232.872 1302.11 229.219 1278.12 223.366 1254.69C220.429 1242.98 217.061 1231.35 213.172 1219.89C212.239 1217.02 211.168 1214.18 210.176 1211.32L208.664 1207.04L207.053 1202.8C205.973 1199.97 204.913 1197.14 203.803 1194.32L200.375 1185.9C199.266 1183.09 198.028 1180.32 196.83 1177.54C195.612 1174.76 194.453 1171.96 193.187 1169.21L185.576 1152.64C180.488 1141.54 175.254 1130.5 170.393 1119.29L162.988 1102.53L155.878 1085.63L152.323 1077.19C151.125 1074.38 150.044 1071.52 148.895 1068.69L142.109 1051.65C133.379 1028.81 124.894 1005.86 117.577 982.513L114.759 973.785C113.826 970.869 113.011 967.923 112.127 964.997L106.932 947.394L102.198 929.652C101.432 926.687 100.568 923.752 99.8903 920.767L97.769 911.833L95.6478 902.898L94.5871 898.431L93.6443 893.934L89.9027 875.958C89.5786 874.465 89.2938 872.963 89.0385 871.451L88.2332 866.935L86.6226 857.892L85.0316 848.85L83.6862 839.768L82.3408 830.686C81.889 827.662 81.4176 824.638 81.0935 821.585L78.933 803.343C78.5303 800.309 78.3143 797.256 78.0295 794.202L77.2144 785.052L76.3993 775.902L75.8395 766.741C72.5594 717.867 73.6986 668.816 77.2929 620.05C81.1623 571.293 87.4966 522.802 95.304 474.595C103.19 426.398 112.431 378.447 122.311 330.662C124.805 318.724 127.251 306.765 129.853 294.846L133.703 276.958C134.999 270.969 136.256 265.078 137.366 259.158C141.756 235.457 143.563 211.255 141.864 187.299C141.717 184.295 141.334 181.32 141.059 178.335C140.764 175.351 140.293 172.386 139.919 169.411C139.418 166.455 138.967 163.49 138.387 160.555C137.759 157.629 137.248 154.674 136.492 151.777C133.703 140.133 130 128.715 125.061 117.836L123.205 113.762L121.191 109.766L120.19 107.763C119.846 107.105 119.473 106.457 119.109 105.799L116.939 101.892C113.885 96.7766 110.722 91.7105 107.138 86.9389C100.136 77.2878 91.9257 68.5595 82.9595 60.7345C78.4027 56.9055 73.7477 53.1746 68.7784 49.8757C66.3527 48.1379 63.7797 46.626 61.2656 45.0354C59.9987 44.2402 58.6828 43.5431 57.3962 42.7969C56.0901 42.0704 54.8232 41.2948 53.4876 40.6369C42.9304 35.0897 31.8331 30.5243 20.3429 27.2255C8.86252 23.8873 -2.94192 21.5997 -14.8544 20.2841C-26.7865 19.0176 -38.8168 18.6838 -50.8373 19.1747C-74.8783 20.1467 -98.7818 24.3488 -122.067 30.7207C-145.381 37.0534 -168.037 45.7718 -190.065 55.796L-188.366 59.4876C-166.505 49.5419 -144.055 40.902 -120.986 34.6381C-97.9569 28.3349 -74.348 24.1917 -50.6704 23.2393C-38.8365 22.7583 -27.0026 23.0823 -15.2963 24.3292C-3.59991 25.6251 7.96884 27.8735 19.2037 31.1331C30.4582 34.3534 41.2904 38.8206 51.5824 44.2304C52.8886 44.8685 54.126 45.6343 55.4027 46.3412C56.6597 47.0678 57.9462 47.755 59.1738 48.5208C61.629 50.0819 64.1333 51.5546 66.4902 53.2433C71.3318 56.4538 75.869 60.0865 80.3079 63.8174C89.0483 71.446 97.0423 79.9386 103.868 89.3542C107.364 93.9981 110.438 98.9366 113.423 103.934L115.544 107.753C115.898 108.391 116.261 109.02 116.595 109.668L117.577 111.622L119.541 115.529L121.348 119.515C126.17 130.138 129.804 141.331 132.534 152.74C133.281 155.577 133.781 158.473 134.4 161.35C134.97 164.237 135.402 167.143 135.903 170.039C136.266 172.965 136.728 175.871 137.022 178.807C137.287 181.742 137.661 184.668 137.808 187.613C139.477 211.177 137.71 235.035 133.369 258.441C132.858 261.376 132.2 264.283 131.621 267.208C131.032 270.114 130.354 273.158 129.725 276.123L125.876 294.021C123.273 305.95 120.828 317.909 118.333 329.857C108.444 377.681 99.193 425.682 91.2874 473.957C83.4701 522.242 77.1063 570.851 73.237 619.755C69.6328 668.669 68.4838 717.916 71.7737 767.016L72.3433 776.226L73.1683 785.415L73.9932 794.605C74.278 797.668 74.4941 800.732 74.8967 803.785L77.0671 822.115C77.3911 825.178 77.8724 828.212 78.3241 831.256L79.6794 840.387L81.0346 849.517L82.6354 858.609L84.2558 867.691L85.0611 872.236C85.3164 873.748 85.6012 875.26 85.9351 876.763L89.6866 894.828L90.6294 899.344L91.69 903.831L93.8211 912.805L95.9522 921.778C96.6397 924.773 97.5039 927.728 98.2699 930.703L103.023 948.523L108.238 966.195C109.122 969.141 109.947 972.096 110.88 975.022L113.708 983.789C121.064 1007.23 129.568 1030.26 138.328 1053.16L145.134 1070.25C146.283 1073.08 147.373 1075.95 148.571 1078.77L152.136 1087.24L159.266 1104.18L166.69 1120.98C171.562 1132.22 176.806 1143.27 181.903 1154.4L189.484 1170.91C190.741 1173.65 191.89 1176.43 193.098 1179.19C194.287 1181.96 195.514 1184.71 196.624 1187.5L200.022 1195.86C201.122 1198.66 202.173 1201.48 203.243 1204.27L204.844 1208.49L206.346 1212.73C207.328 1215.56 208.389 1218.37 209.312 1221.23C213.162 1232.6 216.501 1244.11 219.408 1255.71C225.202 1278.9 228.806 1302.59 229.17 1326.24C229.366 1338.06 228.629 1349.86 226.901 1361.44C226.675 1362.88 226.479 1364.34 226.233 1365.78L225.418 1370.09L225.006 1372.24L224.515 1374.37L223.532 1378.64C222.05 1384.28 220.478 1389.89 218.426 1395.32L217.689 1397.38C217.434 1398.05 217.149 1398.72 216.874 1399.39L215.234 1403.41C214.016 1406.03 212.887 1408.71 211.532 1411.26C210.275 1413.86 208.821 1416.35 207.417 1418.88C205.904 1421.32 204.441 1423.82 202.791 1426.16C196.388 1435.71 188.62 1444.3 179.86 1451.62C171.09 1458.93 161.211 1464.85 150.693 1469.02C140.194 1473.16 128.989 1475.52 117.98 1475.38C112.49 1475.28 107.069 1474.55 101.953 1473.11C96.8262 1471.68 92.0927 1469.4 87.968 1466.47C83.7353 1463.34 80.0034 1459.62 77.0769 1455.36C75.6234 1453.22 74.3565 1450.96 73.2861 1448.62C72.2844 1446.24 71.3416 1443.82 70.772 1441.29C68.2677 1431.25 69.4364 1420.24 73.9539 1410.88C78.4125 1401.47 86.2985 1393.98 95.8442 1389.94C100.627 1387.95 105.773 1386.67 111.115 1386.29C116.448 1385.89 121.918 1386.24 127.359 1387.2C132.809 1388.17 138.23 1389.74 143.543 1391.72C148.866 1393.72 154.051 1396.23 159.138 1398.98L162.929 1401.1L166.651 1403.37L168.507 1404.51L170.334 1405.73L173.987 1408.16C178.77 1411.54 183.513 1415.03 188.05 1418.82C197.193 1426.31 205.855 1434.48 214.124 1443.09C222.393 1451.7 230.269 1460.74 237.831 1470.07C241.652 1474.71 245.275 1479.48 248.978 1484.25L254.959 1491.68C255.921 1492.94 257.041 1494.08 258.111 1495.27L261.332 1498.81C270.082 1508.09 279.933 1516.47 290.696 1523.46C301.45 1530.47 313.107 1536.09 325.166 1540.31C337.226 1544.57 349.699 1547.28 362.19 1549.03C374.692 1550.77 387.253 1551.49 399.745 1551.55H399.804Z" fill="#F3E000"/>
<path d="M399.804 1553.24V1551.54C387.312 1551.48 374.751 1550.76 362.249 1549.02C349.757 1547.28 337.275 1544.56 325.225 1540.3C313.166 1536.08 301.518 1530.47 290.755 1523.45C279.982 1516.45 270.141 1508.08 261.391 1498.8L258.17 1495.26C257.109 1494.07 255.99 1492.93 255.018 1491.67L249.037 1484.24C245.334 1479.46 241.701 1474.69 237.89 1470.06C230.319 1460.74 222.452 1451.7 214.183 1443.08C205.914 1434.47 197.252 1426.29 188.109 1418.81C183.572 1415.02 178.829 1411.54 174.046 1408.15L170.393 1405.72L168.566 1404.5L166.71 1403.36L162.988 1401.09L159.197 1398.97C154.11 1396.23 148.925 1393.71 143.602 1391.71C138.279 1389.72 132.868 1388.16 127.418 1387.19C121.977 1386.23 116.497 1385.88 111.174 1386.28C105.842 1386.65 100.686 1387.94 95.9031 1389.93C86.3672 1393.97 78.4714 1401.46 74.0128 1410.87C69.4953 1420.23 68.3266 1431.24 70.8309 1441.28C71.4005 1443.81 72.3433 1446.23 73.345 1448.61C74.4155 1450.95 75.6823 1453.21 77.1358 1455.35C80.0623 1459.61 83.7844 1463.33 88.0269 1466.46C92.1614 1469.39 96.895 1471.67 102.012 1473.1C107.128 1474.55 112.549 1475.27 118.039 1475.37C129.048 1475.51 140.253 1473.15 150.751 1469.01C161.269 1464.84 171.149 1458.91 179.919 1451.61C188.669 1444.29 196.437 1435.7 202.85 1426.15C204.51 1423.81 205.963 1421.31 207.476 1418.87C208.88 1416.34 210.333 1413.86 211.591 1411.25C212.946 1408.7 214.075 1406.02 215.293 1403.4L216.933 1399.38C217.198 1398.7 217.493 1398.04 217.748 1397.37L218.485 1395.31C220.537 1389.88 222.108 1384.27 223.591 1378.63L224.573 1374.36L225.064 1372.23L225.477 1370.08L226.292 1365.77C226.538 1364.33 226.734 1362.87 226.96 1361.43C228.678 1349.84 229.415 1338.04 229.228 1326.23C228.865 1302.58 225.261 1278.88 219.467 1255.7C216.56 1244.11 213.221 1232.59 209.371 1221.22C208.448 1218.36 207.387 1215.55 206.405 1212.72L204.903 1208.48L203.302 1204.26C202.222 1201.46 201.181 1198.64 200.081 1195.85L196.683 1187.49C195.573 1184.7 194.345 1181.95 193.157 1179.18C191.949 1176.42 190.8 1173.64 189.543 1170.9L181.962 1154.39C176.865 1143.26 171.62 1132.21 166.749 1120.97L159.325 1104.17L152.195 1087.23L148.63 1078.76C147.432 1075.94 146.342 1073.07 145.193 1070.24L138.387 1053.15C129.627 1030.25 121.123 1007.23 113.767 983.779L110.939 975.012C109.996 972.086 109.181 969.131 108.297 966.186L103.082 948.513L98.3288 930.693C97.5628 927.718 96.6887 924.773 96.0111 921.769L93.88 912.795L91.7489 903.821L90.6883 899.334L89.7455 894.818L85.994 876.753C85.6699 875.251 85.3753 873.739 85.12 872.227L84.3147 867.681L82.6943 858.599L81.0935 849.508L79.7383 840.377L78.383 831.246C77.9313 828.203 77.45 825.169 77.126 822.106L74.9556 803.775C74.553 800.722 74.3369 797.659 74.0521 794.595L73.2272 785.406L72.4022 776.216L71.8326 767.007C68.5427 717.906 69.6917 668.659 73.2959 619.745C77.1751 570.842 83.529 522.232 91.3463 473.947C99.2421 425.672 108.493 377.671 118.392 329.848C120.887 317.899 123.342 305.931 125.935 294.012L129.784 276.113C130.413 273.148 131.091 270.114 131.68 267.199C132.259 264.273 132.907 261.367 133.428 258.431C137.769 235.025 139.536 211.157 137.867 187.604C137.719 184.648 137.346 181.732 137.081 178.797C136.787 175.861 136.325 172.955 135.962 170.029C135.471 167.133 135.029 164.217 134.459 161.34C133.85 158.463 133.339 155.567 132.593 152.73C129.863 141.321 126.229 130.138 121.407 119.505L119.6 115.519L117.636 111.612L116.654 109.658C116.32 109.01 115.947 108.382 115.603 107.743L113.482 103.924C110.497 98.9366 107.423 93.9883 103.927 89.3444C97.1012 79.9386 89.1072 71.4362 80.3668 63.8076C75.9279 60.0767 71.3907 56.444 66.5491 53.2335C64.1922 51.5448 61.6781 50.0721 59.2327 48.511C58.0051 47.7354 56.7186 47.058 55.4616 46.3314C54.1947 45.6245 52.9573 44.8587 51.6413 44.2205C41.3395 38.8108 30.5073 34.3436 19.2626 31.1233C8.02776 27.8538 -3.53116 25.6153 -15.2374 24.3193C-26.9436 23.0724 -38.7874 22.7484 -50.6114 23.2295C-74.2891 24.1819 -97.8881 28.3251 -120.927 34.6283C-143.996 40.8922 -166.446 49.5321 -188.307 59.4778L-187.6 61.0192C-165.818 51.1128 -143.446 42.5024 -120.485 36.2581C-97.5542 29.9844 -74.073 25.8608 -50.5525 24.9182C-38.7972 24.447 -27.0418 24.7611 -15.424 25.9982C-3.81596 27.2844 7.64476 29.5131 18.7814 32.7432C29.9279 35.9341 40.652 40.362 50.8459 45.7129C52.1422 46.3412 53.3698 47.0972 54.617 47.8041C55.8544 48.5307 57.1311 49.1983 58.3489 49.9641C60.7746 51.5055 63.2592 52.9586 65.5867 54.6375C70.3693 57.8186 74.8574 61.412 79.2472 65.0937C87.8894 72.634 95.7951 81.0383 102.552 90.3458C106.009 94.9406 109.053 99.83 112.009 104.769L114.101 108.548C114.444 109.177 114.808 109.805 115.142 110.443L116.114 112.378L118.058 116.246L119.856 120.193C124.638 130.718 128.233 141.802 130.943 153.113C131.68 155.93 132.181 158.807 132.789 161.654C133.349 164.511 133.791 167.398 134.282 170.275C134.646 173.171 135.107 176.057 135.392 178.973C135.657 181.889 136.03 184.796 136.178 187.721C137.837 211.118 136.079 234.838 131.758 258.127C131.248 261.043 130.6 263.939 130.02 266.845C129.431 269.741 128.753 272.785 128.125 275.75L124.275 293.658C121.673 305.587 119.227 317.555 116.733 329.504C106.833 377.347 97.5824 425.367 89.6768 473.682C81.8497 522.007 75.4859 570.655 71.6068 619.628C67.9927 668.6 66.8437 717.926 70.1435 767.124L70.7131 776.343L71.538 785.553L72.3629 794.762C72.6477 797.825 72.8736 800.908 73.2763 803.962L75.4565 822.321C75.7805 825.385 76.2618 828.428 76.7135 831.482L78.0687 840.632L79.424 849.783L81.0248 858.884L82.6452 867.985L83.4603 872.541C83.7156 874.063 84.0004 875.575 84.3343 877.077L88.0957 895.172L89.0384 899.698L90.1089 904.194L92.24 913.188L94.3809 922.181C95.0683 925.185 95.9325 928.141 96.7084 931.115L101.471 948.965L106.696 966.667C107.58 969.612 108.405 972.577 109.348 975.503L112.176 984.28C119.541 1007.77 128.066 1030.82 136.826 1053.75L143.641 1070.86C144.79 1073.7 145.88 1076.57 147.079 1079.39L150.643 1087.87L157.783 1104.83L165.217 1121.64C170.088 1132.9 175.342 1143.96 180.439 1155.09L188.011 1171.58C189.268 1174.31 190.417 1177.09 191.615 1179.84C192.804 1182.6 194.021 1185.33 195.131 1188.12L198.519 1196.46C199.619 1199.25 200.66 1202.05 201.731 1204.85L203.322 1209.05L204.824 1213.29C205.806 1216.11 206.867 1218.91 207.78 1221.76C211.62 1233.09 214.949 1244.56 217.836 1256.1C223.611 1279.2 227.186 1302.77 227.549 1326.25C227.746 1338 227.009 1349.69 225.3 1361.19C225.074 1362.62 224.878 1364.06 224.642 1365.49L223.827 1369.76L223.424 1371.9L222.943 1374.01L221.971 1378.23C220.508 1383.81 218.946 1389.37 216.913 1394.73L216.187 1396.76C215.931 1397.42 215.646 1398.08 215.381 1398.75L213.761 1402.73C212.553 1405.32 211.443 1407.96 210.108 1410.48C208.86 1413.05 207.427 1415.52 206.042 1418C204.549 1420.42 203.105 1422.88 201.475 1425.2C195.151 1434.63 187.491 1443.09 178.868 1450.3C170.226 1457.51 160.494 1463.34 150.162 1467.43C139.841 1471.5 128.842 1473.81 118.098 1473.67C112.736 1473.57 107.462 1472.86 102.512 1471.47C97.553 1470.09 93.006 1467.89 89.0581 1465.09C84.9727 1462.06 81.3783 1458.48 78.5696 1454.39C77.1751 1452.34 75.9573 1450.17 74.9261 1447.91C73.9637 1445.63 73.0602 1443.3 72.5103 1440.88C70.1042 1431.23 71.2238 1420.61 75.5743 1411.61C79.8659 1402.55 87.4279 1395.37 96.6004 1391.49C101.206 1389.58 106.166 1388.34 111.341 1387.98C116.507 1387.59 121.839 1387.93 127.162 1388.87C132.485 1389.82 137.808 1391.35 143.042 1393.31C148.277 1395.27 153.403 1397.76 158.431 1400.47L162.183 1402.57L165.875 1404.82L167.712 1405.95L169.519 1407.14L173.133 1409.55C177.876 1412.91 182.58 1416.36 187.088 1420.12C196.162 1427.56 204.785 1435.69 213.015 1444.26C221.244 1452.83 229.091 1461.84 236.633 1471.13C240.434 1475.75 244.058 1480.5 247.75 1485.27L253.79 1492.77C254.762 1494.04 255.892 1495.19 256.972 1496.39L260.232 1499.95C269.071 1509.34 279.019 1517.79 289.91 1524.87C300.792 1531.96 312.567 1537.65 324.744 1541.9C336.922 1546.2 349.512 1548.94 362.092 1550.7C374.692 1552.45 387.322 1553.18 399.882 1553.23L399.804 1553.24Z" fill="#030404"/>
<path d="M399.804 1557.3V1553.24C387.243 1553.18 374.614 1552.46 362.014 1550.71C349.424 1548.95 336.843 1546.22 324.666 1541.91C312.488 1537.66 300.713 1531.97 289.832 1524.88C278.941 1517.8 268.992 1509.35 260.154 1499.96L256.893 1496.4C255.823 1495.2 254.684 1494.04 253.711 1492.78L247.672 1485.28C243.979 1480.52 240.355 1475.76 236.555 1471.14C229.012 1461.85 221.166 1452.84 212.936 1444.27C204.706 1435.7 196.084 1427.57 187.009 1420.13C182.502 1416.37 177.798 1412.92 173.054 1409.56L169.44 1407.15L167.633 1405.96L165.797 1404.83L162.104 1402.58L158.353 1400.48C153.324 1397.77 148.208 1395.29 142.964 1393.32C137.729 1391.36 132.406 1389.83 127.084 1388.88C121.761 1387.94 116.428 1387.61 111.263 1387.99C106.087 1388.35 101.128 1389.6 96.5218 1391.5C87.3493 1395.38 79.7873 1402.56 75.4957 1411.62C71.155 1420.62 70.0256 1431.23 72.4317 1440.89C72.9816 1443.32 73.8851 1445.64 74.8475 1447.92C75.8787 1450.18 77.0867 1452.35 78.491 1454.4C81.2997 1458.49 84.8843 1462.08 88.9795 1465.1C92.9274 1467.89 97.4744 1470.09 102.434 1471.48C107.383 1472.88 112.657 1473.59 118.019 1473.68C128.763 1473.82 139.762 1471.51 150.084 1467.44C160.415 1463.34 170.147 1457.51 178.79 1450.31C187.412 1443.09 195.072 1434.64 201.397 1425.21C203.037 1422.89 204.471 1420.43 205.963 1418.01C207.348 1415.52 208.782 1413.06 210.029 1410.49C211.374 1407.98 212.484 1405.33 213.682 1402.74L215.303 1398.76C215.568 1398.09 215.853 1397.43 216.108 1396.77L216.835 1394.74C218.868 1389.37 220.429 1383.82 221.892 1378.24L222.865 1374.02L223.346 1371.91L223.749 1369.77L224.564 1365.5C224.809 1364.06 225.006 1362.63 225.222 1361.2C226.93 1349.7 227.657 1338.01 227.471 1326.26C227.107 1302.78 223.523 1279.2 217.758 1256.11C214.871 1244.57 211.541 1233.1 207.702 1221.77C206.778 1218.92 205.728 1216.12 204.746 1213.3L203.243 1209.06L201.652 1204.86C200.582 1202.06 199.541 1199.26 198.441 1196.47L195.053 1188.13C193.953 1185.34 192.725 1182.6 191.537 1179.85C190.329 1177.1 189.19 1174.32 187.933 1171.59L180.361 1155.1C175.254 1143.97 170.01 1132.91 165.139 1121.65L157.705 1104.84L150.565 1087.88L147 1079.4C145.802 1076.58 144.712 1073.7 143.563 1070.87L136.747 1053.76C127.977 1030.83 119.463 1007.77 112.097 984.29L109.269 975.513C108.326 972.587 107.511 969.622 106.617 966.676L101.393 948.974L96.6298 931.125C95.8638 928.141 94.9898 925.195 94.3023 922.191L92.1614 913.197L90.0303 904.204L88.9599 899.707L88.0171 895.181L84.2558 877.087C83.9317 875.584 83.637 874.063 83.3817 872.551L82.5666 867.995L80.9462 858.894L79.3454 849.792L77.9902 840.642L76.6349 831.492C76.1832 828.438 75.702 825.395 75.3779 822.331L73.1977 803.972C72.795 800.918 72.579 797.845 72.2844 794.772L71.4594 785.563L70.6345 776.353L70.0649 767.134C66.7651 717.936 67.9142 668.61 71.5282 619.637C75.4074 570.675 81.7711 522.016 89.5982 473.692C97.5038 425.377 106.755 377.357 116.654 329.514C119.149 317.555 121.604 305.587 124.196 293.668L128.046 275.76C128.675 272.795 129.362 269.751 129.941 266.855C130.511 263.949 131.169 261.052 131.68 258.136C136.001 234.848 137.759 211.128 136.099 187.731C135.952 184.805 135.588 181.899 135.313 178.983C135.029 176.067 134.567 173.191 134.204 170.284C133.713 167.408 133.281 164.521 132.711 161.664C132.102 158.817 131.601 155.94 130.865 153.122C128.154 141.812 124.56 130.727 119.777 120.203L117.98 116.256L116.035 112.387L115.063 110.453C114.729 109.815 114.366 109.196 114.022 108.558L111.93 104.778C108.974 99.8399 105.93 94.9406 102.473 90.3556C95.7263 81.0481 87.8109 72.6438 79.1687 65.1036C74.7788 61.4218 70.2908 57.8284 65.5081 54.6473C63.1708 52.9783 60.696 51.5154 58.2703 49.9739C57.0525 49.2081 55.7758 48.5405 54.5384 47.814C53.2814 47.1169 52.0538 46.3609 50.7673 45.7227C40.5734 40.3719 29.8493 35.9439 18.7028 32.753C7.57601 29.5131 -3.89453 27.2942 -15.5026 26.008C-27.1204 24.771 -38.8757 24.447 -50.6311 24.9281C-74.1516 25.8804 -97.6328 29.9942 -120.564 36.2679C-143.525 42.5024 -165.896 51.1128 -187.678 61.0291L-185.98 64.7206C-164.364 54.8928 -142.199 46.3609 -119.484 40.1853C-96.8079 33.9803 -73.6213 29.9156 -50.4641 28.9829C-38.8954 28.5116 -27.3365 28.8356 -15.9445 30.0433C-4.55251 31.3 6.67252 33.4894 17.5538 36.6508C28.4548 39.7631 38.9138 44.0929 48.8523 49.3063C50.1191 49.9248 51.3074 50.6612 52.535 51.3386C53.743 52.0455 54.9902 52.6935 56.1687 53.4397C58.5256 54.9419 60.9513 56.3557 63.2199 57.9953C67.8847 61.088 72.2451 64.593 76.5171 68.1766C84.9236 75.5205 92.623 83.6891 99.193 92.7512C102.561 97.2184 105.527 101.99 108.405 106.811L110.447 110.492C110.781 111.111 111.135 111.72 111.469 112.338L112.412 114.223L114.317 117.993L116.065 121.842C120.73 132.112 124.246 142.961 126.907 154.036C127.634 156.794 128.115 159.612 128.714 162.401C129.264 165.208 129.696 168.036 130.177 170.864C130.531 173.711 130.982 176.539 131.267 179.405C131.532 182.272 131.896 185.12 132.033 187.996C133.664 210.99 131.935 234.367 127.673 257.371C127.172 260.247 126.524 263.114 125.954 265.981L125.021 270.389L124.059 274.866L120.209 292.784C117.607 304.723 115.161 316.701 112.657 328.66C102.748 376.542 93.4872 424.611 85.5717 473.005C77.7348 521.408 71.3514 570.174 67.4624 619.284C63.8386 668.414 62.6798 717.936 65.9991 767.36L66.5687 776.628L67.3937 785.877L68.2186 795.125C68.5034 798.208 68.7293 801.291 69.1319 804.364L71.3219 822.812C71.646 825.895 72.1371 828.949 72.5888 832.012L73.9539 841.202L75.3189 850.391L76.9296 859.542L78.5598 868.682L79.3749 873.258C79.6302 874.789 79.9248 876.301 80.2489 877.813L84.0299 895.996L84.9825 900.542L86.0529 905.058L88.1939 914.091L90.3446 923.123C91.032 926.138 91.906 929.103 92.6819 932.097L97.4645 950.015L102.709 967.796C103.602 970.751 104.427 973.736 105.37 976.671L108.208 985.478C115.603 1009.05 124.147 1032.18 132.947 1055.19L139.782 1072.34C140.931 1075.19 142.031 1078.07 143.229 1080.9L146.804 1089.4L153.963 1106.4L161.407 1123.25C166.298 1134.54 171.552 1145.62 176.668 1156.77L184.211 1173.21C185.458 1175.92 186.597 1178.68 187.795 1181.41C188.974 1184.15 190.191 1186.88 191.281 1189.63L194.65 1197.91C195.74 1200.68 196.771 1203.47 197.842 1206.24L199.423 1210.41L200.906 1214.6C201.878 1217.4 202.929 1220.19 203.842 1223.01C207.652 1234.24 210.942 1245.6 213.81 1257.03C219.526 1279.87 223.051 1303.15 223.405 1326.25C223.591 1337.8 222.874 1349.28 221.205 1360.53C220.989 1361.93 220.792 1363.35 220.557 1364.74L219.761 1368.91L219.368 1371L218.897 1373.07L217.944 1377.19C216.511 1382.64 214.998 1388.06 213.015 1393.28L212.307 1395.25C212.062 1395.91 211.787 1396.55 211.532 1397.2L209.96 1401.07C208.792 1403.58 207.711 1406.15 206.405 1408.6C205.197 1411.1 203.803 1413.48 202.467 1415.89C201.014 1418.24 199.629 1420.61 198.038 1422.86C191.92 1432 184.515 1440.16 176.197 1447.12C167.869 1454.06 158.5 1459.67 148.601 1463.6C138.711 1467.51 128.203 1469.69 118.088 1469.56C113.04 1469.47 108.12 1468.79 103.563 1467.52C98.9966 1466.24 94.8915 1464.24 91.3757 1461.76C87.6341 1458.98 84.3834 1455.74 81.8497 1452.04C80.5926 1450.19 79.5026 1448.23 78.5696 1446.2C77.7054 1444.14 76.8804 1442.05 76.3894 1439.85C74.2092 1431.13 75.2306 1421.47 79.1687 1413.32C83.0675 1405.11 89.8437 1398.69 98.1225 1395.18C102.287 1393.45 106.804 1392.3 111.587 1391.97C116.36 1391.6 121.348 1391.92 126.386 1392.81C131.424 1393.7 136.502 1395.17 141.53 1397.04C146.558 1398.94 151.527 1401.33 156.408 1403.96L160.052 1406.01L163.646 1408.2L165.443 1409.3L167.211 1410.48L170.746 1412.84C175.392 1416.13 180.007 1419.51 184.436 1423.22C193.363 1430.53 201.868 1438.55 210.009 1447.03C218.151 1455.5 225.919 1464.43 233.402 1473.64C237.173 1478.23 240.758 1482.95 244.441 1487.67L250.608 1495.33C251.6 1496.63 252.759 1497.81 253.859 1499.04L257.188 1502.69C266.233 1512.3 276.436 1520.97 287.612 1528.23C298.769 1535.51 310.858 1541.34 323.32 1545.69C335.783 1550.09 348.628 1552.88 361.444 1554.68C374.27 1556.46 387.086 1557.19 399.804 1557.24V1557.3Z" fill="#3EA95C"/>
</g>
<defs>
<clipPath id="clip0_160_28">
<rect width="598" height="1559" fill="white" transform="translate(-198)"/>
</clipPath>
</defs>
</svg>
