<?xml version="1.0" encoding="UTF-8" standalone="no"?>
<svg
   xmlns:dc="http://purl.org/dc/elements/1.1/"
   xmlns:cc="http://creativecommons.org/ns#"
   xmlns:rdf="http://www.w3.org/1999/02/22-rdf-syntax-ns#"
   xmlns:svg="http://www.w3.org/2000/svg"
   xmlns="http://www.w3.org/2000/svg"
   xmlns:sodipodi="http://sodipodi.sourceforge.net/DTD/sodipodi-0.dtd"
   xmlns:inkscape="http://www.inkscape.org/namespaces/inkscape"
   inkscape:version="1.0rc1 (09960d6, 2020-04-09)"
   sodipodi:docname="MTRewindRibbon2.svg"
   id="svg907"
   version="1.1"
   fill="none"
   viewBox="0 0 400 1520"
   height="1520"
   width="400">
  <metadata
     id="metadata911">
    <rdf:RDF>
      <cc:Work
         rdf:about="">
        <dc:format>image/svg+xml</dc:format>
        <dc:type
           rdf:resource="http://purl.org/dc/dcmitype/StillImage" />
        <dc:title></dc:title>
      </cc:Work>
    </rdf:RDF>
  </metadata>
  <sodipodi:namedview
     inkscape:current-layer="svg907"
     inkscape:window-maximized="0"
     inkscape:window-y="25"
     inkscape:window-x="0"
     inkscape:cy="1465.6971"
     inkscape:cx="196.57199"
     inkscape:zoom="2.0519292"
     showgrid="false"
     id="namedview909"
     inkscape:window-height="997"
     inkscape:window-width="1680"
     inkscape:pageshadow="2"
     inkscape:pageopacity="0"
     guidetolerance="10"
     gridtolerance="10"
     objecttolerance="10"
     borderopacity="1"
     bordercolor="#666666"
     pagecolor="#ffffff" />
  <g
     id="g900"
     clip-path="url(#clip0_160_28)">
    <path
       inkscape:connector-curvature="0"
       id="path878"
       fill="#030404"
       d="m 399.804,1530.21 v -1.7 c -11.608,-0.05 -23.108,-0.72 -34.353,-2.28 -11.235,-1.57 -22.234,-3.98 -32.664,-7.67 -10.439,-3.65 -20.338,-8.44 -29.481,-14.4 -9.153,-5.95 -17.55,-13.08 -25.131,-21.12 l -2.799,-3.08 c -0.923,-1.03 -1.905,-2.01 -2.75,-3.13 l -5.254,-6.52 c -3.811,-4.91 -7.621,-9.91 -11.608,-14.75 -7.916,-9.75 -16.194,-19.27 -24.984,-28.43 -8.789,-9.15 -18.09,-17.94 -28.097,-26.13 -4.959,-4.14 -10.213,-8.01 -15.566,-11.79 l -4.105,-2.74 -2.062,-1.37 -2.121,-1.3 -4.253,-2.6 -4.38,-2.45 c -5.902,-3.19 -12.01,-6.15 -18.482,-8.58 -6.472,-2.43 -13.248,-4.41 -20.339,-5.67 -7.09,-1.24 -14.505,-1.76 -22.057,-1.18 -7.542,0.54 -15.2121,2.36 -22.4794,5.42 -0.9133,0.35 -1.807,0.79 -2.6909,1.22 -0.8838,0.44 -1.7873,0.85 -2.6515,1.33 -1.7186,0.98 -3.4766,1.91 -5.1068,3.05 -3.3488,2.14 -6.4325,4.69 -9.3198,7.41 -2.8873,2.74 -5.4505,5.79 -7.8074,8.97 -2.2784,3.23 -4.3309,6.62 -6.0397,10.16 -6.8254,14.18 -8.5833,30.57 -4.7827,45.93 0.8937,3.85 2.2882,7.58 3.8497,11.21 1.6401,3.61 3.5747,7.08 5.8138,10.35 4.4684,6.53 10.1251,12.15 16.3318,16.71 6.5995,4.72 13.8766,8.09 21.2028,10.15 7.3461,2.07 14.7511,3.03 22.0281,3.15 14.554,0.18 28.558,-2.87 41.512,-7.96 12.953,-5.12 24.895,-12.33 35.433,-21.11 10.518,-8.79 19.739,-19.02 27.281,-30.26 1.945,-2.78 3.664,-5.68 5.431,-8.56 1.65,-2.93 3.339,-5.86 4.803,-8.87 1.571,-2.98 2.887,-6.06 4.291,-9.11 l 1.896,-4.64 c 0.314,-0.78 0.638,-1.54 0.933,-2.33 l 0.844,-2.34 c 2.347,-6.25 4.154,-12.64 5.824,-19.03 l 1.109,-4.82 0.55,-2.42 0.462,-2.42 0.923,-4.85 c 0.275,-1.62 0.501,-3.24 0.747,-4.86 1.924,-12.97 2.72,-26 2.514,-38.91 -0.403,-25.84 -4.312,-51.22 -10.44,-75.76 -3.074,-12.27 -6.589,-24.38 -10.626,-36.28 -0.972,-3 -2.072,-5.93 -3.103,-8.9 l -1.571,-4.44 -1.67,-4.4 c -1.119,-2.92 -2.21,-5.86 -3.359,-8.77 l -3.535,-8.69 c -1.149,-2.91 -2.426,-5.77 -3.653,-8.63 -1.257,-2.86 -2.446,-5.75 -3.752,-8.58 l -7.729,-16.83 c -5.038,-11 -10.233,-21.94 -15.035,-33.03 l -7.326,-16.58 -7.032,-16.69 -3.516,-8.35 c -1.188,-2.78 -2.249,-5.59 -3.378,-8.39 l -6.698,-16.81 c -8.603,-22.51 -16.96,-45.115 -24.149,-68.05 l -2.769,-8.581 c -0.923,-2.857 -1.719,-5.753 -2.583,-8.63 l -5.097,-17.27 -4.635,-17.388 c -0.747,-2.906 -1.601,-5.782 -2.269,-8.708 l -2.072,-8.748 -2.082,-8.748 -1.041,-4.369 -0.923,-4.398 -3.653,-17.594 c -0.324,-1.463 -0.599,-2.936 -0.845,-4.409 l -0.786,-4.418 -1.571,-8.836 -1.561,-8.846 -1.316,-8.885 -1.316,-8.886 c -0.442,-2.965 -0.904,-5.92 -1.2181,-8.895 l -2.1114,-17.83 c -0.3928,-2.965 -0.5991,-5.959 -0.8839,-8.934 l -0.7955,-8.944 -0.8052,-8.945 -0.55,-8.973 c -3.2114,-47.824 -2.1017,-95.962 1.4436,-144.012 3.8105,-48.049 10.0765,-96.03 17.8245,-143.864 7.827,-47.823 17.009,-95.519 26.86,-143.137 2.484,-11.9 4.92,-23.809 7.512,-35.689 l 3.83,-17.839 0.963,-4.458 0.962,-4.545 c 0.619,-3.122 1.316,-6.225 1.866,-9.367 4.636,-25.046 6.6,-50.828 4.763,-76.669 -0.167,-3.23 -0.569,-6.45 -0.864,-9.681 -0.324,-3.23 -0.825,-6.44 -1.237,-9.661 -0.541,-3.21 -1.032,-6.43 -1.66,-9.631 -0.678,-3.191 -1.247,-6.401 -2.072,-9.573 -3.045,-12.714 -7.12,-25.271 -12.581,-37.318 C 131.68,85.8785 115.574,63.7682 95.3433,46.3215 90.2464,42.0212 85.012,37.8584 79.4633,34.1668 76.743,32.2326 73.8852,30.5341 71.0666,28.757 69.6525,27.8734 68.1891,27.0879 66.7455,26.2534 65.2921,25.4385 63.8681,24.5745 62.3852,23.8382 50.6298,17.6528 38.3147,12.6063 25.6657,8.97362 13.0265,5.29185 0.122129,2.80788 -12.8117,1.37444 -25.7553,0.0588237 -38.7382,-0.294626 -51.6033,0.225731 -77.3629,1.26645 -102.651,5.74348 -127.095,12.4296 -151.578,19.096 -175.157,28.1777 -198,38.5751 l 0.707,1.5414 c 22.764,-10.358 46.265,-19.4103 70.64,-26.0375 24.346,-6.66645 49.5159,-11.12385 75.1184,-12.15474 12.7963,-0.51054 25.6811,-0.16691 38.5363,1.1978 12.845448,1.42362 25.6516,3.89777 38.1828,7.54024 12.5508,3.5934 24.7578,8.6105 36.4052,14.7369 1.4731,0.7266 2.8873,1.5807 4.3211,2.3858 1.424,0.8247 2.8774,1.6004 4.2818,2.4742 2.789,1.7574 5.6272,3.4461 8.3181,5.3606 5.4996,3.6622 10.6751,7.7858 15.7229,12.0468 20.0344,17.2798 35.9824,39.174 46.5894,63.1204 5.411,11.939 9.457,24.398 12.472,37.014 0.815,3.142 1.385,6.333 2.053,9.504 0.618,3.181 1.109,6.372 1.649,9.563 0.403,3.2 0.904,6.391 1.228,9.602 0.304,3.2 0.697,6.411 0.864,9.621 1.817,25.675 -0.127,51.319 -4.743,76.238 -0.55,3.122 -1.238,6.214 -1.856,9.317 l -0.953,4.536 -0.962,4.457 -3.84,17.84 c -2.593,11.889 -5.028,23.799 -7.513,35.698 -9.85,47.628 -19.042,95.343 -26.879,143.206 -7.749,47.863 -14.024,95.893 -17.8443,144.002 -3.5452,48.108 -4.6648,96.335 -1.4436,144.247 l 0.5499,8.983 0.8053,8.964 0.8053,8.964 c 0.275,2.985 0.4911,5.979 0.8839,8.954 l 2.1213,17.869 c 0.3142,2.985 0.7856,5.95 1.2275,8.915 l 1.3157,8.895 1.316,8.895 1.562,8.856 1.581,8.856 0.786,4.428 c 0.245,1.482 0.53,2.955 0.854,4.418 l 3.663,17.623 0.923,4.409 1.041,4.379 2.082,8.757 2.082,8.768 c 0.668,2.926 1.522,5.812 2.269,8.718 l 4.645,17.418 5.107,17.299 c 0.864,2.877 1.669,5.773 2.592,8.64 l 2.77,8.591 c 7.198,22.969 15.565,45.609 24.178,68.149 l 6.708,16.83 c 1.129,2.79 2.2,5.61 3.388,8.4 l 3.516,8.36 7.041,16.71 7.336,16.6 c 4.812,11.09 9.998,22.05 15.045,33.06 l 7.719,16.8 c 1.297,2.83 2.495,5.71 3.742,8.57 1.228,2.85 2.495,5.7 3.644,8.6 l 3.525,8.67 c 1.139,2.9 2.229,5.83 3.349,8.74 l 1.66,4.38 1.571,4.42 c 1.031,2.96 2.131,5.88 3.094,8.87 4.016,11.86 7.532,23.93 10.586,36.16 6.099,24.43 9.988,49.69 10.39,75.36 0.207,12.83 -0.579,25.77 -2.494,38.63 -0.246,1.61 -0.471,3.22 -0.746,4.82 l -0.914,4.81 -0.461,2.41 -0.54,2.4 -1.1,4.78 c -1.66,6.34 -3.447,12.67 -5.775,18.86 l -0.844,2.32 c -0.295,0.78 -0.619,1.54 -0.924,2.31 l -1.875,4.6 c -1.385,3.01 -2.691,6.06 -4.243,9 -1.453,2.98 -3.123,5.88 -4.753,8.79 -1.748,2.84 -3.447,5.72 -5.372,8.46 -7.464,11.11 -16.577,21.23 -26.958,29.91 -10.4,8.67 -22.204,15.77 -34.971,20.83 -12.767,5.02 -26.565,8.02 -40.864,7.84 -7.139,-0.12 -14.407,-1.06 -21.5857,-3.09 -7.1691,-2.02 -14.2498,-5.31 -20.6725,-9.89 -6.0593,-4.46 -11.5687,-9.94 -15.9291,-16.3 -2.1802,-3.18 -4.0658,-6.57 -5.6665,-10.09 -1.5222,-3.54 -2.8775,-7.16 -3.7515,-10.91 -3.7024,-14.97 -1.9838,-30.97 4.6648,-44.79 1.6695,-3.46 3.6631,-6.76 5.8826,-9.91 2.298,-3.09 4.7924,-6.07 7.611,-8.73 2.8185,-2.65 5.8236,-5.13 9.0841,-7.22 1.5909,-1.11 3.2997,-2.02 4.9791,-2.98 0.8445,-0.46 1.7284,-0.86 2.5828,-1.29 0.8642,-0.41 1.7285,-0.85 2.6221,-1.19 7.0807,-2.97 14.5638,-4.76 21.9488,-5.29 7.386,-0.55 14.663,-0.05 21.626,1.17 6.972,1.23 13.65,3.18 20.034,5.58 6.383,2.41 12.433,5.33 18.266,8.48 l 4.331,2.43 4.213,2.56 2.102,1.3 2.042,1.35 4.076,2.72 c 5.303,3.75 10.528,7.6 15.458,11.7 9.938,8.14 19.199,16.89 27.949,26 8.751,9.11 17,18.6 24.896,28.32 3.967,4.83 7.768,9.82 11.568,14.71 l 5.304,6.59 c 0.854,1.13 1.846,2.12 2.779,3.16 l 2.828,3.11 c 7.67,8.14 16.175,15.35 25.446,21.38 9.26,6.04 19.297,10.89 29.845,14.58 10.537,3.73 21.654,6.17 32.977,7.75 11.333,1.57 22.912,2.24 34.589,2.3 z" />
    <path
       inkscape:connector-curvature="0"
       id="path880"
       fill="#030404"
       d="m 399.804,1559 v -1.7 c -12.718,-0.06 -25.534,-0.78 -38.36,-2.56 -12.806,-1.8 -25.651,-4.59 -38.124,-8.99 -12.462,-4.35 -24.551,-10.19 -35.708,-17.46 -11.176,-7.27 -21.379,-15.95 -30.424,-25.54 l -3.329,-3.65 c -1.1,-1.23 -2.259,-2.41 -3.251,-3.71 l -6.167,-7.66 c -3.673,-4.73 -7.268,-9.44 -11.039,-14.03 -7.483,-9.21 -15.251,-18.14 -23.393,-26.62 -8.141,-8.47 -16.646,-16.49 -25.573,-23.8 -4.439,-3.71 -9.044,-7.09 -13.69,-10.38 l -3.535,-2.36 -1.768,-1.18 -1.797,-1.1 -3.594,-2.2 -3.644,-2.04 c -4.881,-2.63 -9.84,-5.03 -14.878,-6.92 -5.028,-1.88 -10.106,-3.35 -15.144,-4.23 -5.038,-0.89 -10.017,-1.2 -14.799,-0.85 -4.783,0.34 -9.3,1.49 -13.4644,3.21 -8.2789,3.52 -15.0551,9.94 -18.9539,18.15 -3.9381,8.15 -4.9595,17.81 -2.7793,26.53 0.4911,2.2 1.316,4.29 2.1802,6.35 0.933,2.03 2.0231,3.99 3.2801,5.84 2.5337,3.7 5.7844,6.94 9.5261,9.72 3.5158,2.47 7.6208,4.48 12.1872,5.75 4.567,1.28 9.487,1.96 14.525,2.05 10.125,0.12 20.623,-2.06 30.513,-5.96 9.909,-3.92 19.278,-9.54 27.596,-16.48 8.308,-6.96 15.723,-15.12 21.841,-24.26 1.581,-2.25 2.976,-4.63 4.429,-6.97 1.346,-2.41 2.74,-4.8 3.938,-7.29 1.306,-2.45 2.377,-5.02 3.555,-7.53 l 1.572,-3.87 c 0.255,-0.65 0.54,-1.29 0.775,-1.95 l 0.708,-1.97 c 1.983,-5.22 3.496,-10.65 4.93,-16.09 l 0.952,-4.13 0.471,-2.06 0.393,-2.09 0.796,-4.17 c 0.236,-1.4 0.432,-2.81 0.648,-4.21 1.669,-11.25 2.396,-22.73 2.2,-34.28 -0.354,-23.1 -3.879,-46.38 -9.595,-69.23 -2.858,-11.42 -6.158,-22.78 -9.968,-34.01 -0.913,-2.82 -1.964,-5.6 -2.936,-8.41 l -1.483,-4.19 -1.581,-4.17 c -1.071,-2.78 -2.102,-5.57 -3.192,-8.33 l -3.369,-8.28 c -1.09,-2.77 -2.307,-5.49 -3.486,-8.22 -1.198,-2.73 -2.337,-5.49 -3.584,-8.2 l -7.543,-16.44 c -5.116,-11.16 -10.37,-22.25 -15.261,-33.52 l -7.444,-16.85 -7.159,-17 -3.575,-8.5 c -1.208,-2.83 -2.298,-5.71 -3.447,-8.56 l -6.835,-17.15 c -8.79,-23.01 -17.344,-46.14 -24.739,-69.713 l -2.838,-8.807 c -0.943,-2.935 -1.767,-5.92 -2.661,-8.875 l -5.2444,-17.781 -4.7827,-17.918 c -0.7758,-2.994 -1.6499,-5.959 -2.3373,-8.974 l -2.1507,-9.032 -2.141,-9.033 -1.0704,-4.516 -0.9526,-4.546 -3.781,-18.183 c -0.3339,-1.512 -0.6187,-3.034 -0.874,-4.556 l -0.8151,-4.575 -1.6302,-9.14 -1.6106,-9.151 -1.3651,-9.19 -1.3651,-9.189 c -0.4517,-3.063 -0.9329,-6.127 -1.2669,-9.2 L 69.132,804.423 c -0.4027,-3.073 -0.6286,-6.156 -0.9134,-9.239 l -0.8249,-9.248 -0.8249,-9.249 -0.5696,-9.268 c -3.3194,-49.424 -2.1606,-98.947 1.4632,-148.076 3.8988,-49.12 10.2725,-97.876 18.1093,-146.279 7.9155,-48.394 17.1863,-96.463 27.0853,-144.346 2.504,-11.968 4.95,-23.946 7.552,-35.875 l 3.85,-17.918 0.962,-4.477 0.933,-4.408 c 0.57,-2.877 1.208,-5.734 1.719,-8.61 4.262,-23.004 5.991,-46.381 4.36,-69.375 -0.147,-2.877 -0.51,-5.734 -0.766,-8.591 -0.284,-2.857 -0.736,-5.694 -1.09,-8.541 -0.481,-2.818 -0.913,-5.656 -1.463,-8.464 -0.599,-2.788 -1.09,-5.615 -1.807,-8.365 -2.652,-11.084 -6.167,-21.923 -10.842,-32.193 l -1.748,-3.849 -1.905,-3.77 -0.943,-1.885 c -0.324,-0.618 -0.678,-1.227 -1.022,-1.846 l -2.042,-3.681 C 105.527,102.059 102.561,97.2872 99.193,92.8101 92.623,83.748 84.9236,75.5696 76.5171,68.2355 72.2451,64.6519 67.8749,61.1469 63.2199,58.0542 60.9513,56.4244 58.5256,55.0106 56.1687,53.4986 54.9804,52.7524 53.743,52.1044 52.535,51.3975 51.3074,50.7201 50.1191,49.9739 48.8523,49.3652 38.9137,44.1518 28.4547,39.8319 17.5538,36.7097 6.6725,33.5483 -4.55252,31.3589 -15.9445,30.1022 c -11.4018,-1.2175 -22.9509,-1.5317 -34.5196,-1.0604 -23.1572,0.9327 -46.3438,4.9974 -69.0199,11.2024 -22.715,6.1658 -44.88,14.6977 -66.496,24.5354 l 0.708,1.5414 c 21.536,-9.7984 43.623,-18.2911 66.23,-24.4372 22.5779,-6.1853 45.6368,-10.2107 68.6368,-11.1435 11.4902,-0.4614 22.9607,-0.1472 34.2741,1.0604 11.3036,1.2469 22.43041,3.4167 33.2037,6.5486 10.8027,3.0829 21.1537,7.3734 30.9744,12.5279 1.2472,0.6087 2.4257,1.3352 3.6434,2.0127 1.1982,0.6971 2.4257,1.3451 3.5944,2.0814 2.3373,1.4825 4.7237,2.8865 6.9727,4.4967 4.6059,3.0632 8.927,6.5192 13.1499,10.0635 8.3082,7.2555 15.9193,15.3358 22.4205,24.2997 3.3291,4.4181 6.2661,9.1408 9.1141,13.9028 l 2.023,3.642 c 0.333,0.609 0.687,1.208 1.001,1.826 l 0.933,1.866 1.886,3.731 1.728,3.809 c 4.616,10.171 8.102,20.912 10.734,31.899 0.717,2.729 1.198,5.527 1.797,8.296 0.55,2.779 0.973,5.596 1.454,8.395 0.353,2.827 0.805,5.635 1.08,8.472 0.255,2.848 0.619,5.666 0.766,8.532 1.621,22.827 -0.098,46.057 -4.341,68.943 -0.5,2.867 -1.149,5.714 -1.708,8.571 l -0.933,4.408 -0.963,4.477 -3.849,17.918 c -2.603,11.939 -5.058,23.917 -7.553,35.885 -9.909,47.893 -19.1793,95.991 -27.0948,144.414 -7.8467,48.442 -14.2301,97.248 -18.1289,146.427 -3.6238,49.188 -4.7925,98.799 -1.4633,148.311 l 0.5696,9.278 0.8249,9.269 0.825,9.268 c 0.2848,3.093 0.5107,6.185 0.9133,9.258 l 2.19,18.488 c 0.3241,3.083 0.8151,6.156 1.2669,9.219 l 1.3651,9.209 1.365,9.21 1.6106,9.17 1.6303,9.16 0.8151,4.585 c 0.2553,1.532 0.5499,3.053 0.874,4.565 l 3.7908,18.223 0.9526,4.555 1.0704,4.526 2.1508,9.043 2.1507,9.042 c 0.6874,3.024 1.5615,5.989 2.3373,8.994 l 4.7925,17.957 5.2541,17.81 c 0.894,2.965 1.719,5.95 2.661,8.885 l 2.848,8.827 c 7.405,23.603 15.969,46.773 24.768,69.803 l 6.845,17.17 c 1.159,2.86 2.249,5.75 3.457,8.58 l 3.584,8.51 7.17,17.01 7.453,16.87 c 4.891,11.29 10.155,22.39 15.272,33.55 l 7.532,16.4 c 1.247,2.71 2.377,5.45 3.575,8.18 1.178,2.73 2.386,5.45 3.476,8.21 l 3.359,8.25 c 1.09,2.76 2.121,5.54 3.182,8.3 l 1.571,4.16 1.483,4.18 c 0.972,2.79 2.013,5.57 2.927,8.37 3.79,11.2 7.071,22.52 9.928,33.9 5.686,22.74 9.192,45.91 9.546,68.84 0.187,11.47 -0.53,22.86 -2.18,34 -0.216,1.39 -0.403,2.79 -0.639,4.17 l -0.785,4.14 -0.393,2.07 -0.471,2.04 -0.943,4.08 c -1.414,5.39 -2.917,10.77 -4.871,15.93 l -0.698,1.95 c -0.245,0.65 -0.52,1.28 -0.775,1.92 l -1.562,3.83 c -1.159,2.48 -2.219,5.02 -3.506,7.44 -1.188,2.46 -2.573,4.82 -3.889,7.21 -1.434,2.3 -2.808,4.66 -4.37,6.88 -6.04,9.01 -13.336,17.05 -21.517,23.9 -8.2,6.84 -17.412,12.36 -27.135,16.2 -9.712,3.83 -20.014,5.97 -29.874,5.85 -4.91,-0.09 -9.683,-0.75 -14.083,-1.99 -4.4094,-1.22 -8.318,-3.15 -11.657,-5.49 -3.5944,-2.68 -6.6977,-5.78 -9.1234,-9.31 -1.2079,-1.77 -2.2489,-3.64 -3.1328,-5.58 -0.8249,-1.96 -1.6106,-3.96 -2.0721,-6.06 -2.082,-8.32 -1.1098,-17.58 2.6613,-25.38 3.7319,-7.85 10.1841,-13.95 18.0897,-17.32 3.9873,-1.64 8.3183,-2.75 12.9343,-3.07 4.615,-0.34 9.457,-0.05 14.367,0.83 4.92,0.86 9.899,2.29 14.839,4.15 4.95,1.85 9.841,4.22 14.662,6.82 l 3.605,2.02 3.555,2.17 1.777,1.09 1.748,1.16 3.506,2.33 c 4.606,3.27 9.183,6.62 13.582,10.3 8.859,7.26 17.324,15.24 25.426,23.67 8.102,8.43 15.841,17.33 23.295,26.51 3.761,4.57 7.336,9.27 10.999,13.99 l 6.216,7.73 c 1.002,1.3 2.171,2.5 3.28,3.74 l 3.359,3.68 c 9.123,9.69 19.445,18.47 30.729,25.8 11.284,7.36 23.491,13.25 36.081,17.63 12.59,4.45 25.544,7.26 38.438,9.07 12.914,1.79 25.809,2.52 38.595,2.58 z" />
    <path
       inkscape:connector-curvature="0"
       id="path882"
       fill="#e64d3c"
       d="m 399.804,1534.27 v -4.07 c -11.667,-0.06 -23.246,-0.72 -34.589,-2.3 -11.323,-1.59 -22.44,-4.02 -32.978,-7.75 -10.557,-3.69 -20.584,-8.54 -29.845,-14.58 -9.27,-6.03 -17.775,-13.24 -25.445,-21.38 l -2.828,-3.11 c -0.933,-1.04 -1.925,-2.03 -2.78,-3.16 l -5.303,-6.59 c -3.8,-4.89 -7.601,-9.88 -11.568,-14.71 -7.886,-9.71 -16.136,-19.2 -24.896,-28.32 -8.75,-9.11 -18.011,-17.86 -27.949,-26 -4.93,-4.1 -10.145,-7.95 -15.458,-11.7 l -4.076,-2.72 -2.042,-1.35 -2.102,-1.3 -4.213,-2.56 -4.331,-2.43 c -5.843,-3.15 -11.883,-6.07 -18.266,-8.48 -6.384,-2.4 -13.062,-4.35 -20.035,-5.58 -6.963,-1.22 -14.24,-1.72 -21.625,-1.17 -7.385,0.53 -14.8683,2.32 -21.949,5.29 -0.8936,0.34 -1.7578,0.77 -2.6221,1.19 -0.8642,0.44 -1.7382,0.83 -2.5828,1.29 -1.6793,0.96 -3.3881,1.87 -4.9791,2.98 -3.2604,2.09 -6.2656,4.57 -9.0841,7.22 -2.8185,2.66 -5.3032,5.64 -7.611,8.73 -2.2195,3.15 -4.2229,6.45 -5.8826,9.91 -6.6486,13.82 -8.3672,29.82 -4.6648,44.79 0.874,3.75 2.2293,7.38 3.7515,10.91 1.6008,3.52 3.4863,6.9 5.6665,10.09 4.3604,6.36 9.8698,11.84 15.9291,16.3 6.4228,4.58 13.5034,7.87 20.6725,9.89 7.1789,2.02 14.4459,2.97 21.5859,3.09 14.299,0.17 28.087,-2.82 40.864,-7.84 12.767,-5.06 24.571,-12.16 34.971,-20.83 10.381,-8.68 19.504,-18.8 26.958,-29.91 1.925,-2.75 3.624,-5.62 5.372,-8.46 1.63,-2.91 3.3,-5.8 4.753,-8.79 1.552,-2.95 2.858,-5.99 4.243,-9 l 1.875,-4.6 c 0.305,-0.76 0.629,-1.53 0.923,-2.31 l 0.845,-2.32 c 2.327,-6.19 4.115,-12.52 5.775,-18.86 l 1.099,-4.78 0.541,-2.4 0.461,-2.41 0.913,-4.81 c 0.275,-1.61 0.501,-3.21 0.747,-4.82 1.915,-12.86 2.701,-25.8 2.494,-38.63 -0.393,-25.68 -4.291,-50.94 -10.39,-75.36 -3.054,-12.23 -6.57,-24.3 -10.587,-36.16 -0.962,-2.99 -2.062,-5.91 -3.093,-8.87 l -1.571,-4.42 -1.66,-4.38 c -1.12,-2.91 -2.21,-5.84 -3.349,-8.74 l -3.526,-8.67 c -1.149,-2.91 -2.416,-5.75 -3.643,-8.6 -1.247,-2.85 -2.445,-5.74 -3.742,-8.57 l -7.719,-16.8 c -5.048,-11.01 -10.243,-21.96 -15.045,-33.06 l -7.336,-16.6 -7.042,-16.71 -3.515,-8.36 c -1.189,-2.78 -2.249,-5.61 -3.388,-8.4 l -6.708,-16.83 c -8.613,-22.54 -16.98,-45.18 -24.178,-68.149 l -2.77,-8.591 c -0.923,-2.867 -1.718,-5.763 -2.593,-8.64 l -5.106,-17.299 -4.645,-17.418 c -0.747,-2.906 -1.601,-5.792 -2.269,-8.718 l -2.082,-8.768 -2.082,-8.757 -1.041,-4.379 -0.923,-4.409 -3.663,-17.623 c -0.324,-1.463 -0.599,-2.936 -0.855,-4.418 l -0.785,-4.428 -1.581,-8.856 -1.562,-8.856 -1.316,-8.895 -1.3158,-8.895 c -0.442,-2.965 -0.9035,-5.93 -1.2276,-8.915 l -2.1213,-17.869 c -0.3928,-2.975 -0.6089,-5.969 -0.8839,-8.954 l -0.8052,-8.964 -0.8053,-8.964 -0.55,-8.983 c -3.2212,-47.922 -2.1016,-96.139 1.4437,-144.247 3.8202,-48.118 10.0854,-96.139 17.8444,-144.002 7.827,-47.863 17.019,-95.578 26.879,-143.206 2.485,-11.899 4.92,-23.809 7.513,-35.698 l 3.84,-17.84 0.962,-4.457 0.953,-4.536 c 0.618,-3.112 1.306,-6.195 1.856,-9.317 4.615,-24.928 6.56,-50.563 4.743,-76.238 -0.167,-3.21 -0.56,-6.411 -0.864,-9.621 -0.324,-3.201 -0.825,-6.402 -1.228,-9.602 -0.54,-3.191 -1.031,-6.382 -1.65,-9.563 -0.667,-3.171 -1.237,-6.362 -2.052,-9.504 -3.015,-12.616 -7.061,-25.075 -12.472,-37.014 C 130.226,86.8506 114.278,64.9563 94.2434,47.6765 89.1956,43.4253 84.0103,39.2919 78.5205,35.6298 75.8296,33.7152 72.9915,32.0265 70.2024,30.2691 68.8079,29.3953 67.3544,28.6197 65.9206,27.7949 64.4868,26.9899 63.0726,26.1357 61.5995,25.4091 49.9522,19.2827 37.7451,14.2755 25.1943,10.6722 12.6631,7.02974 -0.143033,4.55559 -12.9885,3.13197 -25.8437,1.75744 -38.7284,1.41381 -51.5248,1.93417 c -25.6024,1.0309 -50.7732,5.48829 -75.1082,12.14493 -24.395,6.6174 -47.896,15.6696 -70.66,26.0277 l 1.699,3.6916 c 22.597,-10.2795 45.892,-19.2532 70.021,-25.8117 24.091,-6.5977 48.9564,-10.98641 74.1956,-12.00749 12.6097,-0.51054 25.298,-0.16691 37.9372,1.17817 12.629354,1.39416 25.1998,3.82902 37.4855,7.40282 12.3053,3.5247 24.2472,8.4337 35.6392,14.4227 1.4436,0.7069 2.8185,1.5513 4.2229,2.3367 1.3945,0.8051 2.8185,1.5611 4.1836,2.4251 2.7203,1.7181 5.4995,3.3676 8.1216,5.2428 5.372,3.5738 10.4296,7.609 15.3596,11.7621 19.5628,16.8772 35.1478,38.2609 45.5288,61.7064 5.303,11.693 9.261,23.907 12.227,36.297 0.805,3.083 1.355,6.225 2.013,9.337 0.609,3.123 1.09,6.264 1.62,9.396 0.403,3.152 0.894,6.284 1.208,9.445 0.295,3.152 0.688,6.303 0.845,9.465 1.787,25.272 -0.118,50.573 -4.685,75.206 -0.54,3.083 -1.227,6.146 -1.836,9.21 -0.629,3.082 -1.277,5.979 -1.915,8.983 l -3.84,17.849 c -2.593,11.9 -5.028,23.819 -7.523,35.728 -9.86,47.667 -19.062,95.432 -26.908,143.373 -7.769,47.942 -14.0538,96.08 -17.8838,144.345 -3.5551,48.266 -4.6747,96.679 -1.4437,144.827 l 0.55,9.032 0.8053,9.003 0.8053,9.004 c 0.2848,3.004 0.491,6.008 0.8838,8.993 l 2.1311,17.957 c 0.3143,2.995 0.7856,5.979 1.2276,8.954 l 1.3258,8.945 1.3258,8.944 1.5713,8.905 1.5815,8.905 0.795,4.447 c 0.255,1.483 0.53,2.965 0.854,4.438 l 3.683,17.712 0.923,4.428 1.051,4.398 2.092,8.807 2.092,8.807 c 0.668,2.945 1.522,5.842 2.278,8.758 l 4.665,17.495 5.126,17.378 c 0.874,2.887 1.67,5.803 2.603,8.68 l 2.789,8.62 c 7.228,23.063 15.625,45.773 24.267,68.373 l 6.727,16.88 c 1.139,2.8 2.21,5.63 3.398,8.42 l 3.526,8.38 7.051,16.75 7.355,16.64 c 4.822,11.12 10.027,22.09 15.075,33.12 l 7.69,16.75 c 1.296,2.81 2.475,5.68 3.722,8.51 1.227,2.84 2.484,5.66 3.624,8.55 l 3.506,8.61 c 1.139,2.88 2.219,5.79 3.329,8.69 l 1.65,4.35 1.551,4.38 c 1.022,2.94 2.112,5.84 3.064,8.8 3.988,11.77 7.464,23.73 10.489,35.84 6.04,24.2 9.879,49.15 10.262,74.45 0.207,12.63 -0.579,25.36 -2.455,37.98 -0.245,1.58 -0.461,3.16 -0.726,4.74 l -0.894,4.71 -0.452,2.35 -0.53,2.35 -1.08,4.68 c -1.621,6.21 -3.369,12.4 -5.647,18.45 l -0.825,2.28 c -0.285,0.76 -0.599,1.5 -0.904,2.25 l -1.826,4.49 c -1.356,2.93 -2.623,5.92 -4.145,8.78 -1.414,2.92 -3.044,5.74 -4.635,8.56 -1.699,2.77 -3.359,5.58 -5.225,8.24 -7.257,10.82 -16.115,20.64 -26.191,29.06 -10.096,8.41 -21.527,15.3 -33.862,20.18 -12.335,4.85 -25.642,7.73 -39.312,7.56 -6.826,-0.12 -13.739,-1.02 -20.5254,-2.94 -6.7763,-1.9 -13.4151,-5 -19.3958,-9.27 -5.7157,-4.22 -10.8813,-9.35 -14.9667,-15.32 -2.0427,-2.99 -3.8104,-6.16 -5.3032,-9.45 -1.424,-3.31 -2.7007,-6.71 -3.5158,-10.24 -3.4765,-14.03 -1.8659,-29.07 4.38,-42.05 1.5615,-3.24 3.4373,-6.34 5.5193,-9.28 2.1605,-2.9 4.488,-5.69 7.1298,-8.18 2.6319,-2.49 5.4406,-4.81 8.5046,-6.77 1.4928,-1.04 3.0936,-1.88 4.6551,-2.79 0.7954,-0.43 1.6204,-0.8 2.4257,-1.2 0.8151,-0.4 1.6204,-0.81 2.4649,-1.12 6.6388,-2.78 13.6805,-4.47 20.6725,-4.98 6.992,-0.53 13.926,-0.06 20.604,1.12 6.678,1.18 13.12,3.06 19.307,5.38 6.187,2.33 12.06,5.17 17.766,8.25 l 4.233,2.36 4.114,2.52 2.053,1.26 2.003,1.33 3.997,2.66 c 5.205,3.68 10.332,7.46 15.193,11.5 9.791,8.03 18.934,16.66 27.596,25.68 8.662,9.02 16.833,18.42 24.669,28.06 3.939,4.79 7.71,9.74 11.491,14.61 l 5.44,6.74 c 0.874,1.16 1.886,2.17 2.848,3.24 l 2.907,3.19 c 7.876,8.36 16.636,15.79 26.192,22.01 9.546,6.22 19.887,11.22 30.729,15.01 10.832,3.83 22.204,6.31 33.753,7.93 11.559,1.6 23.325,2.29 35.149,2.35 z" />
    <path
       inkscape:connector-curvature="0"
       id="path884"
       fill="#030404"
       d="m 399.804,1535.97 v -1.7 c -11.824,-0.06 -23.59,-0.74 -35.149,-2.35 -11.549,-1.62 -22.921,-4.1 -33.753,-7.93 -10.842,-3.79 -21.183,-8.79 -30.729,-15.01 -9.556,-6.22 -18.316,-13.65 -26.192,-22.01 l -2.907,-3.19 c -0.962,-1.07 -1.974,-2.09 -2.848,-3.24 l -5.44,-6.74 c -3.781,-4.87 -7.552,-9.82 -11.49,-14.61 -7.828,-9.64 -16.008,-19.04 -24.67,-28.06 -8.662,-9.01 -17.805,-17.65 -27.596,-25.67 -4.851,-4.05 -9.988,-7.83 -15.193,-11.51 l -3.997,-2.66 -2.003,-1.33 -2.053,-1.26 -4.114,-2.52 -4.233,-2.36 c -5.696,-3.08 -11.579,-5.92 -17.766,-8.25 -6.187,-2.32 -12.619,-4.19 -19.307,-5.38 -6.678,-1.18 -13.612,-1.65 -20.604,-1.12 -6.992,0.5 -14.0337,2.19 -20.6725,4.98 -0.8445,0.31 -1.6498,0.72 -2.4649,1.12 -0.8053,0.4 -1.6303,0.76 -2.4257,1.2 -1.5713,0.91 -3.1721,1.75 -4.6551,2.79 -3.0542,1.96 -5.8629,4.28 -8.5046,6.77 -2.6418,2.49 -4.9693,5.28 -7.1298,8.18 -2.082,2.95 -3.9578,6.04 -5.5193,9.28 -6.2459,12.97 -7.8565,28.02 -4.38,42.05 0.8151,3.52 2.0918,6.93 3.5158,10.24 1.4928,3.29 3.2703,6.46 5.3032,9.45 4.0854,5.97 9.2609,11.1 14.9667,15.32 5.9906,4.27 12.6195,7.36 19.3958,9.27 6.7864,1.92 13.6994,2.82 20.5254,2.94 13.67,0.17 26.967,-2.71 39.312,-7.56 12.345,-4.88 23.776,-11.77 33.862,-20.18 10.076,-8.42 18.934,-18.24 26.191,-29.06 1.876,-2.67 3.526,-5.47 5.225,-8.24 1.591,-2.83 3.211,-5.64 4.635,-8.56 1.522,-2.86 2.789,-5.85 4.145,-8.78 l 1.826,-4.49 c 0.295,-0.75 0.619,-1.49 0.904,-2.25 l 0.825,-2.28 c 2.278,-6.04 4.026,-12.23 5.647,-18.45 l 1.08,-4.68 0.53,-2.34 0.452,-2.36 0.894,-4.71 c 0.265,-1.57 0.481,-3.16 0.726,-4.74 1.876,-12.62 2.662,-25.34 2.455,-37.98 -0.392,-25.29 -4.222,-50.25 -10.262,-74.45 -3.025,-12.11 -6.501,-24.08 -10.489,-35.84 -0.952,-2.95 -2.052,-5.86 -3.064,-8.8 l -1.551,-4.38 -1.65,-4.35 c -1.11,-2.9 -2.19,-5.81 -3.329,-8.69 l -3.506,-8.61 c -1.14,-2.88 -2.397,-5.71 -3.624,-8.55 -1.247,-2.84 -2.426,-5.7 -3.722,-8.51 l -7.69,-16.75 c -5.057,-11.02 -10.262,-22 -15.075,-33.12 l -7.355,-16.64 -7.051,-16.75 -3.526,-8.38 c -1.188,-2.79 -2.259,-5.61 -3.398,-8.42 l -6.727,-16.88 c -8.642,-22.61 -17.039,-45.32 -24.267,-68.373 l -2.789,-8.62 c -0.923,-2.877 -1.729,-5.783 -2.603,-8.679 l -5.126,-17.378 -4.665,-17.496 c -0.756,-2.926 -1.61,-5.822 -2.278,-8.758 l -2.092,-8.807 -2.092,-8.806 -1.051,-4.399 -0.923,-4.428 -3.683,-17.712 c -0.324,-1.472 -0.599,-2.955 -0.854,-4.437 l -0.795,-4.448 -1.5815,-8.905 -1.5713,-8.905 -1.3258,-8.944 -1.3258,-8.944 c -0.4419,-2.985 -0.9133,-5.96 -1.2276,-8.954 l -2.1311,-17.958 c -0.3928,-2.984 -0.6088,-5.998 -0.8838,-8.993 l -0.8053,-9.003 -0.8053,-9.003 -0.55,-9.033 c -3.231,-48.148 -2.1114,-96.561 1.4437,-144.826 3.83,-48.266 10.1148,-96.404 17.8838,-144.345 7.846,-47.942 17.048,-95.717 26.908,-143.373 2.485,-11.91 4.93,-23.829 7.523,-35.728 l 3.84,-17.85 c 0.638,-2.994 1.286,-5.9 1.915,-8.983 0.609,-3.073 1.296,-6.127 1.836,-9.209 4.567,-24.634 6.472,-49.935 4.685,-75.207 -0.167,-3.161 -0.55,-6.313 -0.845,-9.464 -0.314,-3.152 -0.805,-6.294 -1.208,-9.445 -0.53,-3.132 -1.011,-6.274 -1.62,-9.396 -0.658,-3.113 -1.218,-6.245 -2.013,-9.337 -2.966,-12.391 -6.924,-24.604 -12.227,-36.298 C 126.711,88.9909 111.135,67.617 91.5722,50.7299 86.6324,46.5769 81.5747,42.5417 76.2127,38.9679 73.5807,37.0926 70.8113,35.453 68.091,33.725 66.7259,32.8709 65.3019,32.1149 63.9074,31.3 62.503,30.5145 61.1281,29.68 59.6845,28.9633 48.2925,22.9743 36.3506,18.0652 24.0453,14.5406 11.7596,10.9668 -0.81083,8.5319 -13.4402,7.13774 -26.0794,5.79267 -38.7677,5.44903 -51.3774,5.95957 -76.6165,6.98065 -101.482,11.3693 -125.573,17.9671 c -24.129,6.5584 -47.424,15.5321 -70.021,25.8116 l 0.707,1.5415 c 22.519,-10.2501 45.735,-19.1943 69.766,-25.7233 23.992,-6.5683 48.7303,-10.92754 73.8123,-11.94862 12.5312,-0.50072 25.1409,-0.16691 37.6819,1.16835 12.541,1.38437 25.0034,3.79957 37.1909,7.34387 12.1972,3.4953 24.0311,8.365 35.3151,14.2951 1.4338,0.7069 2.7989,1.5317 4.1836,2.3171 1.3749,0.8051 2.789,1.5512 4.1443,2.3956 2.7007,1.7083 5.4406,3.3381 8.0431,5.1938 5.313,3.5443 10.3216,7.5304 15.2123,11.6442 19.3665,16.7103 34.7945,37.8682 45.0865,61.1077 5.254,11.585 9.182,23.701 12.129,35.993 0.795,3.063 1.345,6.175 2.003,9.258 0.609,3.103 1.08,6.215 1.611,9.327 0.392,3.123 0.884,6.245 1.198,9.377 0.294,3.132 0.677,6.264 0.844,9.396 1.778,25.104 -0.117,50.268 -4.664,74.784 -0.541,3.073 -1.218,6.116 -1.827,9.17 -0.619,3.063 -1.277,5.979 -1.905,8.974 l -3.84,17.859 c -2.593,11.899 -5.038,23.818 -7.523,35.737 -9.86,47.677 -19.072,95.471 -26.918,143.452 -7.7684,47.981 -14.0635,96.158 -17.9034,144.492 -3.5649,48.325 -4.6844,96.826 -1.4436,145.062 l 0.5598,9.043 0.8053,9.023 0.8053,9.022 c 0.2848,3.005 0.491,6.019 0.8937,9.013 l 2.131,17.997 c 0.3143,3.004 0.7857,5.989 1.2276,8.973 l 1.3258,8.964 1.3258,8.964 1.5713,8.925 1.591,8.915 0.7954,4.457 c 0.255,1.492 0.53,2.975 0.854,4.448 l 3.693,17.741 0.923,4.438 1.051,4.408 2.092,8.817 2.092,8.816 c 0.667,2.946 1.532,5.852 2.278,8.778 l 4.675,17.525 5.136,17.407 c 0.874,2.897 1.679,5.813 2.602,8.689 l 2.789,8.64 c 7.238,23.092 15.645,45.842 24.297,68.472 l 6.737,16.9 c 1.139,2.8 2.209,5.64 3.398,8.43 l 3.535,8.38 7.061,16.77 7.366,16.66 c 4.822,11.13 10.026,22.11 15.094,33.15 l 7.68,16.73 c 1.286,2.8 2.465,5.66 3.712,8.48 1.218,2.84 2.475,5.66 3.614,8.53 l 3.496,8.58 c 1.129,2.87 2.21,5.77 3.319,8.66 l 1.641,4.34 1.551,4.37 c 1.012,2.93 2.102,5.83 3.054,8.77 3.978,11.73 7.435,23.65 10.45,35.71 6.02,24.09 9.83,48.93 10.213,74.07 0.206,12.56 -0.569,25.18 -2.435,37.71 -0.246,1.56 -0.462,3.13 -0.727,4.69 l -0.884,4.68 -0.442,2.33 -0.53,2.33 -1.071,4.64 c -1.61,6.16 -3.339,12.3 -5.597,18.27 l -0.816,2.25 c -0.284,0.75 -0.599,1.49 -0.893,2.23 l -1.817,4.44 c -1.346,2.91 -2.593,5.85 -4.095,8.7 -1.405,2.88 -3.015,5.66 -4.587,8.47 -1.679,2.74 -3.319,5.51 -5.165,8.15 -7.179,10.69 -15.929,20.39 -25.868,28.71 -9.958,8.29 -21.242,15.09 -33.4,19.91 -12.158,4.78 -25.259,7.61 -38.664,7.44 -6.698,-0.12 -13.464,-1 -20.0832,-2.87 -6.6191,-1.85 -13.0615,-4.88 -18.8655,-9.01 -5.5683,-4.1 -10.5965,-9.1 -14.5739,-14.9 -1.9837,-2.9 -3.7024,-5.98 -5.1558,-9.18 -1.3847,-3.22 -2.6319,-6.53 -3.4176,-9.95 -3.3783,-13.64 -1.807,-28.28 4.2622,-40.9 1.5222,-3.15 3.339,-6.17 5.362,-9.03 2.1017,-2.82 4.3604,-5.53 6.9236,-7.95 2.5632,-2.41 5.2933,-4.67 8.2592,-6.56 1.4436,-1.02 3.0051,-1.84 4.5273,-2.71 0.766,-0.43 1.5713,-0.79 2.357,-1.17 0.7955,-0.38 1.5713,-0.78 2.3962,-1.09 6.462,-2.71 13.3165,-4.35 20.1425,-4.84 6.835,-0.52 13.621,-0.06 20.171,1.1 6.561,1.16 12.895,3 18.994,5.29 6.098,2.3 11.912,5.1 17.549,8.15 l 4.184,2.34 4.085,2.49 2.033,1.26 1.984,1.31 3.957,2.64 c 5.166,3.65 10.253,7.41 15.075,11.42 9.723,7.96 18.826,16.56 27.449,25.54 8.622,8.98 16.764,18.35 24.571,27.95 3.929,4.78 7.68,9.71 11.461,14.57 l 5.49,6.81 c 0.884,1.17 1.905,2.2 2.877,3.28 l 2.937,3.22 c 7.964,8.46 16.822,15.98 26.506,22.27 9.663,6.3 20.132,11.36 31.092,15.2 10.95,3.88 22.43,6.38 34.078,8.01 11.657,1.62 23.491,2.31 35.383,2.36 z" />
    <path
       inkscape:connector-curvature="0"
       id="path886"
       fill="#e3217b"
       d="m 399.804,1540.03 v -4.06 c -11.893,-0.06 -23.737,-0.75 -35.384,-2.36 -11.638,-1.63 -23.118,-4.13 -34.078,-8.01 -10.96,-3.83 -21.429,-8.9 -31.092,-15.2 -9.674,-6.29 -18.542,-13.81 -26.506,-22.27 l -2.937,-3.22 c -0.972,-1.08 -1.993,-2.11 -2.877,-3.28 l -5.49,-6.81 c -3.771,-4.86 -7.532,-9.79 -11.46,-14.57 -7.808,-9.61 -15.949,-18.98 -24.572,-27.95 -8.622,-8.98 -17.716,-17.57 -27.449,-25.54 -4.821,-4.02 -9.918,-7.76 -15.074,-11.42 l -3.958,-2.64 -1.984,-1.31 -2.033,-1.26 -4.085,-2.48 -4.184,-2.35 c -5.637,-3.04 -11.451,-5.85 -17.549,-8.15 -6.099,-2.29 -12.433,-4.13 -18.993,-5.29 -6.561,-1.16 -13.347,-1.62 -20.172,-1.1 -6.825,0.49 -13.6802,2.14 -20.1422,4.84 -0.8151,0.3 -1.6007,0.71 -2.3962,1.09 -0.7857,0.39 -1.591,0.74 -2.357,1.17 -1.5222,0.87 -3.0837,1.7 -4.5273,2.71 -2.9659,1.89 -5.696,4.15 -8.2592,6.56 -2.5632,2.43 -4.8219,5.14 -6.9236,7.95 -2.023,2.86 -3.8497,5.88 -5.362,9.03 -6.079,12.62 -7.6504,27.27 -4.2622,40.9 0.7856,3.42 2.0329,6.73 3.4176,9.95 1.4534,3.2 3.172,6.28 5.1558,9.18 3.9676,5.8 9.0056,10.8 14.5739,14.9 5.804,4.14 12.2562,7.16 18.8655,9.01 6.6189,1.87 13.3859,2.75 20.0829,2.87 13.406,0.17 26.506,-2.66 38.664,-7.44 12.158,-4.81 23.442,-11.61 33.4,-19.91 9.939,-8.32 18.699,-18.01 25.868,-28.71 1.856,-2.64 3.486,-5.41 5.166,-8.15 1.571,-2.8 3.182,-5.59 4.586,-8.47 1.503,-2.84 2.76,-5.78 4.095,-8.7 l 1.817,-4.44 c 0.295,-0.74 0.609,-1.48 0.894,-2.23 l 0.815,-2.25 c 2.259,-5.97 3.987,-12.11 5.598,-18.27 l 1.07,-4.64 0.53,-2.33 0.442,-2.33 0.884,-4.68 c 0.265,-1.56 0.481,-3.13 0.727,-4.69 1.856,-12.53 2.642,-25.15 2.435,-37.71 -0.392,-25.14 -4.203,-49.97 -10.213,-74.07 -3.015,-12.06 -6.482,-23.97 -10.449,-35.71 -0.953,-2.94 -2.043,-5.84 -3.055,-8.76 l -1.551,-4.38 -1.64,-4.34 c -1.11,-2.89 -2.18,-5.79 -3.32,-8.66 l -3.496,-8.58 c -1.139,-2.88 -2.396,-5.7 -3.614,-8.53 -1.237,-2.82 -2.416,-5.68 -3.712,-8.48 l -7.68,-16.73 c -5.057,-11.03 -10.262,-22.02 -15.094,-33.15 l -7.366,-16.66 -7.061,-16.77 -3.535,-8.38 c -1.188,-2.79 -2.259,-5.63 -3.398,-8.43 l -6.737,-16.9 c -8.652,-22.64 -17.059,-45.38 -24.296,-68.471 l -2.789,-8.64 c -0.924,-2.877 -1.729,-5.793 -2.603,-8.689 l -5.136,-17.408 -4.675,-17.525 c -0.756,-2.926 -1.61,-5.832 -2.278,-8.777 l -2.092,-8.817 -2.092,-8.817 -1.051,-4.408 -0.923,-4.438 -3.692,-17.741 c -0.324,-1.473 -0.599,-2.955 -0.855,-4.447 l -0.7952,-4.458 -1.5909,-8.915 -1.5713,-8.924 -1.3258,-8.964 -1.3258,-8.964 c -0.4419,-2.985 -0.9133,-5.969 -1.2276,-8.974 l -2.1311,-17.996 c -0.3928,-2.995 -0.6089,-6.009 -0.8937,-9.013 l -0.8052,-9.023 -0.8053,-9.023 -0.5598,-9.042 C 84.1085,717.73 85.2378,669.228 88.7929,620.904 92.623,572.579 98.918,524.392 106.696,476.412 c 7.847,-47.972 17.059,-95.766 26.918,-143.452 2.495,-11.919 4.93,-23.838 7.523,-35.738 l 3.84,-17.859 c 0.638,-2.994 1.286,-5.91 1.905,-8.974 0.609,-3.053 1.287,-6.097 1.827,-9.17 4.537,-24.515 6.442,-49.679 4.665,-74.784 -0.157,-3.142 -0.55,-6.264 -0.845,-9.396 -0.314,-3.132 -0.805,-6.244 -1.198,-9.376 -0.53,-3.112 -1.002,-6.225 -1.611,-9.327 -0.658,-3.093 -1.208,-6.195 -2.003,-9.259 -2.946,-12.292 -6.875,-24.407 -12.129,-35.993 C 125.296,89.8451 109.868,68.6871 90.5017,51.9768 85.611,47.863 80.6123,43.8671 75.2895,40.3326 72.687,38.477 69.9372,36.8472 67.2464,35.1388 65.8911,34.2945 64.4868,33.5385 63.1021,32.7432 61.7075,31.9676 60.3424,31.1331 58.9184,30.4262 47.6345,24.4961 35.8006,19.6263 23.6033,16.1311 11.4159,12.5868 -1.04654,10.1715 -13.5875,8.78716 -26.1285,7.45191 -38.7383,7.10827 -51.2694,7.61881 c -25.082,1.01126 -49.8296,5.38029 -73.8126,11.94859 -24.021,6.529 -47.237,15.4733 -69.766,25.7233 l 1.699,3.6916 c 22.352,-10.1715 45.372,-19.0274 69.138,-25.4975 23.736,-6.4996 48.1899,-10.8097 72.8987,-11.8013 12.3544,-0.5007 24.7579,-0.1669 37.0828,1.1487 12.32498,1.3647 24.5517,3.7309 36.4838,7.2065 11.9518,3.4265 23.5303,8.1882 34.5491,13.9809 1.3946,0.6872 2.7302,1.5021 4.0854,2.2581 1.3455,0.7855 2.7204,1.512 4.0461,2.3367 2.632,1.6691 5.3228,3.2596 7.8566,5.0661 5.1951,3.456 10.076,7.3538 14.8488,11.3694 18.8947,16.3078 33.9597,36.9551 44.0357,59.6941 5.146,11.33 8.996,23.21 11.883,35.266 0.786,3.004 1.326,6.058 1.964,9.092 0.599,3.043 1.061,6.107 1.581,9.16 0.393,3.073 0.874,6.136 1.179,9.219 0.285,3.083 0.668,6.156 0.825,9.249 1.748,24.702 -0.118,49.522 -4.606,73.753 -1.139,6.058 -2.436,12.096 -3.712,18.016 l -3.84,17.869 c -2.593,11.909 -5.038,23.838 -7.533,35.767 -9.869,47.716 -19.091,95.569 -26.947,143.619 -7.7883,48.059 -14.0931,96.354 -17.9428,144.826 -3.5747,48.482 -4.7041,97.169 -1.4535,145.641 l 0.5598,9.092 0.8151,9.071 0.8053,9.072 c 0.2848,3.024 0.5009,6.048 0.8937,9.062 l 2.1409,18.085 c 0.3241,3.014 0.7955,6.019 1.2374,9.013 l 1.3356,9.003 1.3356,9.004 1.5811,8.964 1.6008,8.963 0.7955,4.477 c 0.2553,1.493 0.5401,2.985 0.8642,4.468 l 3.7023,17.829 0.933,4.458 1.051,4.428 2.101,8.855 2.102,8.856 c 0.678,2.956 1.532,5.872 2.288,8.817 l 4.695,17.604 5.155,17.476 c 0.874,2.906 1.68,5.832 2.613,8.728 l 2.799,8.67 c 7.267,23.194 15.703,45.994 24.384,68.704 l 6.757,16.95 c 1.139,2.82 2.219,5.66 3.408,8.46 l 3.535,8.41 7.081,16.81 7.375,16.69 c 4.832,11.17 10.057,22.16 15.124,33.23 l 7.65,16.67 c 1.287,2.79 2.456,5.62 3.683,8.42 1.208,2.82 2.455,5.62 3.585,8.48 l 3.466,8.52 c 1.13,2.86 2.19,5.73 3.29,8.6 l 1.63,4.3 1.542,4.34 c 1.012,2.9 2.092,5.77 3.035,8.7 3.948,11.63 7.375,23.44 10.361,35.38 5.961,23.86 9.712,48.4 10.095,73.15 0.207,12.36 -0.559,24.77 -2.386,37.05 -0.236,1.53 -0.452,3.07 -0.707,4.61 l -0.864,4.57 -0.432,2.29 -0.521,2.28 -1.051,4.54 c -1.571,6.02 -3.26,12.02 -5.47,17.86 l -0.795,2.2 c -0.275,0.73 -0.58,1.44 -0.874,2.17 l -1.768,4.33 c -1.306,2.84 -2.534,5.71 -3.997,8.47 -1.365,2.81 -2.937,5.52 -4.459,8.25 -1.64,2.66 -3.231,5.36 -5.028,7.92 -6.973,10.4 -15.467,19.81 -25.102,27.87 -9.653,8.04 -20.564,14.61 -32.3,19.25 -11.726,4.61 -24.326,7.31 -37.112,7.16 -6.383,-0.11 -12.796,-0.96 -19.0324,-2.71 -6.2263,-1.75 -12.2268,-4.58 -17.5987,-8.4 -5.2148,-3.85 -9.909,-8.52 -13.6114,-13.91 -1.8463,-2.7 -3.4471,-5.57 -4.8023,-8.54 -1.2865,-3.01 -2.4454,-6.08 -3.1819,-9.27 -3.1525,-12.69 -1.6892,-26.4 3.9773,-38.17 1.4142,-2.95 3.123,-5.75 4.9987,-8.42 1.9544,-2.62 4.056,-5.14 6.4424,-7.39 2.3864,-2.24 4.9103,-4.35 7.6798,-6.11 1.3454,-0.94 2.7989,-1.69 4.213,-2.52 0.717,-0.39 1.4633,-0.73 2.1999,-1.09 0.7365,-0.35 1.4632,-0.73 2.2292,-1.01 6.0201,-2.52 12.4334,-4.07 18.8754,-4.54 6.442,-0.49 12.885,-0.06 19.15,1.05 6.276,1.11 12.364,2.89 18.267,5.1 5.892,2.22 11.549,4.95 17.039,7.91 l 4.085,2.29 3.987,2.44 1.984,1.22 1.944,1.29 3.88,2.58 c 5.067,3.58 10.066,7.27 14.819,11.22 9.575,7.85 18.561,16.33 27.085,25.21 8.525,8.88 16.607,18.16 24.346,27.69 3.899,4.75 7.621,9.63 11.382,14.47 l 5.617,6.98 c 0.904,1.18 1.955,2.24 2.947,3.35 l 3.015,3.3 c 8.17,8.67 17.284,16.42 27.252,22.89 9.948,6.49 20.731,11.69 31.976,15.63 11.245,3.98 22.98,6.54 34.844,8.2 11.873,1.65 23.903,2.34 35.953,2.39 z" />
    <path
       inkscape:connector-curvature="0"
       id="path888"
       fill="#030404"
       d="m 399.804,1541.72 v -1.7 c -12.05,-0.06 -24.081,-0.75 -35.954,-2.39 -11.863,-1.66 -23.599,-4.23 -34.844,-8.2 -11.244,-3.93 -22.018,-9.14 -31.976,-15.63 -9.958,-6.48 -19.081,-14.22 -27.252,-22.89 l -3.015,-3.3 c -0.992,-1.11 -2.043,-2.17 -2.946,-3.35 l -5.618,-6.98 c -3.761,-4.84 -7.473,-9.73 -11.382,-14.47 -7.738,-9.53 -15.821,-18.81 -24.345,-27.69 -8.534,-8.88 -17.51,-17.37 -27.086,-25.21 -4.753,-3.95 -9.751,-7.64 -14.819,-11.22 l -3.879,-2.58 -1.945,-1.29 -1.983,-1.22 -3.988,-2.44 -4.085,-2.29 c -5.5,-2.96 -11.146,-5.69 -17.039,-7.91 -5.892,-2.21 -11.991,-3.99 -18.266,-5.1 -6.266,-1.11 -12.708,-1.54 -19.151,-1.05 -6.442,0.46 -12.845,2.02 -18.8749,4.54 -0.766,0.28 -1.4927,0.66 -2.2293,1.01 -0.7267,0.36 -1.4829,0.7 -2.1998,1.09 -1.4142,0.82 -2.8676,1.58 -4.2131,2.52 -2.7596,1.76 -5.2933,3.87 -7.6797,6.11 -2.3865,2.25 -4.4881,4.77 -6.4424,7.39 -1.8757,2.67 -3.5845,5.48 -4.9987,8.42 -5.6665,11.77 -7.1298,25.47 -3.9774,38.17 0.7366,3.19 1.8954,6.26 3.1819,9.27 1.3553,2.97 2.956,5.84 4.8023,8.54 3.7024,5.4 8.3869,10.06 13.6115,13.91 5.3719,3.82 11.3723,6.65 17.5986,8.4 6.226,1.75 12.649,2.6 19.032,2.71 12.787,0.15 25.387,-2.55 37.113,-7.16 11.735,-4.64 22.646,-11.21 32.3,-19.25 9.634,-8.06 18.129,-17.46 25.102,-27.87 1.797,-2.56 3.388,-5.26 5.028,-7.92 1.522,-2.73 3.093,-5.44 4.458,-8.25 1.464,-2.76 2.681,-5.63 3.997,-8.47 l 1.768,-4.33 c 0.285,-0.73 0.599,-1.44 0.874,-2.17 l 0.796,-2.2 c 2.199,-5.84 3.889,-11.84 5.47,-17.86 l 1.05,-4.54 0.521,-2.28 0.432,-2.29 0.864,-4.58 c 0.256,-1.53 0.472,-3.06 0.707,-4.6 1.827,-12.28 2.593,-24.69 2.387,-37.05 -0.383,-24.75 -4.145,-49.29 -10.096,-73.15 -2.985,-11.94 -6.413,-23.75 -10.361,-35.38 -0.942,-2.93 -2.023,-5.79 -3.034,-8.7 l -1.542,-4.34 -1.63,-4.3 c -1.1,-2.87 -2.171,-5.74 -3.29,-8.6 l -3.467,-8.52 c -1.129,-2.86 -2.377,-5.66 -3.584,-8.48 -1.228,-2.8 -2.407,-5.64 -3.683,-8.42 l -7.651,-16.67 c -5.067,-11.07 -10.282,-22.06 -15.123,-33.23 l -7.376,-16.69 -7.08,-16.82 -3.536,-8.4 c -1.188,-2.8 -2.268,-5.63 -3.408,-8.46 l -6.756,-16.95 c -8.682,-22.71 -17.108,-45.52 -24.385,-68.705 l -2.799,-8.67 c -0.933,-2.886 -1.738,-5.822 -2.612,-8.728 l -5.156,-17.476 -4.694,-17.604 c -0.756,-2.935 -1.621,-5.851 -2.288,-8.816 l -2.102,-8.856 -2.102,-8.856 -1.05,-4.428 -0.933,-4.458 -3.7028,-17.829 c -0.3241,-1.483 -0.6089,-2.975 -0.8643,-4.467 l -0.7954,-4.477 -1.6008,-8.964 -1.5811,-8.964 -1.3356,-9.003 -1.3356,-9.003 c -0.442,-3.005 -0.9134,-5.999 -1.2375,-9.013 L 86.377,802.558 c -0.3928,-3.005 -0.6088,-6.038 -0.8936,-9.062 l -0.8053,-9.072 -0.8151,-9.072 -0.5598,-9.092 c -3.2507,-48.462 -2.1213,-97.159 1.4534,-145.641 3.8497,-48.481 10.1546,-96.767 17.9424,-144.826 7.866,-48.05 17.078,-95.903 26.948,-143.619 2.494,-11.929 4.93,-23.857 7.532,-35.767 l 3.84,-17.869 c 1.277,-5.93 2.573,-11.958 3.712,-18.016 4.488,-24.231 6.354,-49.051 4.606,-73.753 -0.157,-3.093 -0.54,-6.166 -0.825,-9.249 -0.304,-3.083 -0.795,-6.146 -1.178,-9.219 -0.521,-3.053 -0.982,-6.116 -1.581,-9.16 -0.648,-3.034 -1.189,-6.087 -1.964,-9.092 -2.888,-12.066 -6.737,-23.936 -11.883,-35.266 C 121.83,92.0443 106.765,71.3969 87.8698,55.0891 83.0969,51.0735 78.2161,47.1758 73.0209,43.7198 70.4774,41.9035 67.7963,40.3228 65.1644,38.6537 63.8386,37.829 62.4637,37.0926 61.1183,36.317 59.763,35.561 58.4274,34.7461 57.0329,34.0588 46.0043,28.2662 34.4355,23.5044 22.4838,20.0779 10.5517,16.6023 -1.68488,14.2362 -14,12.8715 -26.3249,11.5558 -38.7284,11.222 -51.0828,11.7227 c -24.7186,1.0015 -49.1622,5.3116 -72.8992,11.8014 -23.775,6.4602 -46.795,15.326 -69.137,25.4975 l 0.707,1.5414 c 22.273,-10.1322 45.214,-18.9685 68.882,-25.3993 23.6385,-6.4701 47.9544,-10.7508 72.5257,-11.7424 12.2759,-0.4909 24.6008,-0.1571 36.8275,1.1389 12.22676,1.3549 24.3651,3.7014 36.199,7.1475 11.8535,3.3971 23.3143,8.1097 34.2348,13.8533 1.3848,0.6774 2.7007,1.4825 4.0462,2.2385 1.3356,0.7756 2.7007,1.5022 4.0068,2.3171 2.6025,1.6494 5.2639,3.2203 7.778,5.017 5.1362,3.4167 9.9778,7.2752 14.6917,11.2515 18.6983,16.1409 33.6063,36.5723 43.5943,59.1049 5.097,11.232 8.917,23.004 11.775,34.972 0.775,2.984 1.306,6.008 1.954,9.023 0.589,3.014 1.051,6.057 1.571,9.091 0.383,3.053 0.864,6.087 1.169,9.151 0.285,3.063 0.668,6.116 0.825,9.179 1.738,24.536 -0.118,49.218 -4.577,73.322 -1.139,6.028 -2.416,12.027 -3.702,17.967 l -3.84,17.869 c -2.593,11.909 -5.038,23.848 -7.532,35.777 -9.88,47.735 -19.102,95.598 -26.968,143.687 -7.7877,48.089 -14.1024,96.433 -17.9521,144.973 -3.5747,48.541 -4.7139,97.317 -1.4534,145.877 l 0.5598,9.101 0.8151,9.082 0.8151,9.082 c 0.2848,3.024 0.5009,6.058 0.8937,9.072 l 2.1507,18.114 c 0.3241,3.024 0.7955,6.028 1.2374,9.033 l 1.3356,9.022 1.3356,9.023 1.5812,8.984 1.6007,8.983 0.7955,4.487 c 0.2553,1.502 0.5401,2.995 0.8642,4.477 l 3.7122,17.859 0.9327,4.467 1.051,4.438 2.112,8.876 2.111,8.875 c 0.678,2.965 1.542,5.881 2.298,8.827 l 4.704,17.633 5.166,17.506 c 0.874,2.916 1.689,5.841 2.622,8.738 l 2.799,8.689 c 7.287,23.224 15.723,46.064 24.414,68.804 l 6.757,16.97 c 1.139,2.81 2.219,5.66 3.417,8.46 l 3.545,8.41 7.091,16.83 7.385,16.71 c 4.842,11.17 10.056,22.18 15.134,33.26 l 7.64,16.65 c 1.277,2.78 2.446,5.6 3.673,8.4 1.208,2.81 2.455,5.61 3.575,8.45 l 3.457,8.5 c 1.119,2.84 2.19,5.71 3.28,8.57 l 1.63,4.29 1.532,4.33 c 1.002,2.89 2.082,5.75 3.025,8.67 3.928,11.59 7.346,23.37 10.321,35.25 5.932,23.75 9.674,48.17 10.047,72.76 0.196,12.28 -0.56,24.6 -2.367,36.78 -0.236,1.53 -0.442,3.05 -0.707,4.57 l -0.864,4.54 -0.432,2.26 -0.511,2.26 -1.041,4.51 c -1.561,5.96 -3.231,11.91 -5.411,17.68 l -0.786,2.18 c -0.275,0.73 -0.579,1.43 -0.864,2.15 l -1.748,4.29 c -1.296,2.8 -2.504,5.65 -3.948,8.39 -1.345,2.77 -2.897,5.45 -4.409,8.15 -1.621,2.63 -3.192,5.3 -4.97,7.83 -6.894,10.28 -15.281,19.56 -24.787,27.51 -9.516,7.93 -20.29,14.41 -31.839,18.98 -11.549,4.54 -23.942,7.2 -36.464,7.04 -6.256,-0.11 -12.521,-0.93 -18.5903,-2.64 -6.0594,-1.7 -11.883,-4.45 -17.0683,-8.14 -5.0773,-3.74 -9.6243,-8.28 -13.2088,-13.5 -1.7874,-2.62 -3.3391,-5.39 -4.655,-8.28 -1.2473,-2.9 -2.3766,-5.89 -3.0837,-8.97 -3.0542,-12.31 -1.6401,-25.62 3.8595,-37.03 1.3749,-2.85 3.0248,-5.56 4.8416,-8.16 1.8954,-2.53 3.9381,-4.97 6.2459,-7.15 2.3079,-2.17 4.763,-4.21 7.4343,-5.91 1.2963,-0.92 2.7105,-1.65 4.0756,-2.45 0.6972,-0.38 1.4239,-0.7 2.131,-1.06 0.7169,-0.34 1.4142,-0.7 2.1606,-0.98 5.8433,-2.44 12.0596,-3.96 18.3446,-4.4 6.276,-0.48 12.581,-0.06 18.728,1.03 6.148,1.09 12.149,2.83 17.962,5.01 5.814,2.19 11.392,4.89 16.833,7.82 l 4.046,2.25 3.948,2.41 1.974,1.21 1.925,1.27 3.85,2.57 c 5.028,3.55 9.987,7.2 14.701,11.14 9.506,7.78 18.443,16.23 26.938,25.06 8.495,8.85 16.538,18.1 24.257,27.59 3.889,4.73 7.592,9.6 11.343,14.43 l 5.676,7.04 c 0.914,1.19 1.974,2.27 2.976,3.39 l 3.044,3.34 c 8.26,8.76 17.481,16.59 27.557,23.15 10.076,6.57 20.977,11.83 32.34,15.81 11.362,4.01 23.206,6.6 35.168,8.27 11.971,1.66 24.07,2.36 36.189,2.42 z" />
    <path
       inkscape:connector-curvature="0"
       id="path890"
       fill="#24a4d9"
       d="m 399.804,1545.78 v -4.06 c -12.119,-0.06 -24.218,-0.76 -36.19,-2.42 -11.951,-1.67 -23.805,-4.26 -35.167,-8.27 -11.363,-3.98 -22.274,-9.24 -32.34,-15.81 -10.076,-6.55 -19.307,-14.39 -27.557,-23.15 l -3.044,-3.34 c -1.002,-1.12 -2.062,-2.19 -2.976,-3.39 l -5.676,-7.04 c -3.752,-4.83 -7.454,-9.7 -11.343,-14.43 -7.719,-9.5 -15.762,-18.75 -24.257,-27.59 -8.495,-8.83 -17.432,-17.28 -26.938,-25.06 -4.724,-3.94 -9.683,-7.59 -14.702,-11.14 l -3.849,-2.57 -1.925,-1.27 -1.974,-1.21 -3.948,-2.41 -4.046,-2.25 c -5.431,-2.94 -11.019,-5.64 -16.833,-7.82 -5.814,-2.18 -11.804,-3.92 -17.962,-5.01 -6.147,-1.09 -12.443,-1.5 -18.728,-1.03 -6.275,0.45 -12.5015,1.97 -18.3448,4.4 -0.7463,0.28 -1.4436,0.64 -2.1605,0.98 -0.7071,0.36 -1.4338,0.67 -2.1311,1.06 -1.3749,0.8 -2.7792,1.53 -4.0756,2.45 -2.681,1.71 -5.1264,3.74 -7.4342,5.91 -2.3079,2.18 -4.3407,4.62 -6.246,7.15 -1.8168,2.6 -3.4666,5.32 -4.8415,8.16 -5.4996,11.41 -6.9236,24.73 -3.8596,37.03 0.7071,3.09 1.8365,6.07 3.0837,8.97 1.316,2.89 2.8677,5.67 4.655,8.28 3.5846,5.23 8.1315,9.76 13.2088,13.5 5.1853,3.69 10.9992,6.43 17.0683,8.14 6.0695,1.71 12.3345,2.53 18.5905,2.64 12.521,0.16 24.915,-2.5 36.464,-7.04 11.549,-4.58 22.323,-11.05 31.839,-18.98 9.506,-7.95 17.893,-17.23 24.787,-27.51 1.778,-2.53 3.349,-5.2 4.969,-7.83 1.503,-2.7 3.064,-5.38 4.41,-8.15 1.444,-2.73 2.651,-5.58 3.948,-8.39 l 1.748,-4.29 c 0.285,-0.72 0.589,-1.42 0.864,-2.15 l 0.786,-2.18 c 2.18,-5.77 3.849,-11.72 5.411,-17.68 l 1.041,-4.51 0.511,-2.26 0.432,-2.26 0.864,-4.54 c 0.255,-1.52 0.471,-3.04 0.707,-4.56 1.807,-12.19 2.573,-24.5 2.367,-36.79 -0.383,-24.59 -4.115,-49.01 -10.047,-72.76 -2.975,-11.88 -6.393,-23.66 -10.321,-35.25 -0.943,-2.92 -2.023,-5.77 -3.025,-8.67 l -1.532,-4.33 -1.63,-4.29 c -1.1,-2.86 -2.161,-5.73 -3.28,-8.57 l -3.457,-8.5 c -1.13,-2.85 -2.367,-5.64 -3.575,-8.45 -1.228,-2.8 -2.396,-5.62 -3.673,-8.4 l -7.64,-16.65 c -5.078,-11.08 -10.292,-22.08 -15.134,-33.26 l -7.385,-16.71 -7.091,-16.83 -3.545,-8.41 c -1.198,-2.8 -2.269,-5.65 -3.418,-8.46 l -6.756,-16.97 c -8.691,-22.74 -17.137,-45.58 -24.414,-68.804 l -2.799,-8.689 c -0.933,-2.897 -1.739,-5.832 -2.622,-8.738 L 112.5,945.813 107.796,928.18 c -0.756,-2.946 -1.621,-5.862 -2.298,-8.827 l -2.112,-8.875 -2.111,-8.876 -1.051,-4.437 -0.9328,-4.468 -3.7122,-17.859 c -0.3241,-1.482 -0.6089,-2.975 -0.8643,-4.477 l -0.7954,-4.487 -1.6008,-8.983 -1.5811,-8.984 -1.3356,-9.022 -1.3356,-9.023 c -0.442,-3.005 -0.9232,-6.009 -1.2375,-9.033 L 84.678,802.715 c -0.3928,-3.014 -0.6089,-6.048 -0.8937,-9.072 l -0.8151,-9.082 -0.8151,-9.082 -0.5598,-9.101 c -3.2604,-48.56 -2.1212,-97.336 1.4535,-145.877 3.8497,-48.54 10.1644,-96.874 17.9522,-144.973 7.866,-48.089 17.088,-95.952 26.968,-143.687 2.494,-11.929 4.939,-23.868 7.532,-35.777 l 3.84,-17.869 c 1.286,-5.94 2.563,-11.939 3.702,-17.967 4.469,-24.104 6.315,-48.786 4.577,-73.322 -0.157,-3.073 -0.54,-6.126 -0.825,-9.179 -0.305,-3.064 -0.786,-6.097 -1.169,-9.151 -0.511,-3.034 -0.982,-6.077 -1.571,-9.091 -0.639,-3.005 -1.179,-6.039 -1.955,-9.023 -2.867,-11.968 -6.687,-23.74 -11.775,-34.972 C 120.337,92.9574 105.429,72.526 86.7305,56.3851 82.0068,52.4186 77.175,48.5503 72.0388,45.1336 69.5247,43.3369 66.8633,41.766 64.2608,40.1166 62.9547,39.3017 61.5896,38.5752 60.254,37.7995 58.9086,37.0436 57.5926,36.2385 56.2079,35.561 45.2874,29.8273 33.8266,25.1048 21.9731,21.7077 10.1392,18.2714 -1.98933,15.9151 -14.2259,14.5602 c -12.2365,-1.3058 -24.5615,-1.6396 -36.8275,-1.1389 -24.5615,0.9916 -48.8873,5.2723 -72.5256,11.7424 -23.668,6.4308 -46.609,15.2671 -68.882,25.3993 l 1.699,3.6916 c 22.106,-10.0537 44.841,-18.8114 68.253,-25.1735 23.3835,-6.4014 47.4146,-10.6231 71.6127,-11.6049 12.0893,-0.4909 24.208,-0.1571 36.2285,1.1192 12.01065,1.3255 23.90349,3.6327 35.4919,7.0003 11.5982,3.3185 22.8035,7.9428 33.4688,13.5391 1.3552,0.6676 2.6417,1.4531 3.9577,2.1894 1.3062,0.756 2.632,1.4629 3.9086,2.2582 2.5436,1.6101 5.1363,3.1418 7.5914,4.8992 5.0184,3.3381 9.7225,7.0985 14.3284,10.9668 9.0644,7.9133 17.373,16.7299 24.444,26.4891 3.623,4.8108 6.815,9.9359 9.899,15.1005 l 2.19,3.947 c 0.363,0.657 0.736,1.315 1.09,1.983 l 1.011,2.022 2.033,4.036 1.876,4.113 c 4.979,10.977 8.721,22.513 11.53,34.246 0.766,2.925 1.286,5.9 1.915,8.846 0.579,2.965 1.031,5.949 1.541,8.924 0.374,2.995 0.855,5.98 1.149,8.994 0.275,3.004 0.658,6.008 0.806,9.032 1.709,24.133 -0.108,48.472 -4.528,72.291 -1.119,5.949 -2.386,11.88 -3.673,17.849 l -3.839,17.888 c -2.593,11.92 -5.038,23.868 -7.533,35.807 -9.879,47.775 -19.111,95.697 -26.9969,143.864 -7.7976,48.177 -14.1319,96.619 -18.0013,145.317 -3.5943,48.698 -4.7335,97.66 -1.4534,146.446 l 0.5598,9.151 0.8151,9.13 0.8151,9.131 c 0.2848,3.044 0.5009,6.087 0.9035,9.121 l 2.1606,18.203 c 0.324,3.044 0.7954,6.058 1.2472,9.082 l 1.3454,9.062 1.3454,9.062 1.591,9.023 1.6106,9.022 0.8053,4.517 c 0.2553,1.502 0.5401,3.004 0.8642,4.496 l 3.7318,17.948 0.9428,4.487 1.0607,4.457 2.1212,8.915 2.1209,8.915 c 0.678,2.974 1.542,5.91 2.308,8.865 l 4.724,17.712 5.185,17.574 c 0.884,2.926 1.689,5.872 2.632,8.778 l 2.819,8.718 c 7.306,23.318 15.782,46.238 24.502,69.038 l 6.777,17.02 c 1.149,2.83 2.229,5.68 3.427,8.49 l 3.555,8.43 7.11,16.88 7.405,16.75 c 4.851,11.2 10.086,22.23 15.173,33.32 l 7.621,16.6 c 1.267,2.75 2.425,5.56 3.653,8.35 1.198,2.79 2.436,5.57 3.555,8.4 l 3.437,8.44 c 1.11,2.83 2.171,5.67 3.261,8.51 l 1.61,4.26 1.523,4.29 c 0.992,2.87 2.062,5.72 3.005,8.6 3.899,11.5 7.287,23.16 10.223,34.94 5.873,23.52 9.556,47.63 9.929,71.83 0.196,12.1 -0.55,24.2 -2.328,36.14 -0.235,1.49 -0.432,2.98 -0.687,4.47 l -0.845,4.45 -0.422,2.22 -0.501,2.2 -1.011,4.41 c -1.523,5.82 -3.163,11.63 -5.284,17.27 l -0.766,2.12 c -0.265,0.7 -0.56,1.39 -0.845,2.09 l -1.699,4.18 c -1.266,2.73 -2.435,5.5 -3.849,8.16 -1.306,2.71 -2.819,5.3 -4.292,7.93 -1.581,2.56 -3.103,5.16 -4.832,7.61 -6.687,9.98 -14.819,18.97 -24.011,26.66 -9.212,7.68 -19.612,13.92 -30.729,18.33 -11.117,4.38 -23.02,6.91 -34.912,6.76 -5.942,-0.11 -11.854,-0.89 -17.53,-2.49 -5.6767,-1.59 -11.0388,-4.14 -15.792,-7.52 -4.7237,-3.5 -8.9368,-7.69 -12.2464,-12.52 -1.6498,-2.42 -3.0836,-4.98 -4.2916,-7.64 -1.149,-2.69 -2.1998,-5.43 -2.848,-8.29 -2.8283,-11.37 -1.5124,-23.73 3.5747,-34.29 1.2767,-2.64 2.7989,-5.14 4.4783,-7.55 1.7579,-2.34 3.6336,-4.59 5.7647,-6.61 2.1311,-1.99 4.38,-3.88 6.8548,-5.45 1.1981,-0.84 2.4945,-1.52 3.7614,-2.25 0.6383,-0.36 1.3159,-0.65 1.9641,-0.98 0.658,-0.31 1.3061,-0.65 1.9936,-0.91 5.4013,-2.26 11.1854,-3.67 17.0684,-4.09 5.882,-0.45 11.844,-0.06 17.697,0.98 5.863,1.03 11.618,2.71 17.225,4.81 5.608,2.11 11.029,4.73 16.322,7.59 l 3.938,2.2 3.86,2.35 1.925,1.19 1.885,1.25 3.761,2.5 c 4.93,3.49 9.792,7.07 14.447,10.95 9.359,7.67 18.188,15.99 26.584,24.74 8.397,8.75 16.371,17.91 24.031,27.33 3.86,4.7 7.533,9.53 11.265,14.33 l 5.804,7.2 c 0.933,1.22 2.023,2.32 3.054,3.47 l 3.123,3.42 c 8.465,8.98 17.942,17.03 28.303,23.77 10.351,6.75 21.566,12.16 33.223,16.24 11.648,4.11 23.757,6.75 35.934,8.46 12.188,1.69 24.483,2.4 36.749,2.45 z" />
    <path
       inkscape:connector-curvature="0"
       id="path892"
       fill="#030404"
       d="m 399.804,1547.48 v -1.7 c -12.276,-0.05 -24.562,-0.76 -36.749,-2.45 -12.178,-1.71 -24.287,-4.34 -35.934,-8.46 -11.657,-4.08 -22.863,-9.49 -33.223,-16.24 -10.361,-6.74 -19.848,-14.8 -28.304,-23.77 l -3.123,-3.42 c -1.031,-1.15 -2.111,-2.25 -3.054,-3.47 l -5.804,-7.2 c -3.732,-4.8 -7.405,-9.63 -11.264,-14.32 -7.66,-9.43 -15.625,-18.59 -24.031,-27.34 -8.397,-8.75 -17.226,-17.07 -26.585,-24.74 -4.645,-3.88 -9.516,-7.45 -14.446,-10.95 l -3.761,-2.5 -1.886,-1.25 -1.925,-1.19 -3.859,-2.35 -3.938,-2.2 c -5.294,-2.86 -10.715,-5.48 -16.322,-7.59 -5.608,-2.1 -11.363,-3.77 -17.226,-4.81 -5.853,-1.04 -11.814,-1.42 -17.697,-0.98 -5.892,0.42 -11.6666,1.83 -17.0679,4.09 -0.6875,0.26 -1.3357,0.6 -1.9936,0.91 -0.658,0.33 -1.3258,0.62 -1.9642,0.98 -1.2668,0.73 -2.5632,1.4 -3.7613,2.25 -2.4748,1.58 -4.7237,3.46 -6.8548,5.45 -2.1311,2.01 -4.0068,4.27 -5.7647,6.61 -1.6794,2.4 -3.2114,4.91 -4.4783,7.55 -5.0871,10.57 -6.4031,22.92 -3.5747,34.29 0.6482,2.85 1.699,5.6 2.848,8.29 1.2178,2.66 2.6418,5.23 4.2916,7.64 3.3096,4.83 7.5227,9.02 12.2464,12.52 4.7532,3.38 10.1153,5.92 15.7915,7.52 5.676,1.6 11.589,2.38 17.53,2.49 11.893,0.15 23.795,-2.38 34.912,-6.76 11.127,-4.4 21.527,-10.65 30.729,-18.33 9.193,-7.7 17.324,-16.68 24.012,-26.66 1.728,-2.45 3.251,-5.04 4.832,-7.61 1.463,-2.62 2.975,-5.22 4.291,-7.93 1.414,-2.66 2.583,-5.43 3.85,-8.16 l 1.699,-4.18 c 0.275,-0.7 0.579,-1.4 0.845,-2.09 l 0.766,-2.12 c 2.131,-5.64 3.761,-11.45 5.283,-17.27 l 1.012,-4.41 0.5,-2.2 0.423,-2.22 0.844,-4.45 c 0.256,-1.48 0.462,-2.98 0.688,-4.47 1.777,-11.94 2.524,-24.04 2.327,-36.14 -0.373,-24.2 -4.056,-48.31 -9.928,-71.83 -2.947,-11.77 -6.335,-23.43 -10.224,-34.94 -0.933,-2.88 -2.003,-5.73 -3.005,-8.6 l -1.522,-4.29 -1.611,-4.26 c -1.09,-2.84 -2.141,-5.68 -3.26,-8.51 l -3.437,-8.44 c -1.12,-2.83 -2.357,-5.6 -3.555,-8.4 -1.218,-2.78 -2.377,-5.59 -3.654,-8.35 l -7.621,-16.6 c -5.087,-11.09 -10.311,-22.12 -15.172,-33.32 l -7.405,-16.75 -7.11,-16.88 -3.556,-8.43 c -1.198,-2.81 -2.278,-5.66 -3.427,-8.49 l -6.776,-17.02 c -8.721,-22.8 -17.186,-45.73 -24.503,-69.038 l -2.818,-8.718 c -0.933,-2.906 -1.748,-5.852 -2.632,-8.777 l -5.186,-17.575 -4.723,-17.711 c -0.766,-2.956 -1.63,-5.891 -2.308,-8.866 l -2.1214,-8.915 -2.1213,-8.915 -1.0606,-4.457 -0.9428,-4.487 -3.7318,-17.947 c -0.3241,-1.493 -0.6089,-2.995 -0.8642,-4.497 l -0.8053,-4.516 -1.6106,-9.023 -1.591,-9.023 -1.3454,-9.062 -1.3455,-9.062 c -0.4419,-3.024 -0.9231,-6.038 -1.2472,-9.082 l -2.1605,-18.202 c -0.4026,-3.034 -0.6187,-6.078 -0.9035,-9.121 l -0.8151,-9.131 -0.8151,-9.131 -0.5598,-9.15 c -3.2703,-48.786 -2.1311,-97.759 1.4534,-146.447 3.8596,-48.687 10.1939,-97.14 18.0013,-145.317 7.8764,-48.167 17.1174,-96.089 26.9974,-143.864 2.494,-11.939 4.939,-23.887 7.532,-35.806 l 3.84,-17.889 c 1.286,-5.969 2.553,-11.899 3.673,-17.849 4.409,-23.819 6.236,-48.158 4.527,-72.29 -0.157,-3.024 -0.53,-6.019 -0.805,-9.033 -0.295,-3.004 -0.776,-5.989 -1.149,-8.993 -0.511,-2.975 -0.963,-5.97 -1.542,-8.925 -0.628,-2.955 -1.149,-5.93 -1.915,-8.846 -2.809,-11.733 -6.55,-23.269 -11.529,-34.245 l -1.876,-4.114 -2.033,-4.035 -1.012,-2.023 c -0.353,-0.668 -0.726,-1.316 -1.09,-1.983 l -2.19,-3.947 C 115.26,95.8439 112.068,90.7287 108.444,85.9178 101.373,76.1685 93.0747,67.3421 84.0004,59.4287 79.3945,55.5604 74.6806,51.7903 69.6721,48.4619 67.2267,46.7143 64.6243,45.1827 62.0807,43.5627 60.804,42.7675 59.4684,42.0606 58.1721,41.3046 56.8561,40.5682 55.5696,39.7828 54.2144,39.1151 43.5491,33.5188 32.3438,28.8945 20.7456,25.576 9.15716,22.2084 -2.73566,19.9012 -14.7463,18.5758 c -12.0205,-1.2764 -24.1392,-1.6102 -36.2285,-1.1193 -24.1981,0.9818 -48.2195,5.2036 -71.6122,11.6049 -23.422,6.3621 -46.157,15.1199 -68.254,25.1736 l 0.707,1.5414 c 22.028,-10.0243 44.684,-18.7427 67.999,-25.0753 23.2845,-6.372 47.188,-10.5741 71.229,-11.5461 12.0106,-0.4811 24.0508,-0.1571 35.9829,1.1095 11.92227,1.3156 23.71689,3.6032 35.1972,6.9413 11.5,3.2891 22.5974,7.8643 33.1448,13.4115 1.3356,0.6578 2.6123,1.4334 3.9086,2.16 1.2865,0.7461 2.6025,1.4432 3.8694,2.2385 2.514,1.6003 5.0871,3.1123 7.5128,4.8403 4.9594,3.2989 9.6242,7.0297 14.181,10.8588 8.9761,7.825 17.1863,16.5532 24.1783,26.2044 3.585,4.7617 6.747,9.8279 9.801,14.9527 l 2.171,3.908 c 0.353,0.658 0.736,1.296 1.08,1.963 l 1.002,2.003 2.013,3.996 1.856,4.075 c 4.94,10.878 8.642,22.306 11.431,33.941 0.756,2.896 1.277,5.851 1.896,8.777 0.579,2.936 1.021,5.901 1.532,8.856 0.373,2.975 0.844,5.94 1.139,8.925 0.275,2.984 0.648,5.969 0.805,8.963 1.699,23.966 -0.108,48.168 -4.498,71.859 -1.119,5.92 -2.376,11.811 -3.663,17.8 l -3.85,17.889 c -2.592,11.919 -5.047,23.867 -7.542,35.816 -9.889,47.784 -19.121,95.736 -27.0067,143.933 -7.8074,48.206 -14.1516,96.707 -18.0111,145.454 -3.5944,48.757 -4.7336,97.808 -1.4535,146.692 l 0.5598,9.16 0.8151,9.15 0.8151,9.151 c 0.2848,3.043 0.5009,6.107 0.9036,9.14 l 2.1605,18.242 c 0.3241,3.044 0.8053,6.068 1.2472,9.102 l 1.3455,9.081 1.3454,9.082 1.5909,9.043 1.6106,9.042 0.8053,4.516 c 0.2553,1.512 0.5401,3.014 0.8642,4.507 l 3.7417,17.977 0.9428,4.496 1.0606,4.468 2.1213,8.934 2.1213,8.934 c 0.6774,2.985 1.5414,5.921 2.3074,8.886 l 4.734,17.741 5.195,17.604 c 0.884,2.926 1.699,5.881 2.632,8.787 l 2.819,8.728 c 7.326,23.347 15.811,46.307 24.532,69.137 l 6.786,17.04 c 1.149,2.82 2.229,5.69 3.427,8.5 l 3.555,8.44 7.11,16.9 7.405,16.76 c 4.861,11.21 10.096,22.25 15.183,33.35 l 7.611,16.57 c 1.267,2.75 2.426,5.56 3.643,8.33 1.198,2.78 2.436,5.55 3.546,8.36 l 3.427,8.42 c 1.11,2.82 2.161,5.65 3.251,8.48 l 1.61,4.24 1.513,4.28 c 0.992,2.86 2.062,5.7 2.995,8.57 3.889,11.46 7.257,23.09 10.194,34.8 5.853,23.43 9.506,47.42 9.879,71.46 0.197,12 -0.55,24.02 -2.307,35.85 -0.226,1.48 -0.433,2.97 -0.678,4.44 l -0.835,4.41 -0.422,2.2 -0.501,2.18 -1.002,4.36 c -1.512,5.78 -3.133,11.53 -5.234,17.1 l -0.756,2.1 c -0.265,0.7 -0.56,1.38 -0.835,2.07 l -1.689,4.13 c -1.247,2.7 -2.406,5.44 -3.801,8.07 -1.296,2.68 -2.789,5.25 -4.233,7.84 -1.561,2.52 -3.064,5.09 -4.772,7.51 -6.61,9.86 -14.633,18.72 -23.698,26.3 -9.084,7.57 -19.327,13.73 -30.267,18.06 -10.93,4.31 -22.637,6.78 -34.264,6.65 -5.804,-0.1 -11.579,-0.88 -17.088,-2.43 -5.5096,-1.54 -10.6949,-4.02 -15.2615,-7.26 -4.5765,-3.38 -8.652,-7.44 -11.8438,-12.1 -1.5909,-2.34 -2.9756,-4.81 -4.1443,-7.37 -1.0999,-2.6 -2.1212,-5.25 -2.7498,-8.01 -2.7301,-10.97 -1.4632,-22.93 3.4569,-33.14 1.2276,-2.55 2.7007,-4.98 4.3211,-7.29 1.699,-2.26 3.506,-4.43 5.5585,-6.37 2.0525,-1.92 4.2327,-3.75 6.6093,-5.26 1.149,-0.82 2.4159,-1.46 3.6337,-2.18 0.6187,-0.34 1.2668,-0.63 1.8954,-0.94 0.6383,-0.31 1.2668,-0.64 1.9248,-0.89 5.2246,-2.18 10.8127,-3.55 16.5377,-3.95 5.726,-0.44 11.54,-0.06 17.275,0.96 5.735,1.01 11.402,2.65 16.921,4.72 5.519,2.08 10.871,4.66 16.106,7.49 l 3.899,2.18 3.82,2.33 1.905,1.17 1.866,1.23 3.732,2.49 c 4.881,3.45 9.712,7.01 14.328,10.86 9.29,7.61 18.07,15.89 26.437,24.6 8.358,8.71 16.303,17.84 23.933,27.24 3.85,4.67 7.513,9.49 11.235,14.28 l 5.853,7.27 c 0.943,1.23 2.043,2.35 3.084,3.51 l 3.152,3.46 c 8.544,9.07 18.139,17.22 28.618,24.03 10.478,6.84 21.812,12.3 33.587,16.42 11.765,4.16 23.982,6.82 36.257,8.54 12.286,1.71 24.65,2.41 36.995,2.47 z" />
    <path
       inkscape:connector-curvature="0"
       id="path894"
       fill="#f3e000"
       d="m 399.804,1551.55 v -4.07 c -12.335,-0.06 -24.709,-0.76 -36.995,-2.47 -12.266,-1.72 -24.483,-4.38 -36.258,-8.54 -11.775,-4.12 -23.118,-9.58 -33.586,-16.42 -10.489,-6.81 -20.074,-14.96 -28.618,-24.03 l -3.152,-3.46 c -1.041,-1.16 -2.131,-2.28 -3.084,-3.51 l -5.853,-7.27 c -3.722,-4.79 -7.385,-9.6 -11.235,-14.28 -7.631,-9.4 -15.575,-18.53 -23.933,-27.24 -8.357,-8.71 -17.137,-16.98 -26.437,-24.6 -4.616,-3.85 -9.448,-7.41 -14.328,-10.86 l -3.732,-2.49 -1.866,-1.23 -1.905,-1.17 -3.821,-2.33 -3.898,-2.18 c -5.235,-2.82 -10.587,-5.41 -16.106,-7.49 -5.52,-2.07 -11.176,-3.71 -16.921,-4.72 -5.736,-1.01 -11.549,-1.4 -17.275,-0.96 -5.725,0.4 -11.3232,1.78 -16.5379,3.95 -0.6679,0.25 -1.2964,0.57 -1.9249,0.89 -0.6285,0.31 -1.2865,0.6 -1.8954,0.94 -1.2178,0.72 -2.4748,1.35 -3.6336,2.18 -2.3864,1.51 -4.5568,3.33 -6.6093,5.26 -2.0526,1.93 -3.8596,4.11 -5.5585,6.37 -1.6205,2.32 -3.0936,4.73 -4.3211,7.29 -4.9202,10.21 -6.1969,22.17 -3.4569,33.14 0.6285,2.76 1.64,5.41 2.7498,8.01 1.1686,2.57 2.5534,5.04 4.1443,7.37 3.2015,4.66 7.2673,8.72 11.8437,12.1 4.5666,3.24 9.7519,5.72 15.2618,7.26 5.509,1.55 11.283,2.33 17.087,2.42 11.638,0.15 23.334,-2.33 34.265,-6.64 10.94,-4.33 21.193,-10.49 30.267,-18.06 9.065,-7.59 17.088,-16.45 23.697,-26.3 1.709,-2.43 3.212,-4.99 4.773,-7.51 1.444,-2.59 2.946,-5.17 4.233,-7.84 1.394,-2.62 2.553,-5.37 3.801,-8.07 l 1.689,-4.13 c 0.275,-0.69 0.569,-1.37 0.834,-2.07 l 0.757,-2.1 c 2.101,-5.58 3.722,-11.33 5.234,-17.1 l 1.002,-4.36 0.501,-2.18 0.422,-2.2 0.835,-4.41 c 0.245,-1.47 0.451,-2.96 0.677,-4.44 1.758,-11.84 2.505,-23.85 2.308,-35.85 -0.373,-24.04 -4.026,-48.03 -9.879,-71.46 -2.937,-11.71 -6.305,-23.34 -10.194,-34.8 -0.933,-2.87 -2.004,-5.71 -2.996,-8.57 l -1.512,-4.28 -1.611,-4.24 c -1.08,-2.83 -2.14,-5.66 -3.25,-8.48 l -3.428,-8.42 c -1.109,-2.81 -2.347,-5.58 -3.545,-8.36 -1.218,-2.78 -2.377,-5.58 -3.643,-8.33 l -7.611,-16.57 c -5.088,-11.1 -10.322,-22.14 -15.183,-33.35 l -7.405,-16.76 -7.11,-16.9 -3.555,-8.44 c -1.198,-2.81 -2.279,-5.67 -3.428,-8.5 l -6.786,-17.04 c -8.73,-22.84 -17.215,-45.79 -24.532,-69.137 l -2.818,-8.728 c -0.933,-2.916 -1.748,-5.862 -2.632,-8.788 l -5.195,-17.603 -4.734,-17.742 c -0.766,-2.965 -1.63,-5.9 -2.3077,-8.885 l -2.1213,-8.934 -2.1212,-8.935 -1.0607,-4.467 -0.9428,-4.497 -3.7416,-17.976 c -0.3241,-1.493 -0.6089,-2.995 -0.8642,-4.507 l -0.8053,-4.516 -1.6106,-9.043 -1.591,-9.042 -1.3454,-9.082 -1.3454,-9.082 c -0.4518,-3.024 -0.9232,-6.048 -1.2473,-9.101 L 78.933,803.343 c -0.4027,-3.034 -0.6187,-6.087 -0.9035,-9.141 l -0.8151,-9.15 -0.8151,-9.15 -0.5598,-9.161 c -3.2801,-48.874 -2.1409,-97.925 1.4534,-146.691 3.8694,-48.757 10.2037,-97.248 18.0111,-145.455 7.886,-48.197 17.127,-96.148 27.007,-143.933 2.494,-11.938 4.94,-23.897 7.542,-35.816 l 3.85,-17.888 c 1.296,-5.989 2.553,-11.88 3.663,-17.8 4.39,-23.701 6.197,-47.903 4.498,-71.859 -0.147,-3.004 -0.53,-5.979 -0.805,-8.964 -0.295,-2.984 -0.766,-5.949 -1.14,-8.924 -0.501,-2.956 -0.952,-5.921 -1.532,-8.856 -0.628,-2.926 -1.139,-5.881 -1.895,-8.778 -2.789,-11.644 -6.492,-23.062 -11.431,-33.941 l -1.856,-4.074 -2.014,-3.996 -1.001,-2.003 c -0.344,-0.658 -0.717,-1.306 -1.081,-1.964 l -2.17,-3.907 C 113.885,96.7766 110.722,91.7105 107.138,86.9389 100.136,77.2878 91.9257,68.5595 82.9595,60.7345 78.4027,56.9055 73.7477,53.1746 68.7784,49.8757 66.3527,48.1379 63.7797,46.626 61.2656,45.0354 59.9987,44.2402 58.6828,43.5431 57.3962,42.7969 56.0901,42.0704 54.8232,41.2948 53.4876,40.6369 42.9304,35.0897 31.8331,30.5243 20.3429,27.2255 8.86252,23.8873 -2.94192,21.5997 -14.8544,20.2841 c -11.9321,-1.2665 -23.9624,-1.6003 -35.9829,-1.1094 -24.041,0.972 -47.9445,5.1741 -71.2297,11.546 -23.314,6.3327 -45.97,15.0511 -67.998,25.0753 l 1.699,3.6916 c 21.861,-9.9457 44.311,-18.5856 67.38,-24.8495 23.0291,-6.3032 46.638,-10.4464 70.3156,-11.3988 11.8339,-0.481 23.6678,-0.157 35.3741,1.0899 11.69639,1.2959 23.26514,3.5443 34.5,6.8039 11.2545,3.2203 22.0867,7.6875 32.3787,13.0973 1.3062,0.6381 2.5436,1.4039 3.8203,2.1108 1.257,0.7266 2.5435,1.4138 3.7711,2.1796 2.4552,1.5611 4.9595,3.0338 7.3164,4.7225 4.8416,3.2105 9.3788,6.8432 13.8177,10.5741 8.7404,7.6286 16.7344,16.1212 23.5601,25.5368 3.496,4.6439 6.57,9.5824 9.555,14.5798 l 2.121,3.819 c 0.354,0.638 0.717,1.267 1.051,1.915 l 0.982,1.954 1.964,3.907 1.807,3.986 c 4.822,10.623 8.456,21.816 11.186,33.225 0.747,2.837 1.247,5.733 1.866,8.61 0.57,2.887 1.002,5.793 1.503,8.689 0.363,2.926 0.825,5.832 1.119,8.768 0.265,2.935 0.639,5.861 0.786,8.806 1.669,23.564 -0.098,47.422 -4.439,70.828 -0.511,2.935 -1.169,5.842 -1.748,8.767 -0.589,2.906 -1.267,5.95 -1.896,8.915 l -3.849,17.898 c -2.603,11.929 -5.048,23.888 -7.543,35.836 -9.889,47.824 -19.14,95.825 -27.0456,144.1 -7.8173,48.285 -14.1811,96.894 -18.0504,145.798 -3.6042,48.914 -4.7532,98.161 -1.4633,147.261 l 0.5696,9.21 0.825,9.189 0.8249,9.19 c 0.2848,3.063 0.5009,6.127 0.9035,9.18 l 2.1704,18.33 c 0.324,3.063 0.8053,6.097 1.257,9.141 l 1.3553,9.131 1.3552,9.13 1.6008,9.092 1.6204,9.082 0.8053,4.545 c 0.2553,1.512 0.5401,3.024 0.874,4.527 l 3.7515,18.065 0.9428,4.516 1.0606,4.487 2.1311,8.974 2.1311,8.973 c 0.6875,2.995 1.5517,5.95 2.3177,8.925 l 4.7531,17.82 5.215,17.672 c 0.884,2.946 1.709,5.901 2.642,8.827 l 2.828,8.767 c 7.356,23.441 15.86,46.471 24.62,69.371 l 6.806,17.09 c 1.149,2.83 2.239,5.7 3.437,8.52 l 3.565,8.47 7.13,16.94 7.424,16.8 c 4.872,11.24 10.116,22.29 15.213,33.42 l 7.581,16.51 c 1.257,2.74 2.406,5.52 3.614,8.28 1.189,2.77 2.416,5.52 3.526,8.31 l 3.398,8.36 c 1.1,2.8 2.151,5.62 3.221,8.41 l 1.601,4.22 1.502,4.24 c 0.982,2.83 2.043,5.64 2.966,8.5 3.85,11.37 7.189,22.88 10.096,34.48 5.794,23.19 9.398,46.88 9.762,70.53 0.196,11.82 -0.541,23.62 -2.269,35.2 -0.226,1.44 -0.422,2.9 -0.668,4.34 l -0.815,4.31 -0.412,2.15 -0.491,2.13 -0.983,4.27 c -1.482,5.64 -3.054,11.25 -5.106,16.68 l -0.737,2.06 c -0.255,0.67 -0.54,1.34 -0.815,2.01 l -1.64,4.02 c -1.218,2.62 -2.347,5.3 -3.702,7.85 -1.257,2.6 -2.711,5.09 -4.115,7.62 -1.513,2.44 -2.976,4.94 -4.626,7.28 -6.403,9.55 -14.171,18.14 -22.931,25.46 -8.77,7.31 -18.649,13.23 -29.167,17.4 -10.499,4.14 -21.704,6.5 -32.713,6.36 -5.49,-0.1 -10.911,-0.83 -16.027,-2.27 -5.1268,-1.43 -9.8603,-3.71 -13.985,-6.64 -4.2327,-3.13 -7.9646,-6.85 -10.8911,-11.11 -1.4535,-2.14 -2.7204,-4.4 -3.7908,-6.74 -1.0017,-2.38 -1.9445,-4.8 -2.5141,-7.33 -2.5043,-10.04 -1.3356,-21.05 3.1819,-30.41 4.4586,-9.41 12.3446,-16.9 21.8903,-20.94 4.7828,-1.99 9.9288,-3.27 15.2708,-3.65 5.333,-0.4 10.803,-0.05 16.244,0.91 5.45,0.97 10.871,2.54 16.184,4.52 5.323,2 10.508,4.51 15.595,7.26 l 3.791,2.12 3.722,2.27 1.856,1.14 1.827,1.22 3.653,2.43 c 4.783,3.38 9.526,6.87 14.063,10.66 9.143,7.49 17.805,15.66 26.074,24.27 8.269,8.61 16.145,17.65 23.707,26.98 3.821,4.64 7.444,9.41 11.147,14.18 l 5.981,7.43 c 0.962,1.26 2.082,2.4 3.152,3.59 l 3.221,3.54 c 8.75,9.28 18.601,17.66 29.364,24.65 10.754,7.01 22.411,12.63 34.47,16.85 12.06,4.26 24.533,6.97 37.024,8.72 12.502,1.74 25.063,2.46 37.555,2.52 z" />
    <path
       inkscape:connector-curvature="0"
       id="path896"
       fill="#030404"
       d="m 399.804,1553.24 v -1.7 c -12.492,-0.06 -25.053,-0.78 -37.555,-2.52 -12.492,-1.74 -24.974,-4.46 -37.024,-8.72 -12.059,-4.22 -23.707,-9.83 -34.47,-16.85 -10.773,-7 -20.614,-15.37 -29.364,-24.65 l -3.221,-3.54 c -1.061,-1.19 -2.18,-2.33 -3.152,-3.59 l -5.981,-7.43 c -3.703,-4.78 -7.336,-9.55 -11.147,-14.18 -7.571,-9.32 -15.438,-18.36 -23.707,-26.98 -8.269,-8.61 -16.931,-16.79 -26.074,-24.27 -4.537,-3.79 -9.28,-7.27 -14.063,-10.66 l -3.653,-2.43 -1.827,-1.22 -1.856,-1.14 -3.722,-2.27 -3.791,-2.12 c -5.087,-2.74 -10.272,-5.26 -15.595,-7.26 -5.323,-1.99 -10.734,-3.55 -16.184,-4.52 -5.441,-0.96 -10.921,-1.31 -16.244,-0.91 -5.332,0.37 -10.488,1.66 -15.2709,3.65 -9.5359,4.04 -17.4317,11.53 -21.8903,20.94 -4.5175,9.36 -5.6862,20.37 -3.1819,30.41 0.5696,2.53 1.5124,4.95 2.5141,7.33 1.0705,2.34 2.3373,4.6 3.7908,6.74 2.9265,4.26 6.6486,7.98 10.8911,11.11 4.1345,2.93 8.8681,5.21 13.9851,6.64 5.116,1.45 10.537,2.17 16.027,2.27 11.009,0.14 22.214,-2.22 32.712,-6.36 10.518,-4.17 20.398,-10.1 29.168,-17.4 8.75,-7.32 16.518,-15.91 22.931,-25.46 1.66,-2.34 3.113,-4.84 4.626,-7.28 1.404,-2.53 2.857,-5.01 4.115,-7.62 1.355,-2.55 2.484,-5.23 3.702,-7.85 l 1.64,-4.02 c 0.265,-0.68 0.56,-1.34 0.815,-2.01 l 0.737,-2.06 c 2.052,-5.43 3.623,-11.04 5.106,-16.68 l 0.982,-4.27 0.491,-2.13 0.413,-2.15 0.815,-4.31 c 0.246,-1.44 0.442,-2.9 0.668,-4.34 1.718,-11.59 2.455,-23.39 2.268,-35.2 -0.363,-23.65 -3.967,-47.35 -9.761,-70.53 -2.907,-11.59 -6.246,-23.11 -10.096,-34.48 -0.923,-2.86 -1.984,-5.67 -2.966,-8.5 l -1.502,-4.24 -1.601,-4.22 c -1.08,-2.8 -2.121,-5.62 -3.221,-8.41 l -3.398,-8.36 c -1.11,-2.79 -2.338,-5.54 -3.526,-8.31 -1.208,-2.76 -2.357,-5.54 -3.614,-8.28 l -7.581,-16.51 c -5.097,-11.13 -10.342,-22.18 -15.213,-33.42 l -7.424,-16.8 -7.13,-16.94 -3.565,-8.47 c -1.198,-2.82 -2.288,-5.69 -3.437,-8.52 l -6.806,-17.09 c -8.76,-22.9 -17.264,-45.92 -24.62,-69.371 l -2.828,-8.767 c -0.943,-2.926 -1.758,-5.881 -2.642,-8.826 l -5.215,-17.673 -4.7532,-17.82 c -0.766,-2.975 -1.6401,-5.92 -2.3177,-8.924 l -2.1311,-8.974 -2.1311,-8.974 -1.0606,-4.487 -0.9428,-4.516 -3.7515,-18.065 c -0.3241,-1.502 -0.6187,-3.014 -0.874,-4.526 l -0.8053,-4.546 -1.6204,-9.082 -1.6008,-9.091 -1.3552,-9.131 -1.3553,-9.131 c -0.4517,-3.043 -0.933,-6.077 -1.257,-9.14 l -2.1704,-18.331 c -0.4026,-3.053 -0.6187,-6.116 -0.9035,-9.18 l -0.8249,-9.189 -0.825,-9.19 -0.5696,-9.209 c -3.2899,-49.101 -2.1409,-98.348 1.4633,-147.262 3.8792,-48.903 10.2331,-97.513 18.0504,-145.798 7.8958,-48.275 17.1467,-96.276 27.0457,-144.099 2.495,-11.949 4.95,-23.917 7.543,-35.836 l 3.849,-17.899 c 0.629,-2.965 1.307,-5.999 1.896,-8.914 0.579,-2.926 1.227,-5.832 1.748,-8.768 4.341,-23.406 6.108,-47.274 4.439,-70.827 -0.148,-2.956 -0.521,-5.872 -0.786,-8.807 -0.294,-2.936 -0.756,-5.842 -1.119,-8.768 -0.491,-2.896 -0.933,-5.812 -1.503,-8.689 -0.609,-2.877 -1.12,-5.773 -1.866,-8.61 -2.73,-11.409 -6.364,-22.592 -11.186,-33.225 l -1.807,-3.986 -1.964,-3.907 -0.982,-1.954 c -0.334,-0.648 -0.707,-1.276 -1.051,-1.915 l -2.121,-3.819 C 110.497,98.9366 107.423,93.9883 103.927,89.3444 97.1012,79.9386 89.1072,71.4362 80.3668,63.8076 75.9279,60.0767 71.3907,56.444 66.5491,53.2335 64.1922,51.5448 61.6781,50.0721 59.2327,48.511 58.0051,47.7354 56.7186,47.058 55.4616,46.3314 54.1947,45.6245 52.9573,44.8587 51.6413,44.2205 41.3395,38.8108 30.5073,34.3436 19.2626,31.1233 c -11.23484,-3.2695 -22.79376,-5.508 -34.5,-6.804 -11.7062,-1.2469 -23.55,-1.5709 -35.374,-1.0898 -23.6777,0.9524 -47.2767,5.0956 -70.3156,11.3988 -23.069,6.2639 -45.519,14.9038 -67.38,24.8495 l 0.707,1.5414 c 21.782,-9.9064 44.154,-18.5168 67.115,-24.7611 22.9308,-6.2737 46.412,-10.3973 69.9325,-11.3399 11.7553,-0.4712 23.5107,-0.1571 35.1285,1.08 11.60804,1.2862 23.06876,3.5149 34.2054,6.745 11.1465,3.1909 21.8706,7.6188 32.0645,12.9697 1.2963,0.6283 2.5239,1.3843 3.7711,2.0912 1.2374,0.7266 2.5141,1.3942 3.7319,2.16 2.4257,1.5414 4.9103,2.9945 7.2378,4.6734 4.7826,3.1811 9.2707,6.7745 13.6605,10.4562 8.6422,7.5403 16.5479,15.9446 23.3048,25.2521 3.457,4.5948 6.501,9.4842 9.457,14.4232 l 2.092,3.779 c 0.343,0.629 0.707,1.257 1.041,1.895 l 0.972,1.935 1.944,3.868 1.798,3.947 c 4.782,10.525 8.377,21.609 11.087,32.92 0.737,2.817 1.238,5.694 1.846,8.541 0.56,2.857 1.002,5.744 1.493,8.621 0.364,2.896 0.825,5.782 1.11,8.698 0.265,2.916 0.638,5.823 0.786,8.748 1.659,23.397 -0.099,47.117 -4.42,70.406 -0.51,2.916 -1.158,5.812 -1.738,8.718 -0.589,2.896 -1.267,5.94 -1.895,8.905 l -3.85,17.908 c -2.602,11.929 -5.048,23.897 -7.542,35.846 -9.9,47.843 -19.1506,95.863 -27.0562,144.178 -7.8271,48.325 -14.1909,96.973 -18.07,145.946 -3.6141,48.972 -4.7631,98.298 -1.4633,147.496 l 0.5696,9.219 0.8249,9.21 0.8249,9.209 c 0.2848,3.063 0.5107,6.146 0.9134,9.2 l 2.1802,18.359 c 0.324,3.064 0.8053,6.107 1.257,9.161 l 1.3552,9.15 1.3553,9.151 1.6008,9.101 1.6204,9.101 0.8151,4.556 c 0.2553,1.522 0.5401,3.034 0.874,4.536 l 3.7614,18.095 0.9427,4.526 1.0705,4.496 2.1311,8.994 2.1409,8.993 c 0.6874,3.004 1.5516,5.96 2.3275,8.934 l 4.7626,17.85 5.225,17.702 c 0.884,2.945 1.709,5.91 2.652,8.836 l 2.828,8.777 c 7.365,23.49 15.89,46.54 24.65,69.47 l 6.815,17.11 c 1.149,2.84 2.239,5.71 3.438,8.53 l 3.564,8.48 7.14,16.96 7.434,16.81 c 4.871,11.26 10.125,22.32 15.222,33.45 l 7.572,16.49 c 1.257,2.73 2.406,5.51 3.604,8.26 1.189,2.76 2.406,5.49 3.516,8.28 l 3.388,8.34 c 1.1,2.79 2.141,5.59 3.212,8.39 l 1.591,4.2 1.502,4.24 c 0.982,2.82 2.043,5.62 2.956,8.47 3.84,11.33 7.169,22.8 10.056,34.34 5.775,23.1 9.35,46.67 9.713,70.15 0.197,11.75 -0.54,23.44 -2.249,34.94 -0.226,1.43 -0.422,2.87 -0.658,4.3 l -0.815,4.27 -0.403,2.14 -0.481,2.11 -0.972,4.22 c -1.463,5.58 -3.025,11.14 -5.058,16.5 l -0.726,2.03 c -0.256,0.66 -0.541,1.32 -0.806,1.99 l -1.62,3.98 c -1.208,2.59 -2.318,5.23 -3.653,7.75 -1.248,2.57 -2.681,5.04 -4.066,7.52 -1.493,2.42 -2.937,4.88 -4.567,7.2 -6.324,9.43 -13.984,17.89 -22.607,25.1 -8.642,7.21 -18.374,13.04 -28.706,17.13 -10.321,4.07 -21.32,6.38 -32.064,6.24 -5.362,-0.1 -10.636,-0.81 -15.586,-2.2 -4.959,-1.38 -9.506,-3.58 -13.4539,-6.38 -4.0854,-3.03 -7.6798,-6.61 -10.4885,-10.7 -1.3945,-2.05 -2.6123,-4.22 -3.6435,-6.48 -0.9624,-2.28 -1.8659,-4.61 -2.4158,-7.03 -2.4061,-9.65 -1.2865,-20.27 3.064,-29.27 4.2916,-9.06 11.8536,-16.24 21.0261,-20.12 4.6056,-1.91 9.5656,-3.15 14.7406,-3.51 5.166,-0.39 10.498,-0.05 15.821,0.89 5.323,0.95 10.646,2.48 15.88,4.44 5.235,1.96 10.361,4.45 15.389,7.16 l 3.752,2.1 3.692,2.25 1.837,1.13 1.807,1.19 3.614,2.41 c 4.743,3.36 9.447,6.81 13.955,10.57 9.074,7.44 17.697,15.57 25.927,24.14 8.229,8.57 16.076,17.58 23.618,26.87 3.801,4.62 7.425,9.37 11.117,14.14 l 6.04,7.5 c 0.972,1.27 2.102,2.42 3.182,3.62 l 3.26,3.56 c 8.839,9.39 18.787,17.84 29.678,24.92 10.882,7.09 22.657,12.78 34.834,17.03 12.178,4.3 24.768,7.04 37.348,8.8 12.6,1.75 25.23,2.48 37.79,2.53 z" />
    <path
       inkscape:connector-curvature="0"
       id="path898"
       fill="#3ea95c"
       d="m 399.804,1557.3 v -4.06 c -12.561,-0.06 -25.19,-0.78 -37.79,-2.53 -12.59,-1.76 -25.171,-4.49 -37.348,-8.8 -12.178,-4.25 -23.953,-9.94 -34.834,-17.03 -10.891,-7.08 -20.84,-15.53 -29.678,-24.92 l -3.261,-3.56 c -1.07,-1.2 -2.209,-2.36 -3.182,-3.62 l -6.039,-7.5 c -3.693,-4.76 -7.317,-9.52 -11.117,-14.14 -7.543,-9.29 -15.389,-18.3 -23.619,-26.87 -8.23,-8.57 -16.852,-16.7 -25.927,-24.14 -4.507,-3.76 -9.211,-7.21 -13.955,-10.57 l -3.614,-2.41 -1.807,-1.19 -1.836,-1.13 -3.693,-2.25 -3.751,-2.1 c -5.029,-2.71 -10.145,-5.19 -15.389,-7.16 -5.235,-1.96 -10.558,-3.49 -15.88,-4.44 -5.323,-0.94 -10.656,-1.27 -15.821,-0.89 -5.176,0.36 -10.135,1.61 -14.7412,3.51 -9.1725,3.88 -16.7345,11.06 -21.0261,20.12 -4.3407,9 -5.4701,19.61 -3.064,29.27 0.5499,2.43 1.4534,4.75 2.4158,7.03 1.0312,2.26 2.2392,4.43 3.6435,6.48 2.8087,4.09 6.3933,7.68 10.4885,10.7 3.9479,2.79 8.4949,4.99 13.4545,6.38 4.949,1.4 10.223,2.11 15.585,2.2 10.744,0.14 21.743,-2.17 32.065,-6.24 10.331,-4.1 20.063,-9.93 28.706,-17.13 8.622,-7.22 16.282,-15.67 22.607,-25.1 1.64,-2.32 3.074,-4.78 4.566,-7.2 1.385,-2.49 2.819,-4.95 4.066,-7.52 1.345,-2.51 2.455,-5.16 3.653,-7.75 l 1.621,-3.98 c 0.265,-0.67 0.55,-1.33 0.805,-1.99 l 0.727,-2.03 c 2.033,-5.37 3.594,-10.92 5.057,-16.5 l 0.973,-4.22 0.481,-2.11 0.403,-2.14 0.815,-4.27 c 0.245,-1.44 0.442,-2.87 0.658,-4.3 1.708,-11.5 2.435,-23.19 2.249,-34.94 -0.364,-23.48 -3.948,-47.06 -9.713,-70.15 -2.887,-11.54 -6.217,-23.01 -10.056,-34.34 -0.924,-2.85 -1.974,-5.65 -2.956,-8.47 l -1.503,-4.24 -1.591,-4.2 c -1.07,-2.8 -2.111,-5.6 -3.211,-8.39 l -3.388,-8.34 c -1.1,-2.79 -2.328,-5.53 -3.516,-8.28 -1.208,-2.75 -2.347,-5.53 -3.604,-8.26 l -7.572,-16.49 c -5.107,-11.13 -10.351,-22.19 -15.222,-33.45 l -7.434,-16.81 -7.14,-16.96 -3.565,-8.48 c -1.198,-2.82 -2.288,-5.7 -3.437,-8.53 l -6.816,-17.11 c -8.77,-22.93 -17.284,-45.99 -24.65,-69.47 l -2.828,-8.777 c -0.943,-2.926 -1.758,-5.891 -2.652,-8.837 l -5.224,-17.702 -4.7632,-17.849 c -0.766,-2.984 -1.64,-5.93 -2.3275,-8.934 l -2.1409,-8.994 -2.1311,-8.993 -1.0704,-4.497 -0.9428,-4.526 -3.7613,-18.094 c -0.3241,-1.503 -0.6188,-3.024 -0.8741,-4.536 l -0.8151,-4.556 -1.6204,-9.101 -1.6008,-9.102 -1.3552,-9.15 -1.3553,-9.15 c -0.4517,-3.054 -0.9329,-6.097 -1.257,-9.161 l -2.1802,-18.359 c -0.4027,-3.054 -0.6187,-6.127 -0.9133,-9.2 l -0.825,-9.209 -0.8249,-9.21 -0.5696,-9.219 c -3.2998,-49.198 -2.1507,-98.524 1.4633,-147.497 3.8792,-48.962 10.2429,-97.621 18.07,-145.945 7.9056,-48.315 17.1568,-96.335 27.0558,-144.178 2.495,-11.959 4.95,-23.927 7.542,-35.846 l 3.85,-17.908 c 0.629,-2.965 1.316,-6.009 1.895,-8.905 0.57,-2.906 1.228,-5.803 1.739,-8.719 4.321,-23.288 6.079,-47.008 4.419,-70.405 -0.147,-2.926 -0.511,-5.832 -0.786,-8.748 -0.284,-2.916 -0.746,-5.792 -1.109,-8.699 -0.491,-2.876 -0.923,-5.763 -1.493,-8.62 -0.609,-2.847 -1.11,-5.724 -1.846,-8.542 -2.711,-11.31 -6.305,-22.395 -11.088,-32.919 l -1.797,-3.947 -1.945,-3.869 -0.972,-1.934 c -0.334,-0.638 -0.697,-1.257 -1.041,-1.895 l -2.092,-3.78 c -2.956,-4.9381 -6,-9.8374 -9.457,-14.4224 C 95.7263,81.0481 87.8109,72.6438 79.1687,65.1036 74.7788,61.4218 70.2908,57.8284 65.5081,54.6473 63.1708,52.9783 60.696,51.5154 58.2703,49.9739 57.0525,49.2081 55.7758,48.5405 54.5384,47.814 53.2814,47.1169 52.0538,46.3609 50.7673,45.7227 40.5734,40.3719 29.8493,35.9439 18.7028,32.753 7.57601,29.5131 -3.89453,27.2942 -15.5026,26.008 c -11.6178,-1.237 -23.3731,-1.561 -35.1285,-1.0799 -23.5205,0.9523 -47.0017,5.0661 -69.9329,11.3398 -22.961,6.2345 -45.332,14.8449 -67.114,24.7612 l 1.698,3.6915 c 21.616,-9.8278 43.781,-18.3597 66.496,-24.5353 22.6761,-6.205 45.8627,-10.2697 69.0199,-11.2024 11.5687,-0.4713 23.1276,-0.1473 34.5196,1.0604 11.39199,1.2567 22.61702,3.4461 33.4983,6.6075 10.901,3.1123 21.36,7.4421 31.2985,12.6555 1.2668,0.6185 2.4551,1.3549 3.6827,2.0323 1.208,0.7069 2.4552,1.3549 3.6337,2.1011 2.3569,1.5022 4.7826,2.916 7.0512,4.5556 4.6648,3.0927 9.0252,6.5977 13.2972,10.1813 8.4065,7.3439 16.1059,15.5125 22.6759,24.5746 3.368,4.4672 6.334,9.2388 9.212,14.0598 l 2.042,3.681 c 0.334,0.619 0.688,1.228 1.022,1.846 l 0.943,1.885 1.905,3.77 1.748,3.849 c 4.665,10.27 8.181,21.119 10.842,32.194 0.727,2.758 1.208,5.576 1.807,8.365 0.55,2.807 0.982,5.635 1.463,8.463 0.354,2.847 0.805,5.675 1.09,8.541 0.265,2.867 0.629,5.715 0.766,8.591 1.631,22.994 -0.098,46.371 -4.36,69.375 -0.501,2.876 -1.149,5.743 -1.719,8.61 l -0.933,4.408 -0.962,4.477 -3.85,17.918 c -2.602,11.939 -5.048,23.917 -7.552,35.876 -9.909,47.882 -19.1698,95.951 -27.0853,144.345 -7.8369,48.403 -14.2203,97.169 -18.1093,146.279 -3.6238,49.13 -4.7826,98.652 -1.4633,148.076 l 0.5696,9.268 0.825,9.249 0.8249,9.248 c 0.2848,3.083 0.5107,6.166 0.9133,9.239 l 2.19,18.448 c 0.3241,3.083 0.8152,6.137 1.2669,9.2 l 1.3651,9.19 1.365,9.189 1.6107,9.151 1.6302,9.14 0.8151,4.576 c 0.2553,1.531 0.5499,3.043 0.874,4.555 l 3.781,18.183 0.9526,4.546 1.0704,4.516 2.141,9.033 2.1507,9.032 c 0.6874,3.015 1.5614,5.98 2.3373,8.974 l 4.7826,17.918 5.2445,17.781 c 0.893,2.955 1.718,5.94 2.661,8.875 l 2.838,8.807 c 7.395,23.572 15.939,46.702 24.739,69.712 l 6.835,17.15 c 1.149,2.85 2.249,5.73 3.447,8.56 l 3.575,8.5 7.159,17 7.444,16.85 c 4.891,11.29 10.145,22.37 15.261,33.52 l 7.543,16.44 c 1.247,2.71 2.386,5.47 3.584,8.2 1.179,2.74 2.396,5.47 3.486,8.22 l 3.369,8.28 c 1.09,2.77 2.121,5.56 3.192,8.33 l 1.581,4.17 1.483,4.19 c 0.972,2.8 2.023,5.59 2.936,8.41 3.81,11.23 7.1,22.59 9.968,34.02 5.716,22.84 9.241,46.12 9.595,69.22 0.186,11.55 -0.531,23.03 -2.2,34.28 -0.216,1.4 -0.413,2.82 -0.648,4.21 l -0.796,4.17 -0.393,2.09 -0.471,2.07 -0.953,4.12 c -1.433,5.45 -2.946,10.87 -4.929,16.09 l -0.708,1.97 c -0.245,0.66 -0.52,1.3 -0.775,1.95 l -1.572,3.87 c -1.168,2.51 -2.249,5.08 -3.555,7.53 -1.208,2.5 -2.602,4.88 -3.938,7.29 -1.453,2.35 -2.838,4.72 -4.429,6.97 -6.118,9.14 -13.523,17.3 -21.841,24.26 -8.328,6.94 -17.697,12.55 -27.596,16.48 -9.89,3.91 -20.398,6.09 -30.513,5.96 -5.048,-0.09 -9.968,-0.77 -14.525,-2.04 -4.5664,-1.28 -8.6715,-3.28 -12.1873,-5.76 -3.7416,-2.78 -6.9923,-6.02 -9.526,-9.72 -1.2571,-1.85 -2.3471,-3.81 -3.2801,-5.84 -0.8642,-2.06 -1.6892,-4.15 -2.1802,-6.35 -2.1802,-8.72 -1.1588,-18.38 2.7793,-26.53 3.8988,-8.21 10.675,-14.63 18.9538,-18.14 4.1645,-1.73 8.6815,-2.88 13.4645,-3.21 4.773,-0.37 9.761,-0.05 14.799,0.84 5.038,0.89 10.116,2.36 15.144,4.23 5.028,1.9 9.997,4.29 14.878,6.92 l 3.644,2.05 3.594,2.19 1.797,1.1 1.768,1.18 3.535,2.36 c 4.646,3.29 9.261,6.67 13.69,10.38 8.927,7.31 17.432,15.33 25.573,23.81 8.142,8.47 15.91,17.4 23.393,26.61 3.771,4.59 7.356,9.31 11.039,14.03 l 6.167,7.66 c 0.992,1.3 2.151,2.48 3.251,3.71 l 3.329,3.65 c 9.045,9.61 19.248,18.28 30.424,25.54 11.157,7.28 23.246,13.11 35.708,17.46 12.463,4.4 25.308,7.19 38.124,8.99 12.826,1.78 25.642,2.51 38.36,2.56 z" />
  </g>
  <defs
     id="defs905">
    <clipPath
       id="clip0_160_28">
      <rect
         y="0"
         x="0"
         id="rect902"
         transform="translate(-198)"
         fill="#ffffff"
         height="1559"
         width="598" />
    </clipPath>
  </defs>
</svg>
